<?xml version="1.0" standalone="no"?>
<!DOCTYPE svg PUBLIC "-//W3C//DTD SVG 1.1//EN" "http://www.w3.org/Graphics/SVG/1.1/DTD/svg11.dtd" >
<svg>
<metadata>
Created by FontForge 20090622 at Thu Aug 10 08:45:46 2017
 By deploy user
Copyright &#194;&#169; 2012 by Manuel Eduardo Corradine - Sergio Ram&#195;&#173;rez. All rights reserved.
</metadata>
<defs>
<font id="Neuron-DemiBold" horiz-adv-x="464" >
  <font-face 
    font-family="Neuron DemiBold"
    font-weight="600"
    font-stretch="normal"
    units-per-em="1000"
    panose-1="0 0 0 0 0 0 0 0 0 0"
    ascent="800"
    descent="-200"
    x-height="492"
    cap-height="618"
    bbox="-57 -239 867 865"
    underline-thickness="50"
    underline-position="-50"
    unicode-range="U+000D-U+F6C3"
  />
<missing-glyph horiz-adv-x="500" 
d="M75 0v561h350v-561h-350zM85 11h330v539h-330v-539zM324 349l-70 -69l70 -69l-5 -4l-69 69l-68 -69l-5 4l69 69l-69 69l4 5l69 -69l70 69z" />
    <glyph glyph-name=".notdef" horiz-adv-x="500" 
d="M75 0v561h350v-561h-350zM85 11h330v539h-330v-539zM324 349l-70 -69l70 -69l-5 -4l-69 69l-68 -69l-5 4l69 69l-69 69l4 5l69 -69l70 69z" />
    <glyph glyph-name=".null" horiz-adv-x="0" 
 />
    <glyph glyph-name="nonmarkingreturn" horiz-adv-x="333" 
 />
    <glyph glyph-name="NULL" horiz-adv-x="0" 
 />
    <glyph glyph-name="NULL" horiz-adv-x="0" 
 />
    <glyph glyph-name="CR" unicode="&#xd;" horiz-adv-x="424" 
 />
    <glyph glyph-name="space" unicode=" " horiz-adv-x="205" 
 />
    <glyph glyph-name="exclam" unicode="!" horiz-adv-x="207" 
d="M103 151q-27 0 -34.5 5.5t-7.5 24.5q0 61 -3.5 199t-3.5 208q0 18 10 24t39 6q30 0 40 -6t10 -24q0 -70 -3.5 -208t-3.5 -199q0 -19 -8 -24.5t-35 -5.5zM104 0q-32 0 -42 7t-10 29v26q0 22 10 29t42 7t41.5 -7t9.5 -29v-26q0 -22 -9.5 -29t-41.5 -7z" />
    <glyph glyph-name="quotedbl" unicode="&#x22;" horiz-adv-x="284" 
d="M74 399q-19 0 -26 4.5t-9 18.5q-15 109 -15 164q0 19 9.5 25.5t40.5 6.5t40.5 -6.5t9.5 -25.5q0 -55 -15 -164q-2 -14 -9 -18.5t-26 -4.5zM211 399q-20 0 -27 4.5t-9 18.5q-14 119 -14 164q0 19 9.5 25.5t40.5 6.5t40 -6.5t9 -25.5q0 -45 -14 -164q-2 -14 -9 -18.5
t-26 -4.5z" />
    <glyph glyph-name="numbersign" unicode="#" 
d="M314 38q-25 0 -33 5.5t-8 24.5v110h-84v-110q0 -19 -8 -24.5t-33 -5.5t-33 5.5t-8 24.5v110h-52q-19 0 -24.5 6.5t-5.5 29.5q0 24 5.5 30t24.5 6h52v135h-52q-19 0 -24.5 6.5t-5.5 29.5t5.5 29.5t24.5 6.5h52v99q0 19 8 24.5t33 5.5t33 -5.5t8 -24.5v-99h84v99
q0 19 8 24.5t33 5.5q24 0 32 -5.5t8 -24.5v-99h54q19 0 24.5 -6.5t5.5 -29.5t-5.5 -29.5t-24.5 -6.5h-54v-135h54q19 0 24.5 -6t5.5 -30q0 -23 -5.5 -29.5t-24.5 -6.5h-54v-110q0 -19 -8 -24.5t-32 -5.5zM189 385v-135h84v135h-84z" />
    <glyph glyph-name="dollar" unicode="$" 
d="M243 723q28 0 36 -5.5t8 -24.5v-73q55 -6 94 -17q13 -3 18.5 -12t5.5 -33q0 -23 -4 -31t-14 -8q-4 0 -23.5 4.5t-50.5 8.5t-62 4q-59 0 -79.5 -13.5t-20.5 -62.5q0 -32 9 -46.5t35 -25.5l131 -57q53 -23 74 -58t21 -101q0 -158 -151 -178v-76q0 -19 -8 -24.5t-37 -5.5
t-36.5 5.5t-7.5 24.5v73q-67 5 -111 17q-15 5 -21 14.5t-6 32.5q0 24 4 31.5t14 7.5q3 0 49 -8.5t90 -8.5q67 0 96.5 20t29.5 69q0 37 -10 56t-40 32l-123 54q-53 23 -75 55t-22 97q0 86 38 121.5t104 39.5v72q0 19 8 24.5t37 5.5z" />
    <glyph glyph-name="percent" unicode="%" horiz-adv-x="521" 
d="M384 0q-72 0 -94.5 27.5t-22.5 111.5q0 83 23.5 110.5t93.5 27.5q71 0 94 -27.5t23 -110.5q0 -84 -22.5 -111.5t-94.5 -27.5zM384 61q31 0 38.5 14t7.5 63q0 50 -7.5 64t-38.5 14q-30 0 -37.5 -14t-7.5 -64q0 -49 7.5 -63t37.5 -14zM136 341q-72 0 -94 27.5t-22 111.5
q0 83 23 110.5t93 27.5q71 0 94.5 -27.5t23.5 -110.5q0 -84 -22.5 -111.5t-95.5 -27.5zM136 402q31 0 38.5 14t7.5 63t-7.5 63t-38.5 14q-30 0 -37.5 -14t-7.5 -63t7.5 -63t37.5 -14zM82 0q-34 0 -34 15q0 10 11 28l324 555q6 12 16.5 16t37.5 4q34 0 34 -15q0 -9 -11 -29
l-324 -554q-6 -12 -16.5 -16t-37.5 -4z" />
    <glyph glyph-name="ampersand" unicode="&#x26;" horiz-adv-x="517" 
d="M483 276h-51v-140q0 -84 -45.5 -114t-143.5 -30q-109 0 -154.5 39t-45.5 134q0 72 29 108t99 41q-103 17 -103 151q0 91 38.5 124.5t113.5 33.5q85 0 158 -20q13 -3 17 -11t4 -32q0 -39 -20 -39q-3 0 -53.5 8.5t-87.5 8.5q-42 0 -56.5 -17t-14.5 -71q0 -52 23 -77t94 -25
h63v57q0 19 7 24t34 5t34 -5t7 -24v-57h54q16 0 21.5 -7.5t5.5 -28.5t-5.5 -28.5t-21.5 -7.5zM245 75q57 0 79.5 16t22.5 60v125h-66q-85 0 -112 -25t-27 -79q0 -53 20.5 -75t82.5 -22z" />
    <glyph glyph-name="quotesingle" unicode="'" horiz-adv-x="148" 
d="M74 399q-19 0 -26 4.5t-9 18.5q-15 109 -15 164q0 19 9.5 25.5t40.5 6.5t40.5 -6.5t9.5 -25.5q0 -55 -15 -164q-2 -14 -9 -18.5t-26 -4.5z" />
    <glyph glyph-name="parenleft" unicode="(" horiz-adv-x="208" 
d="M41 305q0 195 69 343q7 14 17.5 19t33.5 5q34 0 34 -20q0 -8 -14 -53t-28 -124t-14 -170t14 -170t28 -123.5t14 -52.5q0 -21 -34 -21q-38 0 -51 24q-69 150 -69 343z" />
    <glyph glyph-name="parenright" unicode=")" horiz-adv-x="208" 
d="M167 305q0 -193 -69 -343q-7 -13 -17.5 -18.5t-33.5 -5.5q-34 0 -34 21q0 8 14 53t28 123.5t14 169.5t-14 170t-28 124t-14 53q0 20 34 20q23 0 33.5 -5t17.5 -19q69 -148 69 -343z" />
    <glyph glyph-name="asterisk" unicode="*" horiz-adv-x="391" 
d="M195 623q24 0 31.5 -5t7.5 -19v-82q0 -13 -3 -22q5 7 20 11l73 23q13 4 20.5 -1.5t14.5 -27.5q7 -24 4.5 -32t-15.5 -13l-73 -23q-18 -5 -24 -4q9 -5 18 -16l48 -66q8 -10 5 -19t-23 -23q-19 -14 -28 -14.5t-17 11.5l-48 66q-8 10 -11 20q-1 -9 -10 -20l-48 -66
q-8 -12 -17 -11.5t-28 14.5q-20 14 -23.5 23t5.5 19l47 66q9 12 18 16q-10 0 -23 4l-73 23q-13 5 -15.5 13t4.5 32q7 22 14.5 27.5t20.5 1.5l73 -23q14 -4 20 -12q-3 9 -3 23v82q0 14 7.5 19t30.5 5z" />
    <glyph glyph-name="plus" unicode="+" 
d="M232 92q-27 0 -35 5.5t-8 22.5v110h-98q-18 0 -23 6.5t-5 32.5t5 32.5t23 6.5h98v111q0 17 8 22.5t35 5.5t35 -5.5t8 -22.5v-111h98q18 0 23 -6.5t5 -32.5t-5 -32.5t-23 -6.5h-98v-110q0 -17 -8 -22.5t-35 -5.5z" />
    <glyph glyph-name="comma" unicode="," horiz-adv-x="165" 
d="M81 105q31 0 40.5 -7t9.5 -29v-27q0 -36 -15 -84l-16 -55q-8 -21 -17.5 -27t-34.5 -6q-18 0 -24 4t-6 14q0 6 6.5 51t6.5 74v56q0 22 9 29t41 7z" />
    <glyph glyph-name="hyphen" unicode="-" horiz-adv-x="321" 
d="M33 261q0 27 5.5 35t22.5 8h199q17 0 22.5 -8t5.5 -35t-5.5 -35t-22.5 -8h-199q-17 0 -22.5 8t-5.5 35z" />
    <glyph glyph-name="period" unicode="." horiz-adv-x="180" 
d="M91 0q-32 0 -42 7t-10 29v33q0 23 9.5 29.5t42.5 6.5q32 0 41.5 -6.5t9.5 -29.5v-33q0 -22 -9.5 -29t-41.5 -7z" />
    <glyph glyph-name="slash" unicode="/" horiz-adv-x="267" 
d="M214 672q42 0 42 -19q0 -11 -7 -40l-145 -647q-6 -27 -50 -27q-41 0 -41 19q0 11 7 40l145 647q6 27 49 27z" />
    <glyph glyph-name="zero" unicode="0" 
d="M232 76q64 0 84.5 31.5t20.5 131.5v132q0 108 -18.5 138t-86.5 30q-64 0 -84.5 -31t-20.5 -137v-132q0 -102 19 -132.5t86 -30.5zM232 -8q-75 0 -116.5 18t-63.5 69.5t-22 146.5v151q0 78 11.5 127t38.5 75t61.5 35t90.5 9q59 0 95 -9.5t61.5 -36.5t35.5 -74.5t10 -125.5
v-150q0 -74 -12.5 -121t-40.5 -71.5t-62 -33.5t-87 -9z" />
    <glyph glyph-name="one" unicode="1" 
d="M372 0h-277q-16 0 -22 8.5t-6 34.5t6 35t22 9h89v428l-80 -23q-13 -4 -23 -4q-17 0 -17 42q0 26 4.5 35t17.5 13l103 32q19 8 44 8q29 0 38.5 -6t9.5 -24v-501h91q15 0 21 -9t6 -35t-6 -34.5t-21 -8.5z" />
    <glyph glyph-name="two" unicode="2" 
d="M157 87h230q16 0 22 -9t6 -35t-6 -34.5t-22 -8.5h-309q-17 0 -23.5 6t-6.5 25v64q0 52 19 84t67 77l134 128q21 20 30 35.5t9 42.5q0 49 -18 62.5t-74 13.5q-41 0 -86.5 -9.5t-48.5 -9.5q-17 0 -17 39q0 24 5.5 32.5t20.5 13.5q66 19 153 19q30 0 50 -2t43.5 -10.5
t37.5 -24t23.5 -44.5t9.5 -70q0 -54 -20.5 -84.5t-80.5 -87.5l-110 -103q-15 -14 -21 -21.5t-11.5 -22.5t-5.5 -35v-31z" />
    <glyph glyph-name="three" unicode="3" 
d="M234 -8q-102 0 -164 18q-15 5 -21 13.5t-6 31.5q0 24 4 31.5t14 7.5q3 0 58 -8.5t96 -8.5q61 0 82 24t21 76t-30 76t-123 24q-16 0 -21.5 8.5t-5.5 31.5t5.5 31t21.5 8q79 0 110 24.5t31 74.5t-17 66.5t-71 16.5q-37 0 -86.5 -9t-52.5 -9q-18 0 -18 40q0 24 5.5 32
t18.5 12q71 19 161 19q80 0 119.5 -33t39.5 -125q0 -128 -113 -146q69 -5 97 -40.5t28 -107.5q0 -94 -45.5 -136.5t-137.5 -42.5z" />
    <glyph glyph-name="four" unicode="4" 
d="M328 0q-29 0 -38.5 6t-9.5 24v123h-222q-21 0 -27.5 8.5t-6.5 40.5q0 30 13 54l183 330q11 21 27.5 26.5t59.5 5.5q42 0 55.5 -5.5t13.5 -24.5v-353h36q17 0 22.5 -7.5t5.5 -33.5q0 -25 -6 -33t-22 -8h-36v-123q0 -18 -9.5 -24t-38.5 -6zM279 530l-158 -295h163l1 295h-6
z" />
    <glyph glyph-name="five" unicode="5" 
d="M214 -8q-68 0 -134 19q-16 4 -21.5 11.5t-5.5 31.5t4 31.5t14 7.5q1 0 43 -8.5t84 -8.5q70 0 92.5 19.5t22.5 84.5v33q0 56 -17.5 72t-66.5 16q-37 0 -82 -8t-53 -8q-10 0 -15.5 1t-10.5 7t-5 17v280q0 17 6 22.5t26 5.5h267q16 0 22 -9t6 -35t-6 -34.5t-22 -8.5h-210
v-160q40 12 100 12q29 0 46.5 -1.5t41.5 -10.5t37 -25.5t23 -49t10 -78.5v-46q0 -47 -10.5 -80.5t-27 -52.5t-43.5 -30t-53 -14t-62 -3z" />
    <glyph glyph-name="six" unicode="6" 
d="M230 -8q-50 0 -80.5 7.5t-58 32t-39.5 74t-12 129.5v130q0 68 12.5 117t31 76t48 42t55.5 19t62 4q59 0 117 -14q14 -3 19 -10.5t5 -33.5q0 -39 -19 -39q-2 0 -42 6.5t-70 6.5q-35 0 -54 -4.5t-38 -21t-26.5 -53.5t-7.5 -98v-40q32 59 137 59q83 0 118 -37.5t35 -151.5
t-45 -157t-148 -43zM231 76q56 0 78.5 21.5t22.5 87.5q0 70 -18 93t-77 23q-56 0 -80 -20.5t-24 -74.5q0 -83 20.5 -106.5t77.5 -23.5z" />
    <glyph glyph-name="seven" unicode="7" 
d="M168 0q-43 0 -43 21q0 11 10 38l175 472h-240q-16 0 -22 8.5t-6 34.5t6 35t22 9h310q21 0 27.5 -9t6.5 -40q0 -21 -12 -54l-179 -490q-9 -25 -55 -25z" />
    <glyph glyph-name="eight" unicode="8" 
d="M232 -8q-114 0 -155 39.5t-41 143.5q0 122 83 151q-68 30 -68 141q0 50 13 82.5t39.5 48t55.5 20.5t73 5t72.5 -5t55 -20.5t39.5 -48t13 -82.5q0 -111 -68 -141q84 -29 84 -151q0 -104 -41 -143.5t-155 -39.5zM232 74q60 0 79 20.5t19 88.5q0 65 -21 84t-77 19
q-57 0 -78 -19t-21 -84q0 -68 19.5 -88.5t79.5 -20.5zM232 365q51 0 68 15.5t17 76.5q0 55 -17.5 70.5t-67.5 15.5q-51 0 -68.5 -15t-17.5 -71q0 -61 17 -76.5t69 -15.5z" />
    <glyph glyph-name="nine" unicode="9" 
d="M205 -8q-46 0 -113 14q-16 3 -21 10t-5 34q0 39 18 39q2 0 38.5 -6.5t68.5 -6.5q42 0 63.5 4t40.5 21.5t25.5 53.5t6.5 99v35q-31 -56 -133 -56q-83 0 -117 38t-34 153q0 113 42 156t144 43q50 0 81 -7.5t58.5 -32t39.5 -74t12 -129.5v-129q0 -70 -12.5 -120t-30.5 -76.5
t-49 -41t-57 -18t-66 -3.5zM226 313q55 0 78 20.5t23 74.5q0 86 -18.5 109.5t-78.5 23.5q-57 0 -76.5 -21.5t-19.5 -90.5q0 -71 16.5 -93.5t75.5 -22.5z" />
    <glyph glyph-name="colon" unicode=":" horiz-adv-x="180" 
d="M91 0q-32 0 -42 7t-10 29v33q0 23 9.5 29.5t42.5 6.5q32 0 41.5 -6.5t9.5 -29.5v-33q0 -22 -9.5 -29t-41.5 -7zM91 393q-32 0 -42 7t-10 29v33q0 23 9.5 29.5t42.5 6.5q32 0 41.5 -6.5t9.5 -29.5v-33q0 -22 -9.5 -29t-41.5 -7z" />
    <glyph glyph-name="semicolon" unicode=";" horiz-adv-x="167" 
d="M77 105q31 0 40.5 -7t9.5 -29v-27q0 -36 -15 -84l-16 -55q-8 -21 -17.5 -27t-34.5 -6q-18 0 -24 4t-6 14q0 6 6.5 51t6.5 74v56q0 22 9 29t41 7zM78 393q-32 0 -42 7t-10 29v33q0 23 9.5 29.5t42.5 6.5q32 0 41.5 -6.5t9.5 -29.5v-33q0 -22 -9.5 -29t-41.5 -7z" />
    <glyph glyph-name="less" unicode="&#x3c;" 
d="M144 264l200 -69q22 -8 27 -17t5 -40q0 -39 -19 -39q-9 0 -23 6l-236 90q-22 8 -29 22t-7 52q0 39 7 51.5t29 21.5l236 90q11 5 23 5q19 0 19 -39q0 -31 -5 -39.5t-27 -16.5l-200 -70v-8z" />
    <glyph glyph-name="equal" unicode="=" 
d="M78 198q0 26 5 32.5t23 6.5h251q18 0 23 -6.5t5 -32.5t-5 -33t-23 -7h-251q-18 0 -23 7t-5 33zM78 347q0 26 5 32.5t23 6.5h251q18 0 23 -6.5t5 -32.5t-5 -32.5t-23 -6.5h-251q-18 0 -23 6.5t-5 32.5z" />
    <glyph glyph-name="greater" unicode="&#x3e;" 
d="M119 195l200 69v8l-200 70q-22 8 -27 16.5t-5 39.5q0 39 19 39q12 0 23 -5l236 -90q22 -9 29 -21.5t7 -51.5q0 -38 -7 -52t-29 -22l-236 -90q-13 -6 -23 -6q-19 0 -19 39q0 31 5 40t27 17z" />
    <glyph glyph-name="question" unicode="?" horiz-adv-x="363" 
d="M156 151q-26 0 -35 6t-9 24v37q0 37 8 57t28 42l71 77q29 31 29 79q0 41 -17.5 53t-70.5 12q-38 0 -81 -9t-45 -9q-10 0 -14 7.5t-4 31.5t5.5 32t20.5 13q66 19 141 19q37 0 62.5 -4.5t50.5 -17.5t38 -41t13 -70q0 -47 -12.5 -75t-41.5 -59l-68 -75q-24 -27 -24 -72v-28
q0 -18 -9 -24t-36 -6zM156 0q-32 0 -41.5 7t-9.5 29v26q0 22 9.5 29t41.5 7t42 -7t10 -29v-26q0 -22 -10 -29t-42 -7z" />
    <glyph glyph-name="at" unicode="@" horiz-adv-x="839" 
d="M376 -10q-96 0 -127 51.5t-31 204.5q0 106 19.5 162.5t55 75t100.5 18.5q95 0 125 -70v30q0 19 8 24.5t37 5.5t36.5 -5.5t7.5 -24.5v-314q0 -85 53 -85q34 0 49 31t15 121v94q0 89 -14 143t-51.5 86t-93 43t-148.5 11q-178 0 -240 -61.5t-62 -239.5v-102
q0 -90 16.5 -146.5t56.5 -88.5t95.5 -43.5t144.5 -11.5q15 0 21 -8t6 -31q0 -24 -7 -31.5t-28 -7.5q-109 0 -180.5 17t-121 59.5t-71 114.5t-21.5 183v89q0 216 87.5 300t303.5 84q219 0 307.5 -76.5t88.5 -279.5v-95q0 -70 -13.5 -118t-39 -70t-51 -30.5t-59.5 -8.5
q-51 0 -80.5 21t-43.5 69q-32 -90 -150 -90zM403 72q60 0 84.5 27t24.5 112v71q0 80 -19 109t-79 29q-59 0 -78 -33t-19 -147q0 -105 16.5 -136.5t69.5 -31.5z" />
    <glyph glyph-name="A" unicode="A" horiz-adv-x="523" 
d="M62 0q-28 0 -37 5t-9 18q0 8 6 29l149 522q8 29 24 36.5t67 7.5q50 0 66 -7.5t24 -36.5l149 -522q6 -21 6 -29q0 -13 -9 -18t-37 -5q-30 0 -40 5.5t-15 21.5l-43 150h-206l-40 -150q-5 -17 -14.5 -22t-40.5 -5zM255 535l-77 -282h167l-77 282h-13z" />
    <glyph glyph-name="B" unicode="B" horiz-adv-x="514" 
d="M256 -8q-95 0 -164 8q-21 2 -27.5 9t-6.5 25v545q0 19 7 26.5t25 9.5q70 8 144 8q49 0 78.5 -2.5t58.5 -11t43.5 -25t23.5 -44.5t9 -70q0 -62 -16 -96.5t-58 -47.5q52 -11 74 -47.5t22 -111.5q0 -100 -43.5 -137.5t-169.5 -37.5zM155 536v-177h87q67 0 86 18t19 82
q0 54 -17 67.5t-85 13.5q-59 0 -90 -4zM155 286v-210q43 -5 105 -5q73 0 91 18.5t18 90.5q0 65 -20 85.5t-85 20.5h-109z" />
    <glyph glyph-name="C" unicode="C" horiz-adv-x="452" 
d="M255 -8q-43 0 -70 4t-56.5 19t-46 43t-27 79t-10.5 125v81q0 76 10.5 128.5t27 82.5t46 45.5t57.5 19.5t72 4q67 0 138 -19q14 -4 19 -12t5 -34q0 -38 -17 -38l-43 8q-42 9 -81 9q-45 0 -67.5 -5t-40.5 -26.5t-23.5 -61t-5.5 -110.5v-52q0 -49 2.5 -82.5t10.5 -56.5
t16.5 -35.5t26.5 -19.5t35 -8.5t46 -1.5q41 0 82 8.5t42 8.5q10 0 13.5 -7.5t3.5 -31.5t-5 -32.5t-19 -12.5q-65 -19 -141 -19z" />
    <glyph glyph-name="D" unicode="D" horiz-adv-x="526" 
d="M251 78q43 0 65 5t39.5 26t23 61t5.5 112v62q0 67 -6.5 105t-25 59t-43 26.5t-70.5 5.5q-42 0 -84 -4v-454q50 -4 96 -4zM251 -8q-85 0 -158 8q-21 2 -28 9.5t-7 24.5v545q0 18 7.5 26t24.5 10q58 8 146 8q46 0 75.5 -2.5t60.5 -12t48.5 -27.5t33 -48.5t21.5 -76
t6 -109.5v-65q0 -79 -11.5 -133.5t-28.5 -85t-49.5 -47t-62.5 -20.5t-78 -4z" />
    <glyph glyph-name="E" unicode="E" horiz-adv-x="455" 
d="M428 43q0 -26 -6 -34.5t-22 -8.5h-309q-20 0 -26.5 5.5t-6.5 22.5v562q0 17 6.5 22.5t26.5 5.5h299q16 0 22 -9t6 -35t-6 -34.5t-22 -8.5h-235v-163h177q17 0 22.5 -8t5.5 -35q0 -26 -5.5 -34t-22.5 -8h-177v-196h245q16 0 22 -9t6 -35z" />
    <glyph glyph-name="F" unicode="F" horiz-adv-x="425" 
d="M107 0q-30 0 -39.5 5.5t-9.5 24.5v560q0 17 6.5 22.5t26.5 5.5h293q16 0 22 -9t6 -35t-6 -34.5t-22 -8.5h-229v-163h171q17 0 22.5 -8t5.5 -35q0 -26 -5.5 -34t-22.5 -8h-171v-253q0 -18 -9.5 -24t-38.5 -6z" />
    <glyph glyph-name="G" unicode="G" horiz-adv-x="493" 
d="M250 -8q-35 0 -58.5 2.5t-49.5 11.5t-42.5 27t-30.5 47t-20.5 74.5t-6.5 107.5v81q0 64 6.5 111t20.5 77.5t30.5 49t44 27.5t52 12t61.5 3q77 0 148 -19q14 -4 19 -12t5 -34q0 -38 -17 -38q-1 0 -49 8.5t-87 8.5q-35 0 -55 -3.5t-38.5 -14t-26.5 -33.5t-12.5 -59
t-4.5 -93v-52q0 -58 5 -95.5t12.5 -59.5t24.5 -33t33.5 -13.5t45.5 -2.5q57 0 79 22.5t22 92.5v63h-85q-14 0 -19 8.5t-5 35.5q0 24 5 31.5t19 7.5h134q24 0 31 -6t7 -21v-137q0 -104 -45 -143.5t-153 -39.5z" />
    <glyph glyph-name="H" unicode="H" horiz-adv-x="524" 
d="M155 360h214v228q0 19 9.5 24.5t39.5 5.5q29 0 38.5 -6t9.5 -24v-558q0 -18 -9.5 -24t-38.5 -6q-30 0 -39.5 5.5t-9.5 24.5v246h-214v-246q0 -18 -9.5 -24t-38.5 -6q-30 0 -39.5 5.5t-9.5 24.5v558q0 19 9.5 24.5t39.5 5.5q29 0 38.5 -6t9.5 -24v-228z" />
    <glyph glyph-name="I" unicode="I" horiz-adv-x="213" 
d="M107 0q-30 0 -39.5 5.5t-9.5 24.5v558q0 19 9.5 24.5t39.5 5.5q29 0 38.5 -6t9.5 -24v-558q0 -18 -9.5 -24t-38.5 -6z" />
    <glyph glyph-name="J" unicode="J" horiz-adv-x="341" 
d="M134 -8q-54 0 -99 13q-15 4 -21 12.5t-6 32.5t3.5 30.5t14.5 6.5q4 0 33 -4.5t52 -4.5q45 0 60 16.5t15 66.5v427q0 18 9.5 24t38.5 6t38.5 -6t9.5 -24v-430q0 -89 -35.5 -127.5t-112.5 -38.5z" />
    <glyph glyph-name="K" unicode="K" horiz-adv-x="469" 
d="M107 0q-30 0 -39.5 5.5t-9.5 24.5v558q0 19 9.5 24.5t39.5 5.5q29 0 38.5 -6t9.5 -24v-242h15l164 249q9 14 20.5 18.5t42.5 4.5q45 0 45 -20q0 -14 -12 -31l-177 -253l181 -254q20 -29 20 -38q0 -22 -49 -22q-26 0 -39 5t-23 18l-174 258h-14v-251q0 -18 -9.5 -24
t-38.5 -6z" />
    <glyph glyph-name="L" unicode="L" horiz-adv-x="424" 
d="M155 87h225q16 0 22 -9t6 -35t-6 -34.5t-22 -8.5h-289q-20 0 -26.5 5.5t-6.5 22.5v560q0 19 9.5 24.5t39.5 5.5q29 0 38.5 -6t9.5 -24v-501z" />
    <glyph glyph-name="M" unicode="M" horiz-adv-x="639" 
d="M107 0q-30 0 -39.5 5.5t-9.5 24.5v553q0 20 12.5 27.5t53.5 7.5t56.5 -6.5t24.5 -31.5l112 -299h5l113 299q9 25 24.5 31.5t56.5 6.5q40 0 52.5 -7.5t12.5 -27.5v-553q0 -18 -9.5 -24t-38.5 -6q-30 0 -39.5 5.5t-9.5 24.5q0 158 2 448h-7l-106 -284q-8 -22 -18 -28
t-35 -6q-26 0 -36 6t-18 28l-106 284h-7q2 -290 2 -448q0 -18 -9.5 -24t-38.5 -6z" />
    <glyph glyph-name="N" unicode="N" horiz-adv-x="547" 
d="M107 0q-30 0 -39.5 5.5t-9.5 24.5v558q0 19 12.5 24.5t51.5 5.5q32 0 45.5 -5t22.5 -24l193 -428h9v427q0 18 9.5 24t38.5 6q30 0 39.5 -5.5t9.5 -24.5v-558q0 -19 -11.5 -24.5t-51.5 -5.5q-32 0 -43.5 4.5t-20.5 24.5l-198 428h-9v-427q0 -18 -9.5 -24t-38.5 -6z" />
    <glyph glyph-name="O" unicode="O" horiz-adv-x="526" 
d="M263 76q53 0 76.5 13.5t34 56t10.5 136.5v51q0 73 -3.5 110.5t-18 61t-35.5 29t-64 5.5q-53 0 -76.5 -13.5t-34 -56t-10.5 -136.5v-51q0 -73 3.5 -110.5t18 -61t35.5 -29t64 -5.5zM263 -8q-66 0 -102.5 8.5t-65.5 38t-39.5 85t-10.5 150.5v63q0 97 11.5 155t41.5 86.5
t65.5 36.5t99.5 8q67 0 104 -8.5t65.5 -38.5t38.5 -86t10 -153v-63q0 -95 -12 -152.5t-42.5 -85.5t-65.5 -36t-98 -8z" />
    <glyph glyph-name="P" unicode="P" horiz-adv-x="488" 
d="M107 0q-30 0 -39.5 5.5t-9.5 24.5v548q0 31 32 36q77 9 162 9q58 0 92 -6t61 -25.5t37.5 -56.5t10.5 -97q0 -118 -52 -164t-174 -46h-72v-198q0 -18 -9.5 -24t-38.5 -6zM155 536v-228h76q73 0 97.5 25.5t24.5 100.5q0 66 -21.5 86t-88.5 20q-40 0 -88 -4z" />
    <glyph glyph-name="Q" unicode="Q" horiz-adv-x="526" 
d="M263 -8q-66 0 -102.5 8.5t-65.5 38t-39.5 85t-10.5 150.5v63q0 97 11.5 155t41.5 86.5t65.5 36.5t99.5 8q67 0 104 -8.5t65.5 -38.5t38.5 -86t10 -153v-63q0 -118 -20.5 -178.5t-63.5 -82.5l45 -77q13 -21 13 -31q0 -21 -44 -21q-24 0 -33.5 5t-18.5 22l-45 83
q-32 -2 -51 -2zM263 76q53 0 76.5 13.5t34 56t10.5 136.5v51q0 73 -3.5 110.5t-18 61t-35.5 29t-64 5.5q-53 0 -76.5 -13.5t-34 -56t-10.5 -136.5v-51q0 -73 3.5 -110.5t18 -61t35.5 -29t64 -5.5z" />
    <glyph glyph-name="R" unicode="R" horiz-adv-x="502" 
d="M107 0q-30 0 -39.5 5.5t-9.5 24.5v548q0 31 32 36q77 9 162 9q114 0 157.5 -33t43.5 -142q0 -75 -24 -117t-75 -60l104 -222q9 -19 9 -29q0 -20 -41 -20q-35 0 -45.5 4.5t-17.5 21.5l-94 230q-11 -1 -34 -1h-80v-225q0 -18 -9.5 -24t-38.5 -6zM155 536v-208h83
q68 0 91.5 23t23.5 93q0 59 -21.5 77.5t-88.5 18.5q-44 0 -88 -4z" />
    <glyph glyph-name="S" unicode="S" horiz-adv-x="458" 
d="M213 -8q-84 0 -146 18q-15 5 -21 14.5t-6 32.5q0 24 4 31.5t15 7.5q2 0 47.5 -8.5t90.5 -8.5q67 0 96.5 20t29.5 69q0 37 -10 54.5t-39 30.5l-124 56q-53 24 -75 55t-22 96q0 50 13.5 84t39.5 50.5t54 22.5t65 6q86 0 154 -20q12 -3 17.5 -12t5.5 -33q0 -23 -4 -31
t-14 -8q-4 0 -23.5 4.5t-50.5 8.5t-62 4q-58 0 -79 -13.5t-21 -62.5q0 -31 11 -45.5t41 -27.5l123 -55q53 -23 74 -57.5t21 -100.5q0 -182 -205 -182z" />
    <glyph glyph-name="T" unicode="T" horiz-adv-x="434" 
d="M217 0q-30 0 -39.5 5.5t-9.5 24.5v501h-130q-16 0 -22 8.5t-6 34.5t6 35t22 9h358q16 0 22 -9t6 -35t-6 -34.5t-22 -8.5h-131v-501q0 -18 -9.5 -24t-38.5 -6z" />
    <glyph glyph-name="U" unicode="U" horiz-adv-x="524" 
d="M262 -8q-110 0 -157 42.5t-47 145.5v408q0 19 9.5 24.5t39.5 5.5q29 0 38.5 -6t9.5 -24v-412q0 -56 21.5 -77.5t85.5 -21.5q63 0 85 21.5t22 77.5v412q0 18 9.5 24t38.5 6t38.5 -6t9.5 -24v-408q0 -103 -46.5 -145.5t-156.5 -42.5z" />
    <glyph glyph-name="V" unicode="V" horiz-adv-x="514" 
d="M264 83l131 508q5 17 15.5 22t41.5 5q29 0 37.5 -4.5t8.5 -17.5t-7 -35l-146 -522q-7 -25 -22.5 -32t-65.5 -7t-65 7t-22 32l-147 522q-7 22 -7 35t8.5 17.5t37.5 4.5q32 0 43 -5.5t14 -21.5l132 -508h13z" />
    <glyph glyph-name="W" unicode="W" horiz-adv-x="798" 
d="M213 0q-45 0 -62 7t-22 32l-110 527q-3 15 -3 29q0 13 9 18t37 5q31 0 42 -5t14 -22l95 -501h11l106 486q4 20 19 26t50 6t50.5 -6.5t19.5 -25.5l105 -486h12l95 501q1 16 12 21.5t43 5.5q28 0 37 -5t9 -18q0 -14 -3 -29l-110 -527q-5 -25 -22 -32t-62 -7q-43 0 -60 8
t-23 33l-98 438h-10l-98 -438q-6 -25 -23 -33t-60 -8z" />
    <glyph glyph-name="X" unicode="X" horiz-adv-x="488" 
d="M68 0q-48 0 -48 24q0 10 14 34l158 260l-146 240q-15 23 -15 36q0 24 49 24q29 0 40.5 -5t19.5 -22l102 -182h4l102 182q8 17 19.5 22t40.5 5q49 0 49 -24q0 -12 -14 -36l-148 -240l159 -259q14 -24 14 -35q0 -24 -48 -24q-29 0 -39.5 5t-20.5 22l-115 203h-4l-113 -203
q-9 -17 -20 -22t-40 -5z" />
    <glyph glyph-name="Y" unicode="Y" horiz-adv-x="463" 
d="M232 0q-30 0 -39.5 5.5t-9.5 24.5v203l-155 324q-12 26 -12 38q0 23 43 23q34 0 45.5 -5t18.5 -22l106 -255h5l106 255q7 17 18 22t44 5q46 0 46 -22q0 -10 -13 -39l-155 -324v-203q0 -18 -9.5 -24t-38.5 -6z" />
    <glyph glyph-name="Z" unicode="Z" horiz-adv-x="411" 
d="M278 531h-215q-16 0 -22 8.5t-6 34.5t6 35t22 9h301q16 0 21.5 -8.5t5.5 -33.5q0 -26 -21 -64l-241 -425h236q16 0 22 -9t6 -35t-6 -34.5t-22 -8.5h-321q-17 0 -22.5 8.5t-5.5 33.5q0 27 23 67z" />
    <glyph glyph-name="bracketleft" unicode="[" horiz-adv-x="261" 
d="M247 -17q0 -25 -6 -32.5t-22 -7.5h-134q-19 0 -27 7t-8 24v662q0 17 8 24t27 7h128q16 0 22 -7.5t6 -31.5q0 -25 -6 -33t-22 -8h-70v-564h76q16 0 22 -7.5t6 -32.5z" />
    <glyph glyph-name="backslash" unicode="\" horiz-adv-x="267" 
d="M215 -62q-42 0 -49 28l-145 647q-8 34 -8 40q0 19 42 19q43 0 49 -27l145 -647q7 -30 7 -41q0 -19 -41 -19z" />
    <glyph glyph-name="bracketright" unicode="]" horiz-adv-x="261" 
d="M14 -17q0 25 5.5 32.5t21.5 7.5h77v564h-70q-16 0 -22 8t-6 33q0 24 6 31.5t22 7.5h128q19 0 26.5 -7t7.5 -24v-662q0 -17 -7.5 -24t-26.5 -7h-135q-16 0 -21.5 7.5t-5.5 32.5z" />
    <glyph glyph-name="asciicircum" unicode="^" 
d="M236 536h-6l-73 -163q-6 -17 -15 -21.5t-40 -4.5q-40 0 -40 19q0 5 10 27l87 191q9 22 22 28.5t53 6.5t52 -6.5t22 -28.5l84 -191q9 -22 9 -27q0 -19 -39 -19q-31 0 -40 4.5t-16 21.5z" />
    <glyph glyph-name="underscore" unicode="_" horiz-adv-x="486" 
d="M28 -61q0 27 5.5 35t22.5 8h374q17 0 22.5 -8t5.5 -35q0 -26 -5.5 -34.5t-22.5 -8.5h-374q-17 0 -22.5 8.5t-5.5 34.5z" />
    <glyph glyph-name="grave" unicode="`" horiz-adv-x="210" 
d="M146 539q-19 0 -30 3.5t-15 7.5t-11 15l-52 82q-15 28 -15 36q0 18 54 18q31 0 40 -5.5t19 -25.5l41 -83q10 -20 10 -31q0 -17 -41 -17z" />
    <glyph glyph-name="a" unicode="a" horiz-adv-x="486" 
d="M167 -10q-67 0 -98 33.5t-31 109.5q0 78 41 111.5t144 33.5h99v65q0 49 -18.5 62.5t-69.5 13.5q-45 0 -95.5 -9t-52.5 -9q-18 0 -18 39q0 21 5 29.5t17 12.5q66 20 154 20q95 0 134.5 -27t39.5 -110v-174q0 -46 5 -83.5t10.5 -58.5t5.5 -26q0 -12 -9 -17.5t-36 -5.5
q-25 0 -33.5 4.5t-12.5 21.5l-16 60q-42 -96 -165 -96zM199 70q52 0 87.5 29.5t35.5 84.5v33l-101 -3q-54 -2 -72 -16.5t-18 -54.5q0 -45 15 -59t53 -14z" />
    <glyph glyph-name="b" unicode="b" horiz-adv-x="508" 
d="M244 -10q-111 0 -149.5 28.5t-38.5 89.5v516q0 19 10 24.5t39 5.5t38.5 -5.5t9.5 -24.5v-202q40 80 149 80q65 0 97 -19t46.5 -71.5t14.5 -159.5q0 -108 -21.5 -164t-66 -77t-128.5 -21zM249 72q68 0 90 33.5t22 137.5q0 115 -16 146t-74 31q-68 0 -93.5 -38t-25.5 -134
v-127q0 -27 18.5 -38t78.5 -11z" />
    <glyph glyph-name="c" unicode="c" horiz-adv-x="429" 
d="M245 -10q-55 0 -88 8.5t-59.5 34t-38 76t-11.5 132.5q0 70 9.5 118.5t24.5 76t42 42.5t53.5 19.5t67.5 4.5q65 0 124 -18q15 -5 20.5 -13t5.5 -30q0 -39 -18 -39q-1 0 -46.5 8.5t-75.5 8.5q-45 0 -66 -10t-32 -46t-11 -112q0 -117 18.5 -147t92.5 -30q40 0 81 10l41 9
q16 0 16 -39q0 -21 -5 -29.5t-20 -13.5q-60 -21 -125 -21z" />
    <glyph glyph-name="d" unicode="d" horiz-adv-x="519" 
d="M216 -10q-101 0 -134.5 51t-33.5 201q0 108 21 165.5t58.5 76t105.5 18.5q97 0 127 -57v179q0 19 10 24.5t39 5.5t38.5 -5.5t9.5 -24.5v-433q0 -46 5.5 -83.5t11 -58.5t5.5 -26q0 -12 -9 -17.5t-36 -5.5q-26 0 -34 4.5t-13 21.5l-13 49q-36 -85 -158 -85zM243 72
q64 0 91.5 28t27.5 112v66q0 83 -21.5 112.5t-86.5 29.5q-66 0 -86.5 -32.5t-20.5 -147.5q0 -106 18 -137t78 -31z" />
    <glyph glyph-name="e" unicode="e" horiz-adv-x="471" 
d="M255 -10q-47 0 -77 5t-57 19.5t-41.5 42.5t-23 73t-8.5 111q0 70 9.5 118t24.5 76t42.5 43t54.5 19.5t70 4.5q48 0 80.5 -9.5t52 -26.5t30 -47.5t14 -64t3.5 -85.5q0 -26 -8 -37t-32 -11h-243q1 -95 22 -121t95 -26q34 0 66.5 5t52.5 9.5t24 4.5q16 0 16 -39
q0 -21 -5.5 -29.5t-20.5 -13.5q-58 -21 -141 -21zM247 421q-57 0 -77.5 -25t-23.5 -111h190q0 80 -14.5 108t-74.5 28z" />
    <glyph glyph-name="f" unicode="f" horiz-adv-x="313" 
d="M28 451q0 23 5 31t19 8h42v57q0 66 27 93.5t86 27.5q38 0 74 -9q15 -4 20 -10.5t5 -27.5q0 -38 -18 -38q-3 0 -23.5 2.5t-36.5 2.5q-26 0 -33.5 -11t-7.5 -51v-36h82q14 0 19 -8t5 -31t-5 -31t-19 -8h-78v-382q0 -19 -9.5 -24.5t-38.5 -5.5t-39 5.5t-10 24.5v382h-42
q-14 0 -19 8t-5 31z" />
    <glyph glyph-name="g" unicode="g" horiz-adv-x="515" 
d="M48 250q0 104 21 159.5t59.5 74t108.5 18.5q106 0 137 -72l9 36q4 17 12 21.5t34 4.5q27 0 36 -5.5t9 -17.5q0 -5 -5.5 -26t-11 -58.5t-5.5 -83.5v-261q0 -71 -15.5 -118.5t-47.5 -72t-69.5 -34t-90.5 -9.5q-74 0 -137 13q-14 3 -20 12t-6 32q0 40 18 40q4 0 24 -2.5
t52 -5.5t67 -3q77 0 103 31t26 114v13q-38 -60 -145 -60q-98 0 -130.5 52.5t-32.5 207.5zM147 240q0 -106 18 -137t78 -31q64 0 91.5 28t27.5 112v66q0 83 -21.5 112.5t-86.5 29.5q-66 0 -86.5 -32.5t-20.5 -147.5z" />
    <glyph glyph-name="h" unicode="h" horiz-adv-x="500" 
d="M105 0q-29 0 -39 5.5t-10 24.5v594q0 19 10 24.5t39 5.5t38.5 -5.5t9.5 -24.5v-192q38 70 152 70q78 0 107 -31.5t29 -102.5v-338q0 -19 -9.5 -24.5t-38.5 -5.5t-38.5 5.5t-9.5 24.5v315q0 42 -15 57.5t-59 15.5q-65 0 -91.5 -38t-26.5 -128v-222q0 -19 -9.5 -24.5
t-38.5 -5.5z" />
    <glyph glyph-name="i" unicode="i" horiz-adv-x="214" 
d="M105 0q-29 0 -39 5.5t-10 24.5v432q0 19 10 24.5t39 5.5t38.5 -5.5t9.5 -24.5v-432q0 -19 -9.5 -24.5t-38.5 -5.5zM105 562q-35 0 -44.5 7t-9.5 30v19q0 22 9.5 29t44.5 7q34 0 43.5 -7t9.5 -29v-19q0 -23 -9.5 -30t-43.5 -7z" />
    <glyph glyph-name="j" unicode="j" horiz-adv-x="214" 
d="M105 492q29 0 38.5 -5.5t9.5 -24.5v-531q0 -67 -26.5 -96t-82.5 -29q-42 0 -74 10q-15 4 -21 12t-6 29q0 24 4 31t15 7q3 0 22 -2.5t32 -2.5q25 0 32.5 10.5t7.5 50.5v511q0 19 10 24.5t39 5.5zM105 562q-35 0 -44.5 7t-9.5 30v19q0 22 9.5 29t44.5 7q34 0 43.5 -7
t9.5 -29v-19q0 -23 -9.5 -30t-43.5 -7z" />
    <glyph glyph-name="k" unicode="k" horiz-adv-x="440" 
d="M105 0q-29 0 -39 5.5t-10 24.5v594q0 19 10 24.5t39 5.5t38.5 -5.5t9.5 -24.5v-336h10l142 180q12 15 23 19.5t40 4.5q47 0 47 -17q0 -13 -14 -30l-152 -188l165 -211q13 -17 13 -27q0 -19 -50 -19q-28 0 -38 4.5t-22 19.5l-155 201h-9v-195q0 -19 -9.5 -24.5t-38.5 -5.5
z" />
    <glyph glyph-name="l" unicode="l" horiz-adv-x="211" 
d="M105 0q-29 0 -39 5.5t-10 24.5v594q0 19 10 24.5t39 5.5t38.5 -5.5t9.5 -24.5v-594q0 -19 -9.5 -24.5t-38.5 -5.5z" />
    <glyph glyph-name="m" unicode="m" horiz-adv-x="780" 
d="M117 0q-29 0 -39 5.5t-10 24.5v271q0 46 -5.5 83.5t-11 58.5t-5.5 26q0 12 9 17.5t36 5.5q26 0 34.5 -4.5t12.5 -21.5l12 -52q35 88 157 88q59 0 89.5 -18.5t40.5 -56.5q35 75 149 75q78 0 107 -31.5t29 -102.5v-338q0 -19 -10 -24.5t-39 -5.5t-38.5 5.5t-9.5 24.5v315
q0 42 -15 57.5t-59 15.5q-63 0 -85.5 -37t-22.5 -129v-222q0 -19 -9.5 -24.5t-38.5 -5.5t-38.5 5.5t-9.5 24.5v315q0 42 -15 57.5t-59 15.5q-63 0 -85.5 -37t-22.5 -129v-222q0 -19 -9.5 -24.5t-38.5 -5.5z" />
    <glyph glyph-name="n" unicode="n" horiz-adv-x="512" 
d="M117 0q-29 0 -39 5.5t-10 24.5v271q0 46 -5.5 83.5t-11 58.5t-5.5 26q0 12 9 17.5t36 5.5q26 0 34.5 -4.5t12.5 -21.5l14 -57q39 93 165 93q78 0 107 -31.5t29 -102.5v-338q0 -19 -9.5 -24.5t-38.5 -5.5t-38.5 5.5t-9.5 24.5v315q0 42 -15 57.5t-59 15.5q-65 0 -91.5 -38
t-26.5 -128v-222q0 -19 -9.5 -24.5t-38.5 -5.5z" />
    <glyph glyph-name="o" unicode="o" horiz-adv-x="500" 
d="M242 -10q-78 0 -117.5 19.5t-58 73t-18.5 159.5q0 153 46 206.5t164 53.5q78 0 117 -19t57.5 -72t18.5 -159q0 -154 -46 -208t-163 -54zM244 72q68 0 88.5 32.5t20.5 138.5q0 115 -17.5 146t-81.5 31q-67 0 -87 -32t-20 -137q0 -116 17 -147.5t80 -31.5z" />
    <glyph glyph-name="p" unicode="p" horiz-adv-x="525" 
d="M117 -188q-29 0 -39 5.5t-10 24.5v459q0 46 -5.5 83.5t-11 58.5t-5.5 26q0 12 9 17.5t36 5.5q26 0 34.5 -4.5t12.5 -21.5l12 -49q41 85 160 85q101 0 134 -51t33 -201q0 -108 -21 -165.5t-58.5 -76t-105.5 -18.5q-96 0 -127 54v-202q0 -19 -9.5 -24.5t-38.5 -5.5zM272 72
q45 0 66 13t30.5 50.5t9.5 116.5q0 106 -17.5 137t-77.5 31q-64 0 -92 -30.5t-28 -120.5v-55q0 -83 21.5 -112.5t87.5 -29.5z" />
    <glyph glyph-name="q" unicode="q" horiz-adv-x="515" 
d="M404 -188q-29 0 -38.5 5.5t-9.5 24.5v208q-38 -60 -145 -60q-98 0 -130.5 52.5t-32.5 207.5q0 104 21 159.5t59.5 74t108.5 18.5q106 0 137 -72l9 36q4 17 12 21.5t34 4.5q27 0 36 -5.5t9 -17.5q0 -5 -5.5 -26t-11 -58.5t-5.5 -83.5v-459q0 -19 -9.5 -24.5t-38.5 -5.5z
M238 72q66 0 93 26.5t27 111.5v68q0 82 -21.5 112t-85.5 30q-67 0 -87 -31.5t-20 -142.5q0 -110 17.5 -142t76.5 -32z" />
    <glyph glyph-name="r" unicode="r" horiz-adv-x="348" 
d="M117 0q-29 0 -39 5.5t-10 24.5v271q0 46 -5.5 83.5t-11 58.5t-5.5 26q0 12 9 17.5t36 5.5q26 0 34.5 -4.5t12.5 -21.5l13 -51q37 85 123 85q24 0 45 -6q11 -4 15 -13t4 -32q0 -40 -19 -40q-2 0 -20 2.5t-33 2.5q-101 0 -101 -185v-199q0 -19 -9.5 -24.5t-38.5 -5.5z" />
    <glyph glyph-name="s" unicode="s" horiz-adv-x="433" 
d="M200 -10q-75 0 -132 18q-15 5 -20.5 13.5t-5.5 29.5q0 40 16 40q1 0 47.5 -8.5t85.5 -8.5q56 0 78.5 16.5t22.5 52.5q0 20 -8 31t-27 19l-128 54q-72 32 -72 121q0 134 161 134q71 0 136 -17q15 -4 20 -12.5t5 -33.5q0 -24 -4.5 -30.5t-13.5 -6.5q-1 0 -47 9t-81 9
q-44 0 -61 -12.5t-17 -40.5q0 -21 7.5 -32.5t27.5 -20.5l125 -50q42 -17 58.5 -44t16.5 -72q0 -158 -190 -158z" />
    <glyph glyph-name="t" unicode="t" horiz-adv-x="323" 
d="M201 -10q-58 0 -82.5 29t-24.5 96v297h-48q-14 0 -19 8t-5 31t5 31t19 8h48v74q0 19 10 24.5t39 5.5t38.5 -5.5t9.5 -24.5v-74h85q14 0 18.5 -8t4.5 -31t-4.5 -31t-18.5 -8h-85v-278q0 -38 7 -48t33 -10q14 0 32 2.5t21 2.5q10 0 14.5 -7.5t4.5 -29.5q0 -20 -6 -28
t-20 -13q-31 -13 -76 -13z" />
    <glyph glyph-name="u" unicode="u" horiz-adv-x="503" 
d="M191 -10q-77 0 -106 30t-29 100v342q0 19 10 24.5t39 5.5t38.5 -5.5t9.5 -24.5v-319q0 -41 14.5 -55t59.5 -14q65 0 91 38t26 128v222q0 19 9.5 24.5t38.5 5.5t39 -5.5t10 -24.5v-271q0 -46 5.5 -83.5t11 -58.5t5.5 -26q0 -12 -9 -17.5t-37 -5.5q-25 0 -33.5 4.5
t-12.5 21.5l-14 53q-39 -89 -166 -89z" />
    <glyph glyph-name="v" unicode="v" horiz-adv-x="463" 
d="M229 0q-44 0 -59 7t-22 29l-117 389q-9 27 -9 39q0 16 9 22t39 6q32 0 42 -6t16 -30l97 -369h11l99 369q6 24 16 30t42 6q30 0 39 -6t9 -22q0 -10 -8 -39l-122 -389q-7 -22 -23 -29t-59 -7z" />
    <glyph glyph-name="w" unicode="w" horiz-adv-x="703" 
d="M190 0q-42 0 -58 7t-20 29l-84 389q-6 25 -6 39q0 17 9 22.5t39 5.5q32 0 42 -5.5t14 -25.5l71 -374h11l79 360q4 21 17.5 28t47.5 7t47.5 -7t17.5 -28l79 -360h11l71 374q4 20 13.5 25.5t41.5 5.5q31 0 39.5 -5.5t8.5 -22.5q0 -18 -5 -39l-85 -389q-4 -22 -20 -29
t-58 -7q-45 0 -63.5 7t-23.5 29l-71 309h-7l-71 -309q-5 -22 -23 -29t-64 -7z" />
    <glyph glyph-name="x" unicode="x" horiz-adv-x="446" 
d="M70 0q-48 0 -48 21q0 8 11 26l133 207l-119 184q-14 22 -14 31q0 13 11.5 18t40.5 5q31 0 41 -4t17 -19l79 -135h4l77 135q7 16 17 19.5t41 3.5q29 0 40.5 -5t11.5 -18q0 -10 -13 -29l-121 -181l133 -211q12 -18 12 -26q0 -22 -48 -22q-32 0 -44 5.5t-20 24.5l-88 153h-4
l-86 -153q-8 -19 -20 -24.5t-44 -5.5z" />
    <glyph glyph-name="y" unicode="y" horiz-adv-x="461" 
d="M22 467q0 13 9.5 19t40.5 6q29 0 39 -4.5t14 -20.5l100 -384h9l102 384q4 16 13.5 20.5t38.5 4.5q31 0 41.5 -5.5t10.5 -18.5q0 -16 -14 -61l-136 -448q-27 -91 -55.5 -122t-96.5 -31q-50 0 -88 12q-14 4 -19.5 12t-5.5 28q0 40 18 40q2 0 29.5 -4t54.5 -4q35 0 49 11.5
t23 46.5l13 52q-33 1 -46.5 11.5t-22.5 38.5l-105 344q-16 52 -16 73z" />
    <glyph glyph-name="z" unicode="z" horiz-adv-x="398" 
d="M371 42q0 -42 -24 -42h-298q-14 0 -19 8.5t-5 30.5q0 39 24 73l215 297h-195q-14 0 -19 9.5t-5 31.5q0 42 24 42h278q24 0 24 -39q0 -38 -21 -67l-218 -303h215q14 0 19 -9.5t5 -31.5z" />
    <glyph glyph-name="braceleft" unicode="{" horiz-adv-x="310" 
d="M102 215q0 49 -42 49q-17 0 -22.5 7.5t-5.5 34.5q0 26 5.5 33.5t22.5 7.5q42 0 42 49q0 29 -1 84.5t-1 86.5q0 54 20 80.5t71 26.5q47 0 85 -8q13 -3 17 -11.5t4 -29.5q0 -36 -21 -36q-6 0 -30 1t-35 1t-15 -8t-4 -28q0 -26 1 -79.5t1 -79.5q0 -77 -50 -88v-5
q50 -10 50 -88q0 -26 -1 -79t-1 -79q0 -20 4 -28t15 -8t35 1t30 1q21 0 21 -36q0 -21 -4 -29.5t-17 -11.5q-38 -8 -85 -8q-51 0 -71 26.5t-20 80.5q0 31 1 86t1 84z" />
    <glyph glyph-name="bar" unicode="|" horiz-adv-x="176" 
d="M88 -188q-26 0 -33 5.5t-7 27.5v794q0 22 7 27.5t33 5.5t32.5 -5.5t6.5 -27.5v-794q0 -22 -6.5 -27.5t-32.5 -5.5z" />
    <glyph glyph-name="braceright" unicode="}" horiz-adv-x="310" 
d="M119 -62q-47 0 -85 8q-13 3 -17 11.5t-4 29.5q0 36 20 36q7 0 31 -1t35 -1t14.5 8t3.5 28q0 26 -1 79t-1 79q0 78 51 88v5q-51 11 -51 88q0 26 1 79.5t1 79.5q0 20 -3.5 28t-14.5 8t-35 -1t-31 -1q-20 0 -20 36q0 21 4 29.5t17 11.5q38 8 85 8q51 0 70.5 -26t19.5 -81
q0 -31 -0.5 -86.5t-0.5 -84.5q0 -49 42 -49q17 0 22 -7.5t5 -34.5q0 -26 -5 -33.5t-22 -7.5q-42 0 -42 -49q0 -29 0.5 -84t0.5 -86q0 -55 -19.5 -81t-70.5 -26z" />
    <glyph glyph-name="asciitilde" unicode="~" 
d="M79 264q0 31 25 48q27 18 63 18q23 0 69.5 -11t64.5 -11q21 0 42.5 9.5t24.5 9.5q16 0 16 -34q0 -32 -25 -49q-31 -18 -63 -18q-23 0 -69.5 11.5t-64.5 11.5q-21 0 -43 -10t-24 -10q-16 0 -16 35z" />
    <glyph glyph-name="nbspace" unicode="&#xa0;" horiz-adv-x="205" 
 />
    <glyph glyph-name="exclamdown" unicode="&#xa1;" horiz-adv-x="207" 
d="M104 467q27 0 34.5 -5.5t7.5 -24.5q0 -61 3.5 -199t3.5 -208q0 -18 -10 -24t-39 -6q-30 0 -40 6t-10 24q0 70 3.5 208t3.5 199q0 19 7.5 24.5t35.5 5.5zM103 618q32 0 42 -7t10 -29v-26q0 -22 -10 -29t-42 -7t-41.5 7t-9.5 29v26q0 22 9.5 29t41.5 7z" />
    <glyph glyph-name="cent" unicode="&#xa2;" 
d="M251 618q25 0 33.5 -5.5t8.5 -24.5v-67q51 -5 86 -15q15 -5 20.5 -13t5.5 -29q0 -39 -18 -39q-4 0 -24.5 4.5t-51.5 8.5t-58 4q-57 0 -77 -22t-20 -102q0 -86 17.5 -109t85.5 -23q33 0 62 5t46.5 9.5t21.5 4.5q16 0 16 -39q0 -21 -5 -28.5t-20 -13.5q-39 -14 -87 -18v-76
q0 -19 -8.5 -24.5t-33.5 -5.5q-26 0 -34.5 5.5t-8.5 24.5v75q-80 4 -115 46t-35 158q0 83 19.5 130t50 63.5t80.5 19.5v66q0 19 8.5 24.5t34.5 5.5z" />
    <glyph glyph-name="sterling" unicode="&#xa3;" 
d="M293 305q0 -21 -5 -27t-21 -6h-74v-44q0 -71 -29 -141h229q16 0 22 -9t6 -35t-6 -34.5t-22 -8.5h-304q-20 0 -26.5 5.5t-6.5 22.5q0 16 21 73t21 113v58h-45q-16 0 -21 6t-5 27t5 27t21 6h45v120q0 93 40 129t117 36q67 0 125 -14q13 -3 18 -12t5 -33q0 -37 -17 -37
q-5 0 -41.5 5t-60.5 5q-53 0 -72 -17.5t-19 -72.5v-109h74q16 0 21 -6t5 -27z" />
    <glyph glyph-name="currency" unicode="&#xa4;" 
d="M125 63q-35 0 -35 13q0 8 11 36l19 44q-30 30 -30 113t30 113l-19 45q-11 27 -11 35q0 13 35 13q25 0 33 -3t13 -16l20 -47q24 2 42 2q15 0 41 -2l20 47q5 13 13.5 16t32.5 3q35 0 35 -13q0 -8 -11 -35l-19 -44q31 -31 31 -114t-31 -113l19 -44q11 -28 11 -36
q0 -13 -35 -13q-24 0 -32.5 3.5t-13.5 16.5l-20 47q-12 -2 -41 -2t-42 1l-20 -46q-5 -13 -13 -16.5t-33 -3.5zM233 195q40 0 50.5 13t10.5 62q0 48 -10.5 60.5t-50.5 12.5t-51 -12.5t-11 -60.5q0 -49 11 -62t51 -13z" />
    <glyph glyph-name="yen" unicode="&#xa5;" 
d="M232 0q-29 0 -38.5 6t-9.5 24v78h-88q-16 0 -21 6t-5 27t5 27t21 6h88v53h-89q-15 0 -20.5 7t-5.5 28t5.5 27.5t20.5 6.5h67l-128 262q-12 24 -12 37t9.5 18t37.5 5q31 0 41 -5t17 -22l103 -247h4l103 247q7 17 17 22t41 5q28 0 37.5 -5t9.5 -18t-12 -37l-129 -262h68
q16 0 21 -6.5t5 -27.5q0 -22 -5 -28.5t-21 -6.5h-89v-53h88q16 0 21.5 -6t5.5 -27t-5.5 -27t-21.5 -6h-88v-78q0 -18 -9.5 -24t-38.5 -6z" />
    <glyph glyph-name="brokenbar" unicode="&#xa6;" horiz-adv-x="176" 
d="M88 281q-26 0 -33 5.5t-7 27.5v325q0 22 7 27.5t33 5.5t32.5 -5.5t6.5 -27.5v-325q0 -22 -6.5 -27.5t-32.5 -5.5zM88 -188q-26 0 -33 5.5t-7 27.5v325q0 22 7 27.5t33 5.5t32.5 -5.5t6.5 -27.5v-325q0 -22 -6.5 -27.5t-32.5 -5.5z" />
    <glyph glyph-name="section" unicode="&#xa7;" horiz-adv-x="454" 
d="M45 244q0 78 46 112q-40 33 -40 114q0 91 46 122t126 31q86 0 154 -20q12 -3 17.5 -12t5.5 -33q0 -23 -4 -31t-14 -8q-4 0 -23.5 4.5t-50.5 8.5t-62 4q-57 0 -78.5 -12.5t-21.5 -53.5q0 -28 9.5 -42t34.5 -24l126 -53q52 -22 74.5 -56t22.5 -87q0 -75 -41 -106
q44 -36 44 -124q0 -94 -53.5 -130t-151.5 -36q-84 0 -146 18q-15 5 -21 14.5t-6 32.5q0 24 4 31.5t15 7.5q2 0 47.5 -8.5t90.5 -8.5q68 0 97 16t29 56q0 36 -10 53t-39 29l-132 55q-51 21 -73 52.5t-22 83.5zM140 260q0 -30 10 -47t34 -27l118 -49q17 15 17 57
q0 31 -9.5 49.5t-37.5 29.5l-114 47q-18 -16 -18 -60z" />
    <glyph glyph-name="dieresis" unicode="&#xa8;" horiz-adv-x="312" 
d="M78 562q-32 0 -41.5 7t-9.5 30v19q0 22 9.5 29t41.5 7t41.5 -7t9.5 -29v-19q0 -23 -9.5 -30t-41.5 -7zM234 562q-32 0 -41.5 7t-9.5 30v19q0 22 9.5 29t41.5 7t41 -7t9 -29v-19q0 -23 -9 -30t-41 -7z" />
    <glyph glyph-name="copyright" unicode="&#xa9;" horiz-adv-x="886" 
d="M443 -57q107 0 172.5 19t102 67t48.5 113.5t12 175.5q0 107 -12 171.5t-48.5 112t-102 66.5t-172.5 19t-172.5 -19t-101.5 -66.5t-48 -112t-12 -171.5q0 -110 12 -175.5t48 -113.5t101.5 -67t172.5 -19zM443 -130q-90 0 -156.5 12.5t-112.5 40t-75.5 62.5t-45 88
t-21.5 109t-6 133t6 133t21.5 109t45 88t75.5 62.5t112.5 40t156.5 12.5t156.5 -12.5t112.5 -40t75.5 -62.5t45 -88t21.5 -109t6 -133t-6 -133t-21.5 -109t-45 -88t-75.5 -62.5t-112.5 -40t-156.5 -12.5zM452 60q-55 0 -88 8.5t-59.5 34t-38 76t-11.5 132.5q0 70 9.5 118.5
t24.5 76t42 42.5t53.5 19.5t67.5 4.5q65 0 124 -18q15 -5 20.5 -13t5.5 -30q0 -39 -18 -39q-1 0 -46.5 8.5t-75.5 8.5q-45 0 -66 -10t-32 -46t-11 -112q0 -117 18.5 -147t92.5 -30q40 0 81 10l41 9q16 0 16 -39q0 -21 -5 -29.5t-20 -13.5q-58 -21 -125 -21z" />
    <glyph glyph-name="ordfeminine" unicode="&#xaa;" horiz-adv-x="368" 
d="M131 250q-54 0 -77.5 24.5t-23.5 81.5q0 59 28.5 84t102.5 25h78v26q0 38 -11.5 50t-47.5 12q-34 0 -71 -6.5t-41 -6.5q-15 0 -15 33q0 17 3.5 23t13.5 11q43 16 116 16q72 0 101.5 -22t29.5 -87v-99q0 -36 3.5 -66t7 -48t3.5 -23q0 -10 -7 -14.5t-28 -4.5q-20 0 -27.5 4
t-10.5 18l-10 42q-28 -73 -117 -73zM153 315q86 0 86 91v8l-88 -4q-27 -2 -36 -11.5t-9 -37.5t10.5 -37t36.5 -9z" />
    <glyph glyph-name="guillemotleft" unicode="&#xab;" horiz-adv-x="598" 
d="M414 250v-8l128 -111q15 -14 19.5 -24.5t4.5 -37.5q0 -35 -17 -35q-9 0 -23 9l-171 124q-15 11 -20.5 17t-10 21t-4.5 41q0 36 7 49t28 29l171 124q14 9 23 9q17 0 17 -35q0 -27 -4.5 -37.5t-19.5 -24.5zM129 250v-8l134 -101q15 -12 19.5 -22.5t4.5 -39.5q0 -35 -18 -35
q-8 0 -22 9l-179 118q-21 14 -28.5 27.5t-7.5 47.5q0 33 7.5 46.5t28.5 27.5l179 118q14 9 22 9q18 0 18 -35q0 -29 -4 -40t-20 -22z" />
    <glyph glyph-name="logicalnot" unicode="&#xac;" 
d="M352 142q-29 0 -37 5.5t-8 24.5v72h-211q-16 0 -22 8t-6 34q0 25 6 33t22 8h267q20 0 26.5 -5.5t6.5 -22.5v-127q0 -19 -8 -24.5t-36 -5.5z" />
    <glyph glyph-name="registered" unicode="&#xae;" horiz-adv-x="886" 
d="M443 -130q-90 0 -156.5 12.5t-112.5 40t-75.5 62.5t-45 88t-21.5 109t-6 133t6 133t21.5 109t45 88t75.5 62.5t112.5 40t156.5 12.5t156.5 -12.5t112.5 -40t75.5 -62.5t45 -88t21.5 -109t6 -133t-6 -133t-21.5 -109t-45 -88t-75.5 -62.5t-112.5 -40t-156.5 -12.5z
M443 -57q107 0 172.5 19t102 67t48.5 113.5t12 175.5q0 107 -12 171.5t-48.5 112t-102 66.5t-172.5 19t-172.5 -19t-101.5 -66.5t-48 -112t-12 -171.5q0 -110 12 -175.5t48 -113.5t101.5 -67t172.5 -19zM313 70q-29 0 -39 6t-10 24v431q0 30 32 35q66 9 152 9
q109 0 148.5 -29.5t39.5 -125.5q0 -62 -19.5 -95.5t-65.5 -47.5l89 -161q10 -20 10 -27q0 -11 -9.5 -15t-35.5 -4q-33 0 -42.5 4.5t-17.5 21.5l-77 169h-106v-165q0 -19 -9.5 -24.5t-39.5 -5.5zM362 489v-153h75q65 0 83 15t18 72q0 45 -18 57.5t-78 12.5q-34 0 -80 -4z" />
    <glyph glyph-name="macron" unicode="&#xaf;" horiz-adv-x="266" 
d="M26 608q0 26 5.5 34t22.5 8h159q17 0 22 -8t5 -34q0 -25 -5 -33t-22 -8h-159q-17 0 -22.5 8t-5.5 33z" />
    <glyph glyph-name="degree" unicode="&#xb0;" horiz-adv-x="424" 
d="M210 333q-85 0 -112 28.5t-27 114.5q0 87 27 117t115 30q83 0 111.5 -29t28.5 -114q0 -87 -26.5 -117t-116.5 -30zM152 476q0 -48 10.5 -60t47.5 -12q42 0 52 13t10 62q0 48 -11 60t-48 12q-41 0 -51 -13t-10 -62z" />
    <glyph glyph-name="plusminus" unicode="&#xb1;" 
d="M80 308q0 23 5.5 29.5t22.5 6.5h83v91q0 18 7 23t33 5q27 0 34 -5t7 -23v-91h83q17 0 22.5 -6.5t5.5 -29.5q0 -24 -5 -30.5t-23 -6.5h-83v-91q0 -18 -7 -23t-34 -5q-26 0 -33 5t-7 23v91h-83q-18 0 -23 6.5t-5 30.5zM96 69q0 25 5 32t23 7h215q18 0 23 -7t5 -32t-5 -32
t-23 -7h-215q-18 0 -23 7t-5 32z" />
    <glyph glyph-name="twosuperior" unicode="&#xb2;" horiz-adv-x="356" 
d="M139 365h136q15 0 20 -6t5 -29q0 -22 -5.5 -28.5t-19.5 -6.5h-203q-15 0 -21 6t-6 23v15q0 25 31 57l96 101q33 36 33 64q0 25 -10 33t-38 8q-24 0 -50.5 -5.5t-30.5 -5.5q-9 0 -12 5t-3 25t5 27t18 10q45 12 91 12q54 0 83 -18t29 -72q0 -36 -11.5 -58t-45.5 -60z" />
    <glyph glyph-name="threesuperior" unicode="&#xb3;" horiz-adv-x="364" 
d="M178 290q-54 0 -97 12q-13 4 -18 11t-5 26t3 24.5t11 5.5q4 0 35 -5.5t54 -5.5q32 0 47 10t15 38q0 26 -17.5 38t-70.5 12q-19 0 -19 28q0 16 4 22.5t15 6.5q49 0 65 10.5t16 38.5q0 24 -11.5 32t-40.5 8q-22 0 -51 -5.5t-32 -5.5q-6 0 -9 1.5t-5 8.5t-2 20q0 20 5.5 27
t18.5 10q43 12 93 12q54 0 83 -18.5t29 -72.5q0 -84 -71 -96q82 -4 82 -89q0 -104 -127 -104z" />
    <glyph glyph-name="acute" unicode="&#xb4;" horiz-adv-x="210" 
d="M63 539q-41 0 -41 18q0 8 11 30l41 83q10 20 19 25.5t40 5.5q53 0 53 -18q0 -12 -15 -36l-51 -82q-7 -11 -11 -15t-15 -7.5t-31 -3.5z" />
    <glyph glyph-name="mu" unicode="&#xb5;" horiz-adv-x="495" 
d="M99 -188q-29 0 -39 5.5t-10 24.5v620q0 19 10 24.5t39 5.5t38.5 -5.5t9.5 -24.5v-319q0 -41 14.5 -55t59.5 -14q65 0 91 38t26 128v222q0 19 9.5 24.5t38.5 5.5t39 -5.5t10 -24.5v-271q0 -46 5.5 -83.5t11 -58.5t5.5 -26q0 -12 -9 -17.5t-36 -5.5q-26 0 -34.5 4.5
t-12.5 21.5l-14 53q-38 -89 -157 -89q-30 0 -47 4v-152q0 -19 -9.5 -24.5t-38.5 -5.5z" />
    <glyph glyph-name="paragraph" unicode="&#xb6;" horiz-adv-x="577" 
d="M245 -194q-62 0 -125 13q-14 3 -20 12t-6 32q0 40 18 40q1 0 45.5 -5.5t84.5 -5.5q75 0 96 29.5t21 115.5v494h-49v-312q0 -17 -6.5 -25t-23.5 -12q-36 -9 -82 -9q-78 0 -106 46.5t-28 169.5q0 129 32 179t119 50h293q16 0 22 -9t6 -35t-6 -34.5t-22 -8.5h-52v-491
q0 -72 -14 -119t-43 -71.5t-65 -34t-89 -9.5z" />
    <glyph glyph-name="middot" unicode="&#xb7;" horiz-adv-x="187" 
d="M94 222q-32 0 -42 7t-10 29v33q0 23 9.5 29.5t42.5 6.5q32 0 41.5 -6.5t9.5 -29.5v-33q0 -22 -9.5 -29t-41.5 -7z" />
    <glyph glyph-name="cedilla" unicode="&#xb8;" horiz-adv-x="231" 
d="M109 -213q-35 0 -56 5q-15 3 -21 10t-6 27q0 21 4.5 28t15.5 7q3 0 18.5 -2t29.5 -2q26 0 26 16q0 3 -1 5.5t-2 4.5t-4 4t-5.5 3.5t-7 4.5t-8.5 5q-18 10 -25 22t-7 35v58h70v-43q0 -15 14 -24q37 -21 49 -37t12 -49q0 -78 -96 -78z" />
    <glyph glyph-name="onesuperior" unicode="&#xb9;" horiz-adv-x="354" 
d="M69 330q0 23 5 29t20 6h52v223l-46 -14q-18 -3 -19 -3q-16 0 -16 33q0 18 4 24.5t16 10.5l64 22q23 7 45 7q19 0 24.5 -5t5.5 -22v-276h54q14 0 19 -6t5 -29q0 -22 -5 -28.5t-19 -6.5h-184q-15 0 -20 6.5t-5 28.5z" />
    <glyph glyph-name="ordmasculine" unicode="&#xba;" horiz-adv-x="386" 
d="M186 249q-40 0 -63.5 5.5t-44 24t-29.5 56t-9 97.5q0 63 9 101.5t31 58t48.5 25.5t71.5 6q40 0 63.5 -5.5t44.5 -23.5t29.5 -55t8.5 -97q0 -64 -9 -102.5t-30.5 -58.5t-48 -26t-72.5 -6zM188 316q47 0 62 21t15 96q0 81 -13.5 102t-53.5 21q-47 0 -62 -20t-15 -96
q0 -80 13.5 -102t53.5 -22z" />
    <glyph glyph-name="guillemotright" unicode="&#xbb;" horiz-adv-x="598" 
d="M279 246q0 -25 -4.5 -40.5t-10.5 -21.5t-21 -17l-171 -124q-14 -9 -22 -9q-18 0 -18 35q0 27 4.5 37.5t19.5 24.5l128 111v8l-128 110q-15 14 -19.5 24.5t-4.5 37.5q0 35 18 35q8 0 22 -9l171 -124q15 -11 20.5 -17t10.5 -21t5 -40zM566 246q0 -35 -7 -48.5t-28 -26.5
l-179 -118q-14 -9 -23 -9q-17 0 -17 35q0 29 4 39.5t20 22.5l134 101v8l-134 100q-16 12 -20 22.5t-4 39.5q0 35 17 35q9 0 23 -9l179 -118q21 -13 28 -26.5t7 -47.5z" />
    <glyph glyph-name="onequarter" unicode="&#xbc;" horiz-adv-x="750" 
d="M633 0q-22 0 -31 4.5t-9 18.5v54h-150q-12 0 -16 7t-4 26q0 32 12 51l120 191q8 13 21.5 17.5t44.5 4.5t41 -5.5t10 -23.5v-205h27q12 0 16.5 -7t4.5 -26q0 -18 -4.5 -24t-16.5 -6h-27v-54q0 -14 -8.5 -18.5t-30.5 -4.5zM271 0q-34 0 -34 15q0 8 7 28l207 560q5 13 14 18
t31 5q20 0 27 -3t7 -12q0 -8 -7 -28l-207 -559q-5 -14 -14 -19t-31 -5zM39 559q0 19 4 26t15 10l65 22q18 6 45 6q19 0 24 -4.5t5 -21.5v-277h54q14 0 19.5 -6t5.5 -28t-5.5 -28.5t-19.5 -6.5h-184q-15 0 -20 6.5t-5 28.5t5 28t20 6h52v224l-46 -14q-12 -4 -19 -4
q-15 0 -15 33zM597 306l-101 -166h101v166z" />
    <glyph glyph-name="onehalf" unicode="&#xbd;" horiz-adv-x="752" 
d="M271 0q-34 0 -34 15q0 8 7 28l207 560q5 13 14 18t31 5q20 0 27 -3t7 -12q0 -8 -7 -28l-207 -559q-5 -14 -14 -19t-31 -5zM42 286q0 22 5 28t20 6h52v224l-46 -14q-12 -4 -19 -4q-15 0 -15 33q0 19 4 25.5t15 10.5l65 22q18 6 45 6q19 0 24 -4.5t5 -21.5v-277h54
q14 0 19.5 -6t5.5 -28t-5.5 -28.5t-19.5 -6.5h-184q-15 0 -20 6.5t-5 28.5zM726 35q0 -22 -5.5 -28.5t-19.5 -6.5h-203q-15 0 -21 5.5t-6 22.5v16q0 16 6.5 26.5t24.5 30.5l96 100q34 35 34 65q0 25 -10 33t-38 8q-24 0 -51 -5.5t-31 -5.5q-8 0 -11.5 5t-3.5 25q0 19 5.5 26
t18.5 11q39 11 90 11q54 0 83 -18t29 -72q0 -36 -11.5 -57.5t-45.5 -59.5l-90 -97h135q15 0 20 -6t5 -29z" />
    <glyph glyph-name="threequarters" unicode="&#xbe;" horiz-adv-x="736" 
d="M619 0q-21 0 -30 4.5t-9 18.5v54h-150q-13 0 -17 7t-4 26q0 32 12 51l120 191q8 13 21.5 17.5t44.5 4.5t41 -5.5t10 -23.5v-205h27q12 0 16.5 -7t4.5 -26q0 -18 -4.5 -24t-16.5 -6h-27v-54q0 -14 -8.5 -18.5t-30.5 -4.5zM147 245q-54 0 -97 12q-13 3 -18 10.5t-5 26.5
t3 24.5t11 5.5q4 0 35 -5.5t54 -5.5q32 0 47 10t15 38q0 26 -17 38.5t-71 12.5q-19 0 -19 28q0 16 4 22.5t15 6.5q49 0 65 10.5t16 38.5q0 23 -11.5 31.5t-40.5 8.5q-21 0 -50.5 -5.5t-32.5 -5.5q-6 0 -9 1.5t-5 8t-2 20.5q0 19 5.5 26t18.5 10q43 12 94 12q54 0 82.5 -18
t28.5 -72q0 -84 -71 -96q82 -6 82 -90q0 -104 -127 -104zM256 0q-33 0 -33 15q0 8 7 28l207 560q5 13 14 18t31 5q20 0 27 -3t7 -12q0 -8 -7 -28l-207 -559q-5 -14 -14 -19t-32 -5zM583 306l-100 -166h100v166z" />
    <glyph glyph-name="questiondown" unicode="&#xbf;" horiz-adv-x="363" 
d="M206 469q27 0 36 -6t9 -24v-37q0 -36 -8.5 -56t-28.5 -43l-70 -78q-29 -29 -29 -78q0 -41 17.5 -53t70.5 -12q39 0 81 8.5t45 8.5q10 0 14 -8t4 -31t-5.5 -31.5t-20.5 -12.5q-60 -19 -141 -19q-37 0 -62.5 4.5t-50.5 17.5t-38 41t-13 70q0 47 12.5 75t41.5 59l68 75
q24 27 24 72v28q0 18 9 24t35 6zM206 620q32 0 42 -7t10 -29v-26q0 -22 -10 -29t-42 -7t-41.5 7t-9.5 29v26q0 22 9.5 29t41.5 7z" />
    <glyph glyph-name="Agrave" unicode="&#xc0;" horiz-adv-x="523" 
d="M62 0q-28 0 -37 5t-9 18q0 8 6 29l149 522q8 29 24 36.5t67 7.5q50 0 66 -7.5t24 -36.5l149 -522q6 -21 6 -29q0 -13 -9 -18t-37 -5q-30 0 -40 5.5t-15 21.5l-43 150h-206l-40 -150q-5 -17 -14.5 -22t-40.5 -5zM255 535l-77 -282h167l-77 282h-13zM270 662q-19 0 -30 3.5
t-15 7.5t-11 15l-52 82q-15 28 -15 36q0 18 54 18q31 0 40 -5.5t19 -25.5l41 -83q10 -20 10 -31q0 -17 -41 -17z" />
    <glyph glyph-name="Aacute" unicode="&#xc1;" horiz-adv-x="523" 
d="M62 0q-28 0 -37 5t-9 18q0 8 6 29l149 522q8 29 24 36.5t67 7.5q50 0 66 -7.5t24 -36.5l149 -522q6 -21 6 -29q0 -13 -9 -18t-37 -5q-30 0 -40 5.5t-15 21.5l-43 150h-206l-40 -150q-5 -17 -14.5 -22t-40.5 -5zM255 535l-77 -282h167l-77 282h-13zM251 662q-41 0 -41 18
q0 8 11 30l41 83q10 20 19 25.5t40 5.5q53 0 53 -18q0 -12 -15 -36l-51 -82q-7 -11 -11 -15t-15 -7.5t-31 -3.5z" />
    <glyph glyph-name="Acircumflex" unicode="&#xc2;" horiz-adv-x="523" 
d="M62 0q-28 0 -37 5t-9 18q0 8 6 29l149 522q8 29 24 36.5t67 7.5q50 0 66 -7.5t24 -36.5l149 -522q6 -21 6 -29q0 -13 -9 -18t-37 -5q-30 0 -40 5.5t-15 21.5l-43 150h-206l-40 -150q-5 -17 -14.5 -22t-40.5 -5zM255 535l-77 -282h167l-77 282h-13zM264 753h-5l-45 -68
q-10 -14 -20 -18.5t-33 -4.5q-34 0 -34 18q0 8 11 29l57 94q6 12 15 16.5t31 4.5h40q22 0 31 -4.5t16 -16.5l56 -94q11 -18 11 -29q0 -18 -34 -18q-22 0 -32 4.5t-20 18.5z" />
    <glyph glyph-name="Atilde" unicode="&#xc3;" horiz-adv-x="523" 
d="M62 0q-28 0 -37 5t-9 18q0 8 6 29l149 522q8 29 24 36.5t67 7.5q50 0 66 -7.5t24 -36.5l149 -522q6 -21 6 -29q0 -13 -9 -18t-37 -5q-30 0 -40 5.5t-15 21.5l-43 150h-206l-40 -150q-5 -17 -14.5 -22t-40.5 -5zM255 535l-77 -282h167l-77 282h-13zM125 715q0 20 5 28.5
t19 17.5q30 18 62 18q23 0 57 -10t50 -10q20 0 42 9t24 9q8 0 11 -6.5t3 -27.5q0 -19 -5.5 -28t-19.5 -18q-27 -18 -62 -18q-23 0 -57 10t-50 10q-20 0 -41 -9t-24 -9q-8 0 -11 6.5t-3 27.5z" />
    <glyph glyph-name="Adieresis" unicode="&#xc4;" horiz-adv-x="523" 
d="M62 0q-28 0 -37 5t-9 18q0 8 6 29l149 522q8 29 24 36.5t67 7.5q50 0 66 -7.5t24 -36.5l149 -522q6 -21 6 -29q0 -13 -9 -18t-37 -5q-30 0 -40 5.5t-15 21.5l-43 150h-206l-40 -150q-5 -17 -14.5 -22t-40.5 -5zM255 535l-77 -282h167l-77 282h-13zM183 689q-32 0 -41.5 7
t-9.5 30v19q0 22 9.5 29t41.5 7t41.5 -7t9.5 -29v-19q0 -23 -9.5 -30t-41.5 -7zM339 689q-32 0 -41.5 7t-9.5 30v19q0 22 9.5 29t41.5 7t41 -7t9 -29v-19q0 -23 -9 -30t-41 -7z" />
    <glyph glyph-name="Aring" unicode="&#xc5;" horiz-adv-x="523" 
d="M62 0q-28 0 -37 5t-9 18q0 8 6 29l149 522q8 29 24 36.5t67 7.5q50 0 66 -7.5t24 -36.5l149 -522q6 -21 6 -29q0 -13 -9 -18t-37 -5q-30 0 -40 5.5t-15 21.5l-43 150h-206l-40 -150q-5 -17 -14.5 -22t-40.5 -5zM255 535l-77 -282h167l-77 282h-13zM261 734q29 0 36.5 6.5
t7.5 27.5t-7.5 28t-36.5 7q-28 0 -35 -6.5t-7 -28.5q0 -21 7 -27.5t35 -6.5zM261 671q-65 0 -89 21t-24 76t24 76t89 21q66 0 90 -21t24 -76t-24 -76t-90 -21z" />
    <glyph glyph-name="AE" unicode="&#xc6;" horiz-adv-x="725" 
d="M62 0q-28 0 -37 5t-9 18q0 8 6 29l149 522q8 29 24 36.5t67 7.5h398q16 0 22 -9t6 -35t-6 -34.5t-22 -8.5h-231v-163h173q17 0 22.5 -8t5.5 -35q0 -26 -5.5 -34t-22.5 -8h-173v-196h241q16 0 22 -9t6 -35t-6 -34.5t-22 -8.5h-305q-20 0 -26.5 5.5t-6.5 22.5v149h-175
l-40 -150q-5 -17 -14.5 -22t-40.5 -5zM255 535l-77 -282h154v282h-77z" />
    <glyph glyph-name="Ccedilla" unicode="&#xc7;" horiz-adv-x="452" 
d="M252 -213q-35 0 -56 5q-15 3 -21 10t-6 27q0 21 4.5 28t15.5 7q3 0 18.5 -2t29.5 -2q26 0 26 16q0 3 -1 5.5t-2 4.5t-4 4t-5.5 3.5t-7 4.5t-8.5 5q-18 10 -25 22t-7 35v34q-39 3 -65.5 15.5t-49 40.5t-33 80.5t-10.5 131.5v81q0 76 10.5 128.5t27 82.5t46 45.5t57.5 19.5
t72 4q67 0 138 -19q14 -4 19 -12t5 -34q0 -38 -17 -38l-43 8q-42 9 -81 9q-45 0 -67.5 -5t-40.5 -26.5t-23.5 -61t-5.5 -110.5v-52q0 -49 2.5 -82.5t10.5 -56.5t16.5 -35.5t26.5 -19.5t35 -8.5t46 -1.5q41 0 82 8.5t42 8.5q10 0 13.5 -7.5t3.5 -31.5t-5 -32.5t-19 -12.5
q-51 -16 -123 -19v-17q0 -15 14 -24q37 -21 49 -37t12 -49q0 -78 -96 -78z" />
    <glyph glyph-name="Egrave" unicode="&#xc8;" horiz-adv-x="455" 
d="M428 43q0 -26 -6 -34.5t-22 -8.5h-309q-20 0 -26.5 5.5t-6.5 22.5v562q0 17 6.5 22.5t26.5 5.5h299q16 0 22 -9t6 -35t-6 -34.5t-22 -8.5h-235v-163h177q17 0 22.5 -8t5.5 -35q0 -26 -5.5 -34t-22.5 -8h-177v-196h245q16 0 22 -9t6 -35zM251 662q-19 0 -30 3.5t-15 7.5
t-11 15l-52 82q-15 28 -15 36q0 18 54 18q31 0 40 -5.5t19 -25.5l41 -83q10 -20 10 -31q0 -17 -41 -17z" />
    <glyph glyph-name="Eacute" unicode="&#xc9;" horiz-adv-x="455" 
d="M428 43q0 -26 -6 -34.5t-22 -8.5h-309q-20 0 -26.5 5.5t-6.5 22.5v562q0 17 6.5 22.5t26.5 5.5h299q16 0 22 -9t6 -35t-6 -34.5t-22 -8.5h-235v-163h177q17 0 22.5 -8t5.5 -35q0 -26 -5.5 -34t-22.5 -8h-177v-196h245q16 0 22 -9t6 -35zM208 662q-41 0 -41 18q0 8 11 30
l41 83q10 20 19 25.5t40 5.5q53 0 53 -18q0 -12 -15 -36l-51 -82q-7 -11 -11 -15t-15 -7.5t-31 -3.5z" />
    <glyph glyph-name="Ecircumflex" unicode="&#xca;" horiz-adv-x="455" 
d="M428 43q0 -26 -6 -34.5t-22 -8.5h-309q-20 0 -26.5 5.5t-6.5 22.5v562q0 17 6.5 22.5t26.5 5.5h299q16 0 22 -9t6 -35t-6 -34.5t-22 -8.5h-235v-163h177q17 0 22.5 -8t5.5 -35q0 -26 -5.5 -34t-22.5 -8h-177v-196h245q16 0 22 -9t6 -35zM243 753h-5l-45 -68
q-10 -14 -20 -18.5t-33 -4.5q-34 0 -34 18q0 8 11 29l57 94q6 12 15 16.5t31 4.5h40q22 0 31 -4.5t16 -16.5l56 -94q11 -18 11 -29q0 -18 -34 -18q-22 0 -32 4.5t-20 18.5z" />
    <glyph glyph-name="Edieresis" unicode="&#xcb;" horiz-adv-x="455" 
d="M428 43q0 -26 -6 -34.5t-22 -8.5h-309q-20 0 -26.5 5.5t-6.5 22.5v562q0 17 6.5 22.5t26.5 5.5h299q16 0 22 -9t6 -35t-6 -34.5t-22 -8.5h-235v-163h177q17 0 22.5 -8t5.5 -35q0 -26 -5.5 -34t-22.5 -8h-177v-196h245q16 0 22 -9t6 -35zM163 685q-32 0 -41.5 7t-9.5 30
v19q0 22 9.5 29t41.5 7t41.5 -7t9.5 -29v-19q0 -23 -9.5 -30t-41.5 -7zM319 685q-32 0 -41.5 7t-9.5 30v19q0 22 9.5 29t41.5 7t41 -7t9 -29v-19q0 -23 -9 -30t-41 -7z" />
    <glyph glyph-name="Igrave" unicode="&#xcc;" horiz-adv-x="213" 
d="M107 0q-30 0 -39.5 5.5t-9.5 24.5v558q0 19 9.5 24.5t39.5 5.5q29 0 38.5 -6t9.5 -24v-558q0 -18 -9.5 -24t-38.5 -6zM121 662q-19 0 -30 3.5t-15 7.5t-11 15l-52 82q-15 28 -15 36q0 18 54 18q31 0 40 -5.5t19 -25.5l41 -83q10 -20 10 -31q0 -17 -41 -17z" />
    <glyph glyph-name="Iacute" unicode="&#xcd;" horiz-adv-x="213" 
d="M107 0q-30 0 -39.5 5.5t-9.5 24.5v558q0 19 9.5 24.5t39.5 5.5q29 0 38.5 -6t9.5 -24v-558q0 -18 -9.5 -24t-38.5 -6zM93 662q-41 0 -41 18q0 8 11 30l41 83q10 20 19 25.5t40 5.5q53 0 53 -18q0 -12 -15 -36l-51 -82q-7 -11 -11 -15t-15 -7.5t-31 -3.5z" />
    <glyph glyph-name="Icircumflex" unicode="&#xce;" horiz-adv-x="213" 
d="M107 0q-30 0 -39.5 5.5t-9.5 24.5v558q0 19 9.5 24.5t39.5 5.5q29 0 38.5 -6t9.5 -24v-558q0 -18 -9.5 -24t-38.5 -6zM110 753h-5l-45 -68q-10 -14 -20 -18.5t-33 -4.5q-34 0 -34 18q0 8 11 29l57 94q6 12 15 16.5t31 4.5h40q22 0 31 -4.5t16 -16.5l56 -94q11 -18 11 -29
q0 -18 -34 -18q-22 0 -32 4.5t-20 18.5z" />
    <glyph glyph-name="Idieresis" unicode="&#xcf;" horiz-adv-x="213" 
d="M107 0q-30 0 -39.5 5.5t-9.5 24.5v558q0 19 9.5 24.5t39.5 5.5q29 0 38.5 -6t9.5 -24v-558q0 -18 -9.5 -24t-38.5 -6zM29 685q-32 0 -41.5 7t-9.5 30v19q0 22 9.5 29t41.5 7t41.5 -7t9.5 -29v-19q0 -23 -9.5 -30t-41.5 -7zM185 685q-32 0 -41.5 7t-9.5 30v19q0 22 9.5 29
t41.5 7t41 -7t9 -29v-19q0 -23 -9 -30t-41 -7z" />
    <glyph glyph-name="Eth" unicode="&#xd0;" horiz-adv-x="526" 
d="M3 313q0 26 5.5 34.5t22.5 8.5h27v223q0 18 7.5 26t24.5 10q58 8 146 8q46 0 75.5 -2.5t60.5 -12t48.5 -27.5t33 -48.5t21.5 -76t6 -109.5v-65q0 -79 -11.5 -133.5t-28.5 -85t-49.5 -47t-62.5 -20.5t-78 -4q-85 0 -158 8q-21 2 -28 9.5t-7 24.5v236h-27q-17 0 -22.5 8
t-5.5 35zM251 78q43 0 65 5t39.5 26t23 61t5.5 112v62q0 67 -6.5 105t-25 59t-43 26.5t-70.5 5.5q-42 0 -84 -4v-182h34q17 0 22.5 -8t5.5 -33q0 -26 -5.5 -34t-22.5 -8h-34v-189q50 -4 96 -4z" />
    <glyph glyph-name="Ntilde" unicode="&#xd1;" horiz-adv-x="547" 
d="M107 0q-30 0 -39.5 5.5t-9.5 24.5v558q0 19 12.5 24.5t51.5 5.5q32 0 45.5 -5t22.5 -24l193 -428h9v427q0 18 9.5 24t38.5 6q30 0 39.5 -5.5t9.5 -24.5v-558q0 -19 -11.5 -24.5t-51.5 -5.5q-32 0 -43.5 4.5t-20.5 24.5l-198 428h-9v-427q0 -18 -9.5 -24t-38.5 -6z
M137 721q0 20 5 28.5t19 17.5q30 18 62 18q23 0 57 -10t50 -10q20 0 42 9t24 9q8 0 11 -6.5t3 -27.5q0 -19 -5.5 -28t-19.5 -18q-27 -18 -62 -18q-23 0 -57 10t-50 10q-20 0 -41 -9t-24 -9q-8 0 -11 6.5t-3 27.5z" />
    <glyph glyph-name="Ograve" unicode="&#xd2;" horiz-adv-x="526" 
d="M263 76q53 0 76.5 13.5t34 56t10.5 136.5v51q0 73 -3.5 110.5t-18 61t-35.5 29t-64 5.5q-53 0 -76.5 -13.5t-34 -56t-10.5 -136.5v-51q0 -73 3.5 -110.5t18 -61t35.5 -29t64 -5.5zM263 -8q-66 0 -102.5 8.5t-65.5 38t-39.5 85t-10.5 150.5v63q0 97 11.5 155t41.5 86.5
t65.5 36.5t99.5 8q67 0 104 -8.5t65.5 -38.5t38.5 -86t10 -153v-63q0 -95 -12 -152.5t-42.5 -85.5t-65.5 -36t-98 -8zM288 662q-19 0 -30 3.5t-15 7.5t-11 15l-52 82q-15 28 -15 36q0 18 54 18q31 0 40 -5.5t19 -25.5l41 -83q10 -20 10 -31q0 -17 -41 -17z" />
    <glyph glyph-name="Oacute" unicode="&#xd3;" horiz-adv-x="526" 
d="M263 76q53 0 76.5 13.5t34 56t10.5 136.5v51q0 73 -3.5 110.5t-18 61t-35.5 29t-64 5.5q-53 0 -76.5 -13.5t-34 -56t-10.5 -136.5v-51q0 -73 3.5 -110.5t18 -61t35.5 -29t64 -5.5zM263 -8q-66 0 -102.5 8.5t-65.5 38t-39.5 85t-10.5 150.5v63q0 97 11.5 155t41.5 86.5
t65.5 36.5t99.5 8q67 0 104 -8.5t65.5 -38.5t38.5 -86t10 -153v-63q0 -95 -12 -152.5t-42.5 -85.5t-65.5 -36t-98 -8zM236 662q-41 0 -41 18q0 8 11 30l41 83q10 20 19 25.5t40 5.5q53 0 53 -18q0 -12 -15 -36l-51 -82q-7 -11 -11 -15t-15 -7.5t-31 -3.5z" />
    <glyph glyph-name="Ocircumflex" unicode="&#xd4;" horiz-adv-x="526" 
d="M263 76q53 0 76.5 13.5t34 56t10.5 136.5v51q0 73 -3.5 110.5t-18 61t-35.5 29t-64 5.5q-53 0 -76.5 -13.5t-34 -56t-10.5 -136.5v-51q0 -73 3.5 -110.5t18 -61t35.5 -29t64 -5.5zM263 -8q-66 0 -102.5 8.5t-65.5 38t-39.5 85t-10.5 150.5v63q0 97 11.5 155t41.5 86.5
t65.5 36.5t99.5 8q67 0 104 -8.5t65.5 -38.5t38.5 -86t10 -153v-63q0 -95 -12 -152.5t-42.5 -85.5t-65.5 -36t-98 -8zM266 753h-5l-45 -68q-10 -14 -20 -18.5t-33 -4.5q-34 0 -34 18q0 8 11 29l57 94q6 12 15 16.5t31 4.5h40q22 0 31 -4.5t16 -16.5l56 -94q11 -18 11 -29
q0 -18 -34 -18q-22 0 -32 4.5t-20 18.5z" />
    <glyph glyph-name="Otilde" unicode="&#xd5;" horiz-adv-x="526" 
d="M263 76q53 0 76.5 13.5t34 56t10.5 136.5v51q0 73 -3.5 110.5t-18 61t-35.5 29t-64 5.5q-53 0 -76.5 -13.5t-34 -56t-10.5 -136.5v-51q0 -73 3.5 -110.5t18 -61t35.5 -29t64 -5.5zM263 -8q-66 0 -102.5 8.5t-65.5 38t-39.5 85t-10.5 150.5v63q0 97 11.5 155t41.5 86.5
t65.5 36.5t99.5 8q67 0 104 -8.5t65.5 -38.5t38.5 -86t10 -153v-63q0 -95 -12 -152.5t-42.5 -85.5t-65.5 -36t-98 -8zM127 715q0 20 5 28.5t19 17.5q30 18 62 18q23 0 57 -10t50 -10q20 0 42 9t24 9q8 0 11 -6.5t3 -27.5q0 -19 -5.5 -28t-19.5 -18q-27 -18 -62 -18
q-23 0 -57 10t-50 10q-20 0 -41 -9t-24 -9q-8 0 -11 6.5t-3 27.5z" />
    <glyph glyph-name="Odieresis" unicode="&#xd6;" horiz-adv-x="526" 
d="M263 76q53 0 76.5 13.5t34 56t10.5 136.5v51q0 73 -3.5 110.5t-18 61t-35.5 29t-64 5.5q-53 0 -76.5 -13.5t-34 -56t-10.5 -136.5v-51q0 -73 3.5 -110.5t18 -61t35.5 -29t64 -5.5zM263 -8q-66 0 -102.5 8.5t-65.5 38t-39.5 85t-10.5 150.5v63q0 97 11.5 155t41.5 86.5
t65.5 36.5t99.5 8q67 0 104 -8.5t65.5 -38.5t38.5 -86t10 -153v-63q0 -95 -12 -152.5t-42.5 -85.5t-65.5 -36t-98 -8zM186 687q-32 0 -41.5 7t-9.5 30v19q0 22 9.5 29t41.5 7t41.5 -7t9.5 -29v-19q0 -23 -9.5 -30t-41.5 -7zM342 687q-32 0 -41.5 7t-9.5 30v19q0 22 9.5 29
t41.5 7t41 -7t9 -29v-19q0 -23 -9 -30t-41 -7z" />
    <glyph glyph-name="multiply" unicode="&#xd7;" 
d="M82 126q0 9 15 28l89 115l-89 122q-15 19 -15 28q0 16 39 16q36 0 48 -16l60 -89l61 89q12 16 48 16q39 0 39 -16q0 -9 -15 -28l-89 -122l89 -115q15 -19 15 -28q0 -17 -39 -17q-35 0 -48 17l-61 83l-60 -83q-13 -17 -48 -17q-39 0 -39 17z" />
    <glyph glyph-name="Oslash" unicode="&#xd8;" horiz-adv-x="526" 
d="M263 -8q-63 0 -98 8t-65.5 36t-42.5 85.5t-12 152.5v63q0 97 10 153t38.5 86t65.5 38.5t104 8.5t104 -8.5t65.5 -38.5t38.5 -86t10 -153v-63q0 -95 -12 -152.5t-42.5 -85.5t-65.5 -36t-98 -8zM142 333q0 -106 2 -128l225 286q-11 29 -34.5 38.5t-71.5 9.5q-43 0 -64 -5.5
t-35.5 -29t-18 -61t-3.5 -110.5zM263 76q53 0 76.5 13.5t34 56t10.5 136.5q0 44 -0.5 79t-0.5 37l-220 -280q13 -26 35 -34t65 -8z" />
    <glyph glyph-name="Ugrave" unicode="&#xd9;" horiz-adv-x="524" 
d="M262 -8q-110 0 -157 42.5t-47 145.5v408q0 19 9.5 24.5t39.5 5.5q29 0 38.5 -6t9.5 -24v-412q0 -56 21.5 -77.5t85.5 -21.5q63 0 85 21.5t22 77.5v412q0 18 9.5 24t38.5 6t38.5 -6t9.5 -24v-408q0 -103 -46.5 -145.5t-156.5 -42.5zM283 662q-19 0 -30 3.5t-15 7.5t-11 15
l-52 82q-15 28 -15 36q0 18 54 18q31 0 40 -5.5t19 -25.5l41 -83q10 -20 10 -31q0 -17 -41 -17z" />
    <glyph glyph-name="Uacute" unicode="&#xda;" horiz-adv-x="524" 
d="M262 -8q-110 0 -157 42.5t-47 145.5v408q0 19 9.5 24.5t39.5 5.5q29 0 38.5 -6t9.5 -24v-412q0 -56 21.5 -77.5t85.5 -21.5q63 0 85 21.5t22 77.5v412q0 18 9.5 24t38.5 6t38.5 -6t9.5 -24v-408q0 -103 -46.5 -145.5t-156.5 -42.5zM240 662q-41 0 -41 18q0 8 11 30l41 83
q10 20 19 25.5t40 5.5q53 0 53 -18q0 -12 -15 -36l-51 -82q-7 -11 -11 -15t-15 -7.5t-31 -3.5z" />
    <glyph glyph-name="Ucircumflex" unicode="&#xdb;" horiz-adv-x="524" 
d="M262 -8q-110 0 -157 42.5t-47 145.5v408q0 19 9.5 24.5t39.5 5.5q29 0 38.5 -6t9.5 -24v-412q0 -56 21.5 -77.5t85.5 -21.5q63 0 85 21.5t22 77.5v412q0 18 9.5 24t38.5 6t38.5 -6t9.5 -24v-408q0 -103 -46.5 -145.5t-156.5 -42.5zM265 753h-5l-45 -68q-10 -14 -20 -18.5
t-33 -4.5q-34 0 -34 18q0 8 11 29l57 94q6 12 15 16.5t31 4.5h40q22 0 31 -4.5t16 -16.5l56 -94q11 -18 11 -29q0 -18 -34 -18q-22 0 -32 4.5t-20 18.5z" />
    <glyph glyph-name="Udieresis" unicode="&#xdc;" horiz-adv-x="524" 
d="M262 -8q-110 0 -157 42.5t-47 145.5v408q0 19 9.5 24.5t39.5 5.5q29 0 38.5 -6t9.5 -24v-412q0 -56 21.5 -77.5t85.5 -21.5q63 0 85 21.5t22 77.5v412q0 18 9.5 24t38.5 6t38.5 -6t9.5 -24v-408q0 -103 -46.5 -145.5t-156.5 -42.5zM184 687q-32 0 -41.5 7t-9.5 30v19
q0 22 9.5 29t41.5 7t41.5 -7t9.5 -29v-19q0 -23 -9.5 -30t-41.5 -7zM340 687q-32 0 -41.5 7t-9.5 30v19q0 22 9.5 29t41.5 7t41 -7t9 -29v-19q0 -23 -9 -30t-41 -7z" />
    <glyph glyph-name="Yacute" unicode="&#xdd;" horiz-adv-x="463" 
d="M232 0q-30 0 -39.5 5.5t-9.5 24.5v203l-155 324q-12 26 -12 38q0 23 43 23q34 0 45.5 -5t18.5 -22l106 -255h5l106 255q7 17 18 22t44 5q46 0 46 -22q0 -10 -13 -39l-155 -324v-203q0 -18 -9.5 -24t-38.5 -6zM212 662q-41 0 -41 18q0 8 11 30l41 83q10 20 19 25.5t40 5.5
q53 0 53 -18q0 -12 -15 -36l-51 -82q-7 -11 -11 -15t-15 -7.5t-31 -3.5z" />
    <glyph glyph-name="Thorn" unicode="&#xde;" horiz-adv-x="472" 
d="M107 0q-30 0 -39.5 5.5t-9.5 24.5v558q0 19 9.5 24.5t39.5 5.5q29 0 38.5 -6t9.5 -24v-86q64 4 91 4q56 0 89.5 -6t60 -25t37 -54.5t10.5 -93.5q0 -114 -50 -159t-172 -45h-66v-93q0 -18 -9.5 -24t-38.5 -6zM155 419v-216h70q73 0 97.5 24.5t24.5 98.5q0 61 -21.5 79.5
t-88.5 18.5q-22 0 -82 -5z" />
    <glyph glyph-name="germandbls" unicode="&#xdf;" horiz-adv-x="486" 
d="M209 668q92 0 132 -26t40 -89q0 -44 -23.5 -107.5t-23.5 -83.5q0 -34 28 -54l59 -41q29 -21 40 -49t11 -75q0 -153 -143 -153q-51 0 -93 14q-15 6 -20.5 14t-5.5 30q0 39 16 39q3 0 31.5 -6t53.5 -6q37 0 50 17t13 54q0 27 -4.5 40t-19.5 23l-54 35q-51 33 -51 99
q0 35 21.5 98t21.5 93q0 33 -17 43.5t-61 10.5q-38 0 -47.5 -11t-9.5 -55v-492q0 -19 -9.5 -24.5t-38.5 -5.5t-39 5.5t-10 24.5v506q0 72 31.5 102t121.5 30z" />
    <glyph glyph-name="agrave" unicode="&#xe0;" horiz-adv-x="486" 
d="M167 -10q-67 0 -98 33.5t-31 109.5q0 78 41 111.5t144 33.5h99v65q0 49 -18.5 62.5t-69.5 13.5q-45 0 -95.5 -9t-52.5 -9q-18 0 -18 39q0 21 5 29.5t17 12.5q66 20 154 20q95 0 134.5 -27t39.5 -110v-174q0 -46 5 -83.5t10.5 -58.5t5.5 -26q0 -12 -9 -17.5t-36 -5.5
q-25 0 -33.5 4.5t-12.5 21.5l-16 60q-42 -96 -165 -96zM199 70q52 0 87.5 29.5t35.5 84.5v33l-101 -3q-54 -2 -72 -16.5t-18 -54.5q0 -45 15 -59t53 -14zM267 539q-19 0 -30 3.5t-15 7.5t-11 15l-52 82q-15 28 -15 36q0 18 54 18q31 0 40 -5.5t19 -25.5l41 -83
q10 -20 10 -31q0 -17 -41 -17z" />
    <glyph glyph-name="aacute" unicode="&#xe1;" horiz-adv-x="486" 
d="M167 -10q-67 0 -98 33.5t-31 109.5q0 78 41 111.5t144 33.5h99v65q0 49 -18.5 62.5t-69.5 13.5q-45 0 -95.5 -9t-52.5 -9q-18 0 -18 39q0 21 5 29.5t17 12.5q66 20 154 20q95 0 134.5 -27t39.5 -110v-174q0 -46 5 -83.5t10.5 -58.5t5.5 -26q0 -12 -9 -17.5t-36 -5.5
q-25 0 -33.5 4.5t-12.5 21.5l-16 60q-42 -96 -165 -96zM199 70q52 0 87.5 29.5t35.5 84.5v33l-101 -3q-54 -2 -72 -16.5t-18 -54.5q0 -45 15 -59t53 -14zM217 539q-41 0 -41 18q0 8 11 30l41 83q10 20 19 25.5t40 5.5q53 0 53 -18q0 -12 -15 -36l-51 -82q-7 -11 -11 -15
t-15 -7.5t-31 -3.5z" />
    <glyph glyph-name="acircumflex" unicode="&#xe2;" horiz-adv-x="486" 
d="M167 -10q-67 0 -98 33.5t-31 109.5q0 78 41 111.5t144 33.5h99v65q0 49 -18.5 62.5t-69.5 13.5q-45 0 -95.5 -9t-52.5 -9q-18 0 -18 39q0 21 5 29.5t17 12.5q66 20 154 20q95 0 134.5 -27t39.5 -110v-174q0 -46 5 -83.5t10.5 -58.5t5.5 -26q0 -12 -9 -17.5t-36 -5.5
q-25 0 -33.5 4.5t-12.5 21.5l-16 60q-42 -96 -165 -96zM199 70q52 0 87.5 29.5t35.5 84.5v33l-101 -3q-54 -2 -72 -16.5t-18 -54.5q0 -45 15 -59t53 -14zM240 630h-5l-45 -68q-10 -14 -20 -18.5t-33 -4.5q-34 0 -34 18q0 8 11 29l57 94q6 12 15 16.5t31 4.5h40q22 0 31 -4.5
t16 -16.5l56 -94q11 -18 11 -29q0 -18 -34 -18q-22 0 -32 4.5t-20 18.5z" />
    <glyph glyph-name="atilde" unicode="&#xe3;" horiz-adv-x="486" 
d="M167 -10q-67 0 -98 33.5t-31 109.5q0 78 41 111.5t144 33.5h99v65q0 49 -18.5 62.5t-69.5 13.5q-45 0 -95.5 -9t-52.5 -9q-18 0 -18 39q0 21 5 29.5t17 12.5q66 20 154 20q95 0 134.5 -27t39.5 -110v-174q0 -46 5 -83.5t10.5 -58.5t5.5 -26q0 -12 -9 -17.5t-36 -5.5
q-25 0 -33.5 4.5t-12.5 21.5l-16 60q-42 -96 -165 -96zM199 70q52 0 87.5 29.5t35.5 84.5v33l-101 -3q-54 -2 -72 -16.5t-18 -54.5q0 -45 15 -59t53 -14zM101 596q0 20 5 28.5t19 17.5q30 18 62 18q23 0 57 -10t50 -10q20 0 42 9t24 9q8 0 11 -6.5t3 -27.5q0 -19 -5.5 -28
t-19.5 -18q-27 -18 -62 -18q-23 0 -57 10t-50 10q-20 0 -41 -9t-24 -9q-8 0 -11 6.5t-3 27.5z" />
    <glyph glyph-name="adieresis" unicode="&#xe4;" horiz-adv-x="486" 
d="M167 -10q-67 0 -98 33.5t-31 109.5q0 78 41 111.5t144 33.5h99v65q0 49 -18.5 62.5t-69.5 13.5q-45 0 -95.5 -9t-52.5 -9q-18 0 -18 39q0 21 5 29.5t17 12.5q66 20 154 20q95 0 134.5 -27t39.5 -110v-174q0 -46 5 -83.5t10.5 -58.5t5.5 -26q0 -12 -9 -17.5t-36 -5.5
q-25 0 -33.5 4.5t-12.5 21.5l-16 60q-42 -96 -165 -96zM199 70q52 0 87.5 29.5t35.5 84.5v33l-101 -3q-54 -2 -72 -16.5t-18 -54.5q0 -45 15 -59t53 -14zM159 562q-32 0 -41.5 7t-9.5 30v19q0 22 9.5 29t41.5 7t41.5 -7t9.5 -29v-19q0 -23 -9.5 -30t-41.5 -7zM315 562
q-32 0 -41.5 7t-9.5 30v19q0 22 9.5 29t41.5 7t41 -7t9 -29v-19q0 -23 -9 -30t-41 -7z" />
    <glyph glyph-name="aring" unicode="&#xe5;" horiz-adv-x="486" 
d="M167 -10q-67 0 -98 33.5t-31 109.5q0 78 41 111.5t144 33.5h99v65q0 49 -18.5 62.5t-69.5 13.5q-45 0 -95.5 -9t-52.5 -9q-18 0 -18 39q0 21 5 29.5t17 12.5q66 20 154 20q95 0 134.5 -27t39.5 -110v-174q0 -46 5 -83.5t10.5 -58.5t5.5 -26q0 -12 -9 -17.5t-36 -5.5
q-25 0 -33.5 4.5t-12.5 21.5l-16 60q-42 -96 -165 -96zM199 70q52 0 87.5 29.5t35.5 84.5v33l-101 -3q-54 -2 -72 -16.5t-18 -54.5q0 -45 15 -59t53 -14zM235 613q29 0 36.5 6.5t7.5 27.5t-7.5 28t-36.5 7q-28 0 -35 -6.5t-7 -28.5q0 -21 7 -27.5t35 -6.5zM235 550
q-65 0 -89 21t-24 76t24 76t89 21q66 0 90 -21t24 -76t-24 -76t-90 -21z" />
    <glyph glyph-name="ae" unicode="&#xe6;" horiz-adv-x="743" 
d="M508 -10q-83 0 -121 20t-50 87q-20 -54 -65 -80.5t-105 -26.5q-67 0 -98 33.5t-31 109.5q0 78 41 111.5t144 33.5h99v65q0 49 -18.5 62.5t-69.5 13.5q-45 0 -95.5 -9t-52.5 -9q-18 0 -18 39q0 21 5 29.5t17 12.5q66 20 154 20q108 0 141 -38q43 38 143 38q57 0 91.5 -13
t52.5 -45t23.5 -71t5.5 -104q0 -26 -8 -37t-32 -11h-243q1 -69 11.5 -100t29 -39t61.5 -8q41 0 77 5t56.5 9.5t24.5 4.5q16 0 16 -39q0 -21 -5 -29.5t-20 -13.5q-59 -21 -161 -21zM199 70q52 0 87.5 29.5t35.5 84.5v33l-101 -3q-54 -2 -72 -16.5t-18 -54.5q0 -45 15 -59
t53 -14zM520 421q-60 0 -80 -24.5t-22 -111.5h190q0 80 -14.5 108t-73.5 28z" />
    <glyph glyph-name="ccedilla" unicode="&#xe7;" horiz-adv-x="429" 
d="M228 -213q-35 0 -56 5q-15 3 -21 10t-6 27q0 21 4.5 28t15.5 7q3 0 18.5 -2t29.5 -2q26 0 26 16q0 3 -1 5.5t-2 4.5t-4 4t-5.5 3.5t-7 4.5t-8.5 5q-18 10 -25 22t-7 35v34q-69 10 -100 63.5t-31 183.5q0 70 9.5 118.5t24.5 76t42 42.5t53.5 19.5t67.5 4.5q65 0 124 -18
q15 -5 20.5 -13t5.5 -30q0 -39 -18 -39q-1 0 -46.5 8.5t-75.5 8.5q-45 0 -66 -10t-32 -46t-11 -112q0 -117 18.5 -147t92.5 -30q40 0 81 10l41 9q16 0 16 -39q0 -21 -5 -29.5t-20 -13.5q-58 -19 -121 -21v-15q0 -15 14 -24q37 -21 49 -37t12 -49q0 -78 -96 -78z" />
    <glyph glyph-name="egrave" unicode="&#xe8;" horiz-adv-x="471" 
d="M255 -10q-47 0 -77 5t-57 19.5t-41.5 42.5t-23 73t-8.5 111q0 70 9.5 118t24.5 76t42.5 43t54.5 19.5t70 4.5q48 0 80.5 -9.5t52 -26.5t30 -47.5t14 -64t3.5 -85.5q0 -26 -8 -37t-32 -11h-243q1 -95 22 -121t95 -26q34 0 66.5 5t52.5 9.5t24 4.5q16 0 16 -39
q0 -21 -5.5 -29.5t-20.5 -13.5q-58 -21 -141 -21zM247 421q-57 0 -77.5 -25t-23.5 -111h190q0 80 -14.5 108t-74.5 28zM268 539q-19 0 -30 3.5t-15 7.5t-11 15l-52 82q-15 28 -15 36q0 18 54 18q31 0 40 -5.5t19 -25.5l41 -83q10 -20 10 -31q0 -17 -41 -17z" />
    <glyph glyph-name="eacute" unicode="&#xe9;" horiz-adv-x="471" 
d="M255 -10q-47 0 -77 5t-57 19.5t-41.5 42.5t-23 73t-8.5 111q0 70 9.5 118t24.5 76t42.5 43t54.5 19.5t70 4.5q48 0 80.5 -9.5t52 -26.5t30 -47.5t14 -64t3.5 -85.5q0 -26 -8 -37t-32 -11h-243q1 -95 22 -121t95 -26q34 0 66.5 5t52.5 9.5t24 4.5q16 0 16 -39
q0 -21 -5.5 -29.5t-20.5 -13.5q-58 -21 -141 -21zM247 421q-57 0 -77.5 -25t-23.5 -111h190q0 80 -14.5 108t-74.5 28zM217 539q-41 0 -41 18q0 8 11 30l41 83q10 20 19 25.5t40 5.5q53 0 53 -18q0 -12 -15 -36l-51 -82q-7 -11 -11 -15t-15 -7.5t-31 -3.5z" />
    <glyph glyph-name="ecircumflex" unicode="&#xea;" horiz-adv-x="471" 
d="M255 -10q-47 0 -77 5t-57 19.5t-41.5 42.5t-23 73t-8.5 111q0 70 9.5 118t24.5 76t42.5 43t54.5 19.5t70 4.5q48 0 80.5 -9.5t52 -26.5t30 -47.5t14 -64t3.5 -85.5q0 -26 -8 -37t-32 -11h-243q1 -95 22 -121t95 -26q34 0 66.5 5t52.5 9.5t24 4.5q16 0 16 -39
q0 -21 -5.5 -29.5t-20.5 -13.5q-58 -21 -141 -21zM247 421q-57 0 -77.5 -25t-23.5 -111h190q0 80 -14.5 108t-74.5 28zM245 630h-5l-45 -68q-10 -14 -20 -18.5t-33 -4.5q-34 0 -34 18q0 8 11 29l57 94q6 12 15 16.5t31 4.5h40q22 0 31 -4.5t16 -16.5l56 -94q11 -18 11 -29
q0 -18 -34 -18q-22 0 -32 4.5t-20 18.5z" />
    <glyph glyph-name="edieresis" unicode="&#xeb;" horiz-adv-x="471" 
d="M255 -10q-47 0 -77 5t-57 19.5t-41.5 42.5t-23 73t-8.5 111q0 70 9.5 118t24.5 76t42.5 43t54.5 19.5t70 4.5q48 0 80.5 -9.5t52 -26.5t30 -47.5t14 -64t3.5 -85.5q0 -26 -8 -37t-32 -11h-243q1 -95 22 -121t95 -26q34 0 66.5 5t52.5 9.5t24 4.5q16 0 16 -39
q0 -21 -5.5 -29.5t-20.5 -13.5q-58 -21 -141 -21zM247 421q-57 0 -77.5 -25t-23.5 -111h190q0 80 -14.5 108t-74.5 28zM165 562q-32 0 -41.5 7t-9.5 30v19q0 22 9.5 29t41.5 7t41.5 -7t9.5 -29v-19q0 -23 -9.5 -30t-41.5 -7zM321 562q-32 0 -41.5 7t-9.5 30v19q0 22 9.5 29
t41.5 7t41 -7t9 -29v-19q0 -23 -9 -30t-41 -7z" />
    <glyph glyph-name="igrave" unicode="&#xec;" horiz-adv-x="214" 
d="M123 539q-19 0 -30 3.5t-15 7.5t-11 15l-52 82q-15 28 -15 36q0 18 54 18q31 0 40 -5.5t19 -25.5l41 -83q10 -20 10 -31q0 -17 -41 -17zM105 0q-29 0 -39 5.5t-10 24.5v432q0 19 10 24.5t39 5.5t38.5 -5.5t9.5 -24.5v-432q0 -19 -9.5 -24.5t-38.5 -5.5z" />
    <glyph glyph-name="iacute" unicode="&#xed;" horiz-adv-x="214" 
d="M88 539q-41 0 -41 18q0 8 11 30l41 83q10 20 19 25.5t40 5.5q53 0 53 -18q0 -12 -15 -36l-51 -82q-7 -11 -11 -15t-15 -7.5t-31 -3.5zM105 0q-29 0 -39 5.5t-10 24.5v432q0 19 10 24.5t39 5.5t38.5 -5.5t9.5 -24.5v-432q0 -19 -9.5 -24.5t-38.5 -5.5z" />
    <glyph glyph-name="icircumflex" unicode="&#xee;" horiz-adv-x="214" 
d="M106 0q-29 0 -39 5.5t-10 24.5v432q0 19 10 24.5t39 5.5t38.5 -5.5t9.5 -24.5v-432q0 -19 -9.5 -24.5t-38.5 -5.5zM109 630h-5l-45 -68q-10 -14 -20 -18.5t-33 -4.5q-34 0 -34 18q0 8 11 29l57 94q6 12 15 16.5t31 4.5h40q22 0 31 -4.5t16 -16.5l56 -94q11 -18 11 -29
q0 -18 -34 -18q-22 0 -32 4.5t-20 18.5z" />
    <glyph glyph-name="idieresis" unicode="&#xef;" horiz-adv-x="214" 
d="M29 562q-32 0 -41.5 7t-9.5 30v19q0 22 9.5 29t41.5 7t41.5 -7t9.5 -29v-19q0 -23 -9.5 -30t-41.5 -7zM185 562q-32 0 -41.5 7t-9.5 30v19q0 22 9.5 29t41.5 7t41 -7t9 -29v-19q0 -23 -9 -30t-41 -7zM105 0q-29 0 -39 5.5t-10 24.5v432q0 19 10 24.5t39 5.5t38.5 -5.5
t9.5 -24.5v-432q0 -19 -9.5 -24.5t-38.5 -5.5z" />
    <glyph glyph-name="eth" unicode="&#xf0;" horiz-adv-x="500" 
d="M427 592q0 -11 -14 -15l-43 -11q81 -156 81 -314q0 -154 -46 -208t-163 -54q-78 0 -117.5 19.5t-58 73t-18.5 159.5t18.5 163t52.5 77t96 20q65 0 98 -27q-10 29 -28 69l-44 -11q-10 -2 -13 -2q-12 0 -16 18q-4 13 -4 24t13 15l37 9q-19 35 -19 48q0 19 36 19
q21 0 29.5 -3t14.5 -13l21 -30l54 14q10 2 13 2q9 0 15 -19q5 -15 5 -23zM244 72q68 0 88.5 32.5t20.5 138.5q0 111 -20 144t-79 33q-71 0 -89 -29t-18 -140q0 -116 17 -147.5t80 -31.5z" />
    <glyph glyph-name="ntilde" unicode="&#xf1;" horiz-adv-x="512" 
d="M117 0q-29 0 -39 5.5t-10 24.5v271q0 46 -5.5 83.5t-11 58.5t-5.5 26q0 12 9 17.5t36 5.5q26 0 34.5 -4.5t12.5 -21.5l14 -57q39 93 165 93q78 0 107 -31.5t29 -102.5v-338q0 -19 -9.5 -24.5t-38.5 -5.5t-38.5 5.5t-9.5 24.5v315q0 42 -15 57.5t-59 15.5q-65 0 -91.5 -38
t-26.5 -128v-222q0 -19 -9.5 -24.5t-38.5 -5.5zM126 596q0 20 5 28.5t19 17.5q30 18 62 18q23 0 57 -10t50 -10q21 0 42 9t24 9q8 0 11 -6.5t3 -27.5q0 -19 -5.5 -28t-19.5 -18q-27 -18 -62 -18q-22 0 -56 10t-51 10q-20 0 -41 -9t-24 -9q-8 0 -11 6.5t-3 27.5z" />
    <glyph glyph-name="ograve" unicode="&#xf2;" horiz-adv-x="500" 
d="M242 -10q-78 0 -117.5 19.5t-58 73t-18.5 159.5q0 153 46 206.5t164 53.5q78 0 117 -19t57.5 -72t18.5 -159q0 -154 -46 -208t-163 -54zM244 72q68 0 88.5 32.5t20.5 138.5q0 115 -17.5 146t-81.5 31q-67 0 -87 -32t-20 -137q0 -116 17 -147.5t80 -31.5zM272 539
q-19 0 -30 3.5t-15 7.5t-11 15l-52 82q-15 28 -15 36q0 18 54 18q31 0 40 -5.5t19 -25.5l41 -83q10 -20 10 -31q0 -17 -41 -17z" />
    <glyph glyph-name="oacute" unicode="&#xf3;" horiz-adv-x="500" 
d="M242 -10q-78 0 -117.5 19.5t-58 73t-18.5 159.5q0 153 46 206.5t164 53.5q78 0 117 -19t57.5 -72t18.5 -159q0 -154 -46 -208t-163 -54zM244 72q68 0 88.5 32.5t20.5 138.5q0 115 -17.5 146t-81.5 31q-67 0 -87 -32t-20 -137q0 -116 17 -147.5t80 -31.5zM228 539
q-41 0 -41 18q0 8 11 30l41 83q10 20 19 25.5t40 5.5q53 0 53 -18q0 -12 -15 -36l-51 -82q-7 -11 -11 -15t-15 -7.5t-31 -3.5z" />
    <glyph glyph-name="ocircumflex" unicode="&#xf4;" horiz-adv-x="500" 
d="M242 -10q-78 0 -117.5 19.5t-58 73t-18.5 159.5q0 153 46 206.5t164 53.5q78 0 117 -19t57.5 -72t18.5 -159q0 -154 -46 -208t-163 -54zM244 72q68 0 88.5 32.5t20.5 138.5q0 115 -17.5 146t-81.5 31q-67 0 -87 -32t-20 -137q0 -116 17 -147.5t80 -31.5zM253 630h-5
l-45 -68q-10 -14 -20 -18.5t-33 -4.5q-34 0 -34 18q0 8 11 29l57 94q6 12 15 16.5t31 4.5h40q22 0 31 -4.5t16 -16.5l56 -94q11 -18 11 -29q0 -18 -34 -18q-22 0 -32 4.5t-20 18.5z" />
    <glyph glyph-name="otilde" unicode="&#xf5;" horiz-adv-x="500" 
d="M242 -10q-78 0 -117.5 19.5t-58 73t-18.5 159.5q0 153 46 206.5t164 53.5q78 0 117 -19t57.5 -72t18.5 -159q0 -154 -46 -208t-163 -54zM244 72q68 0 88.5 32.5t20.5 138.5q0 115 -17.5 146t-81.5 31q-67 0 -87 -32t-20 -137q0 -116 17 -147.5t80 -31.5zM114 596
q0 20 5 28.5t19 17.5q30 18 62 18q23 0 57 -10t50 -10q21 0 42 9t24 9q8 0 11 -6.5t3 -27.5q0 -19 -5.5 -28t-19.5 -18q-27 -18 -62 -18q-22 0 -56 10t-51 10q-20 0 -41 -9t-24 -9q-8 0 -11 6.5t-3 27.5z" />
    <glyph glyph-name="odieresis" unicode="&#xf6;" horiz-adv-x="500" 
d="M242 -10q-78 0 -117.5 19.5t-58 73t-18.5 159.5q0 153 46 206.5t164 53.5q78 0 117 -19t57.5 -72t18.5 -159q0 -154 -46 -208t-163 -54zM244 72q68 0 88.5 32.5t20.5 138.5q0 115 -17.5 146t-81.5 31q-67 0 -87 -32t-20 -137q0 -116 17 -147.5t80 -31.5zM172 562
q-32 0 -41.5 7t-9.5 30v19q0 22 9.5 29t41.5 7t41.5 -7t9.5 -29v-19q0 -23 -9.5 -30t-41.5 -7zM328 562q-32 0 -41.5 7t-9.5 30v19q0 22 9.5 29t41.5 7t41 -7t9 -29v-19q0 -23 -9 -30t-41 -7z" />
    <glyph glyph-name="divide" unicode="&#xf7;" 
d="M85 269q0 26 5 32.5t22 6.5h239q18 0 23 -6.5t5 -32.5t-5 -32.5t-23 -6.5h-239q-17 0 -22 6.5t-5 32.5zM232 369q-27 0 -35 5.5t-8 23.5v30q0 19 8.5 24.5t34.5 5.5q27 0 35 -5.5t8 -24.5v-30q0 -19 -8 -24t-35 -5zM232 66q-27 0 -35 5.5t-8 23.5v30q0 19 8.5 24.5
t34.5 5.5q27 0 35 -5.5t8 -24.5v-30q0 -19 -8 -24t-35 -5z" />
    <glyph glyph-name="oslash" unicode="&#xf8;" horiz-adv-x="500" 
d="M242 -10q-78 0 -117.5 19.5t-58 73t-18.5 159.5q0 153 46 206.5t164 53.5q78 0 117 -19t57.5 -72t18.5 -159q0 -154 -46 -208t-163 -54zM244 72q68 0 88.5 32.5t20.5 138.5q0 48 -3 81l-186 -220q18 -32 80 -32zM147 251q0 -58 2 -80l185 219q-18 30 -80 30
q-67 0 -87 -32t-20 -137z" />
    <glyph glyph-name="ugrave" unicode="&#xf9;" horiz-adv-x="503" 
d="M191 -10q-77 0 -106 30t-29 100v342q0 19 10 24.5t39 5.5t38.5 -5.5t9.5 -24.5v-319q0 -41 14.5 -55t59.5 -14q65 0 91 38t26 128v222q0 19 9.5 24.5t38.5 5.5t39 -5.5t10 -24.5v-271q0 -46 5.5 -83.5t11 -58.5t5.5 -26q0 -12 -9 -17.5t-37 -5.5q-25 0 -33.5 4.5
t-12.5 21.5l-14 53q-39 -89 -166 -89zM268 539q-19 0 -30 3.5t-15 7.5t-11 15l-52 82q-15 28 -15 36q0 18 54 18q31 0 40 -5.5t19 -25.5l41 -83q10 -20 10 -31q0 -17 -41 -17z" />
    <glyph glyph-name="uacute" unicode="&#xfa;" horiz-adv-x="503" 
d="M191 -10q-77 0 -106 30t-29 100v342q0 19 10 24.5t39 5.5t38.5 -5.5t9.5 -24.5v-319q0 -41 14.5 -55t59.5 -14q65 0 91 38t26 128v222q0 19 9.5 24.5t38.5 5.5t39 -5.5t10 -24.5v-271q0 -46 5.5 -83.5t11 -58.5t5.5 -26q0 -12 -9 -17.5t-37 -5.5q-25 0 -33.5 4.5
t-12.5 21.5l-14 53q-39 -89 -166 -89zM229 539q-41 0 -41 18q0 8 11 30l41 83q10 20 19 25.5t40 5.5q53 0 53 -18q0 -12 -15 -36l-51 -82q-7 -11 -11 -15t-15 -7.5t-31 -3.5z" />
    <glyph glyph-name="ucircumflex" unicode="&#xfb;" horiz-adv-x="503" 
d="M191 -10q-77 0 -106 30t-29 100v342q0 19 10 24.5t39 5.5t38.5 -5.5t9.5 -24.5v-319q0 -41 14.5 -55t59.5 -14q65 0 91 38t26 128v222q0 19 9.5 24.5t38.5 5.5t39 -5.5t10 -24.5v-271q0 -46 5.5 -83.5t11 -58.5t5.5 -26q0 -12 -9 -17.5t-37 -5.5q-25 0 -33.5 4.5
t-12.5 21.5l-14 53q-39 -89 -166 -89zM252 630h-5l-45 -68q-10 -14 -20 -18.5t-33 -4.5q-34 0 -34 18q0 8 11 29l57 94q6 12 15 16.5t31 4.5h40q22 0 31 -4.5t16 -16.5l56 -94q11 -18 11 -29q0 -18 -34 -18q-22 0 -32 4.5t-20 18.5z" />
    <glyph glyph-name="udieresis" unicode="&#xfc;" horiz-adv-x="503" 
d="M191 -10q-77 0 -106 30t-29 100v342q0 19 10 24.5t39 5.5t38.5 -5.5t9.5 -24.5v-319q0 -41 14.5 -55t59.5 -14q65 0 91 38t26 128v222q0 19 9.5 24.5t38.5 5.5t39 -5.5t10 -24.5v-271q0 -46 5.5 -83.5t11 -58.5t5.5 -26q0 -12 -9 -17.5t-37 -5.5q-25 0 -33.5 4.5
t-12.5 21.5l-14 53q-39 -89 -166 -89zM171 562q-32 0 -41.5 7t-9.5 30v19q0 22 9.5 29t41.5 7t41.5 -7t9.5 -29v-19q0 -23 -9.5 -30t-41.5 -7zM327 562q-32 0 -41.5 7t-9.5 30v19q0 22 9.5 29t41.5 7t41 -7t9 -29v-19q0 -23 -9 -30t-41 -7z" />
    <glyph glyph-name="yacute" unicode="&#xfd;" horiz-adv-x="461" 
d="M22 467q0 13 9.5 19t40.5 6q29 0 39 -4.5t14 -20.5l100 -384h9l102 384q4 16 13.5 20.5t38.5 4.5q31 0 41.5 -5.5t10.5 -18.5q0 -16 -14 -61l-136 -448q-27 -91 -55.5 -122t-96.5 -31q-50 0 -88 12q-14 4 -19.5 12t-5.5 28q0 40 18 40q2 0 29.5 -4t54.5 -4q35 0 49 11.5
t23 46.5l13 52q-33 1 -46.5 11.5t-22.5 38.5l-105 344q-16 52 -16 73zM212 539q-41 0 -41 18q0 8 11 30l41 83q10 20 19 25.5t40 5.5q53 0 53 -18q0 -12 -15 -36l-51 -82q-7 -11 -11 -15t-15 -7.5t-31 -3.5z" />
    <glyph glyph-name="thorn" unicode="&#xfe;" horiz-adv-x="525" 
d="M165 624v-183q44 61 145 61t134 -51t33 -201q0 -108 -21 -165.5t-58.5 -76t-105.5 -18.5q-96 0 -127 54v-202q0 -19 -9.5 -24.5t-38.5 -5.5t-39 5.5t-10 24.5v782q0 19 10 24.5t39 5.5t38.5 -5.5t9.5 -24.5zM272 72q45 0 66 13t30.5 50.5t9.5 116.5q0 106 -17.5 137
t-77.5 31q-64 0 -92 -30.5t-28 -120.5v-55q0 -83 21.5 -112.5t87.5 -29.5z" />
    <glyph glyph-name="ydieresis" unicode="&#xff;" horiz-adv-x="461" 
d="M22 467q0 13 9.5 19t40.5 6q29 0 39 -4.5t14 -20.5l100 -384h9l102 384q4 16 13.5 20.5t38.5 4.5q31 0 41.5 -5.5t10.5 -18.5q0 -16 -14 -61l-136 -448q-27 -91 -55.5 -122t-96.5 -31q-50 0 -88 12q-14 4 -19.5 12t-5.5 28q0 40 18 40q2 0 29.5 -4t54.5 -4q35 0 49 11.5
t23 46.5l13 52q-33 1 -46.5 11.5t-22.5 38.5l-105 344q-16 52 -16 73zM154 562q-32 0 -41.5 7t-9.5 30v19q0 22 9.5 29t41.5 7t41.5 -7t9.5 -29v-19q0 -23 -9.5 -30t-41.5 -7zM310 562q-32 0 -41.5 7t-9.5 30v19q0 22 9.5 29t41.5 7t41 -7t9 -29v-19q0 -23 -9 -30t-41 -7z
" />
    <glyph glyph-name="Amacron" unicode="&#x100;" horiz-adv-x="523" 
d="M62 0q-28 0 -37 5t-9 18q0 8 6 29l149 522q8 29 24 36.5t67 7.5q50 0 66 -7.5t24 -36.5l149 -522q6 -21 6 -29q0 -13 -9 -18t-37 -5q-30 0 -40 5.5t-15 21.5l-43 150h-206l-40 -150q-5 -17 -14.5 -22t-40.5 -5zM255 535l-77 -282h167l-77 282h-13zM154 731q0 26 5.5 34
t22.5 8h159q17 0 22 -8t5 -34q0 -25 -5 -33t-22 -8h-159q-17 0 -22.5 8t-5.5 33z" />
    <glyph glyph-name="amacron" unicode="&#x101;" horiz-adv-x="486" 
d="M167 -10q-67 0 -98 33.5t-31 109.5q0 78 41 111.5t144 33.5h99v65q0 49 -18.5 62.5t-69.5 13.5q-45 0 -95.5 -9t-52.5 -9q-18 0 -18 39q0 21 5 29.5t17 12.5q66 20 154 20q95 0 134.5 -27t39.5 -110v-174q0 -46 5 -83.5t10.5 -58.5t5.5 -26q0 -12 -9 -17.5t-36 -5.5
q-25 0 -33.5 4.5t-12.5 21.5l-16 60q-42 -96 -165 -96zM199 70q52 0 87.5 29.5t35.5 84.5v33l-101 -3q-54 -2 -72 -16.5t-18 -54.5q0 -45 15 -59t53 -14zM129 608q0 26 5.5 34t22.5 8h159q17 0 22 -8t5 -34q0 -25 -5 -33t-22 -8h-159q-17 0 -22.5 8t-5.5 33z" />
    <glyph glyph-name="Abreve" unicode="&#x102;" horiz-adv-x="523" 
d="M62 0q-28 0 -37 5t-9 18q0 8 6 29l149 522q8 29 24 36.5t67 7.5q50 0 66 -7.5t24 -36.5l149 -522q6 -21 6 -29q0 -13 -9 -18t-37 -5q-30 0 -40 5.5t-15 21.5l-43 150h-206l-40 -150q-5 -17 -14.5 -22t-40.5 -5zM255 535l-77 -282h167l-77 282h-13zM262 672
q-67 0 -91 22.5t-24 79.5q0 19 6.5 24.5t29.5 5.5q22 0 28 -4.5t7 -20.5q1 -15 3.5 -21.5t11.5 -10t29 -3.5q28 0 35 6.5t8 28.5q1 16 7.5 20.5t28.5 4.5q23 0 29 -5.5t6 -24.5q0 -57 -23.5 -79.5t-90.5 -22.5z" />
    <glyph glyph-name="abreve" unicode="&#x103;" horiz-adv-x="486" 
d="M167 -10q-67 0 -98 33.5t-31 109.5q0 78 41 111.5t144 33.5h99v65q0 49 -18.5 62.5t-69.5 13.5q-45 0 -95.5 -9t-52.5 -9q-18 0 -18 39q0 21 5 29.5t17 12.5q66 20 154 20q95 0 134.5 -27t39.5 -110v-174q0 -46 5 -83.5t10.5 -58.5t5.5 -26q0 -12 -9 -17.5t-36 -5.5
q-25 0 -33.5 4.5t-12.5 21.5l-16 60q-42 -96 -165 -96zM199 70q52 0 87.5 29.5t35.5 84.5v33l-101 -3q-54 -2 -72 -16.5t-18 -54.5q0 -45 15 -59t53 -14zM237 551q-67 0 -91 22.5t-24 79.5q0 19 6.5 24.5t29.5 5.5q22 0 28 -4.5t7 -20.5q1 -15 3.5 -21.5t11.5 -10t29 -3.5
q28 0 35 6.5t8 28.5q1 16 7.5 20.5t28.5 4.5q23 0 29 -5.5t6 -24.5q0 -57 -23.5 -79.5t-90.5 -22.5z" />
    <glyph glyph-name="Aogonek" unicode="&#x104;" horiz-adv-x="523" 
d="M423 -194q-37 0 -55 16.5t-18 55.5q0 59 73 125q-11 4 -17 24l-43 150h-206l-40 -150q-5 -17 -14.5 -22t-40.5 -5q-28 0 -37 5t-9 18q0 8 6 29l149 522q8 29 24 36.5t67 7.5q50 0 66 -7.5t24 -36.5l149 -522q6 -21 6 -29v-4q-2 -17 -27 -47q-39 -45 -39 -67
q0 -13 3.5 -17t13.5 -4q8 0 17 1t13 1q10 0 14.5 -6.5t4.5 -26.5t-5.5 -27t-21.5 -12q-26 -8 -57 -8zM255 535l-77 -282h167l-77 282h-13z" />
    <glyph glyph-name="aogonek" unicode="&#x105;" horiz-adv-x="486" 
d="M359 -194q-37 0 -55 16.5t-18 55.5q0 33 16.5 62t54.5 67q-6 6 -9 19l-16 60q-42 -96 -165 -96q-67 0 -98 33.5t-31 109.5q0 78 41 111.5t144 33.5h99v65q0 49 -18.5 62.5t-69.5 13.5q-45 0 -95.5 -9t-52.5 -9q-18 0 -18 39q0 21 5 29.5t17 12.5q66 20 154 20
q95 0 134.5 -27t39.5 -110v-174q0 -46 5 -83.5t10.5 -58.5t5.5 -26q0 -17 -26 -48q-37 -43 -37 -70q0 -13 3.5 -17t13.5 -4q9 0 17.5 1t12.5 1q10 0 14.5 -6.5t4.5 -26.5t-5.5 -27t-21.5 -12q-26 -8 -56 -8zM199 70q52 0 87.5 29.5t35.5 84.5v33l-101 -3q-54 -2 -72 -16.5
t-18 -54.5q0 -45 15 -59t53 -14z" />
    <glyph glyph-name="Cacute" unicode="&#x106;" horiz-adv-x="452" 
d="M255 -8q-43 0 -70 4t-56.5 19t-46 43t-27 79t-10.5 125v81q0 76 10.5 128.5t27 82.5t46 45.5t57.5 19.5t72 4q67 0 138 -19q14 -4 19 -12t5 -34q0 -38 -17 -38l-43 8q-42 9 -81 9q-45 0 -67.5 -5t-40.5 -26.5t-23.5 -61t-5.5 -110.5v-52q0 -49 2.5 -82.5t10.5 -56.5
t16.5 -35.5t26.5 -19.5t35 -8.5t46 -1.5q41 0 82 8.5t42 8.5q10 0 13.5 -7.5t3.5 -31.5t-5 -32.5t-19 -12.5q-65 -19 -141 -19zM234 662q-41 0 -41 18q0 8 11 30l41 83q10 20 19 25.5t40 5.5q53 0 53 -18q0 -12 -15 -36l-51 -82q-7 -11 -11 -15t-15 -7.5t-31 -3.5z" />
    <glyph glyph-name="cacute" unicode="&#x107;" horiz-adv-x="429" 
d="M245 -10q-55 0 -88 8.5t-59.5 34t-38 76t-11.5 132.5q0 70 9.5 118.5t24.5 76t42 42.5t53.5 19.5t67.5 4.5q65 0 124 -18q15 -5 20.5 -13t5.5 -30q0 -39 -18 -39q-1 0 -46.5 8.5t-75.5 8.5q-45 0 -66 -10t-32 -46t-11 -112q0 -117 18.5 -147t92.5 -30q40 0 81 10l41 9
q16 0 16 -39q0 -21 -5 -29.5t-20 -13.5q-60 -21 -125 -21zM214 539q-41 0 -41 18q0 8 11 30l41 83q10 20 19 25.5t40 5.5q53 0 53 -18q0 -12 -15 -36l-51 -82q-7 -11 -11 -15t-15 -7.5t-31 -3.5z" />
    <glyph glyph-name="Ccircumflex" unicode="&#x108;" horiz-adv-x="452" 
d="M255 -8q-43 0 -70 4t-56.5 19t-46 43t-27 79t-10.5 125v81q0 76 10.5 128.5t27 82.5t46 45.5t57.5 19.5t72 4q67 0 138 -19q14 -4 19 -12t5 -34q0 -38 -17 -38l-43 8q-42 9 -81 9q-45 0 -67.5 -5t-40.5 -26.5t-23.5 -61t-5.5 -110.5v-52q0 -49 2.5 -82.5t10.5 -56.5
t16.5 -35.5t26.5 -19.5t35 -8.5t46 -1.5q41 0 82 8.5t42 8.5q10 0 13.5 -7.5t3.5 -31.5t-5 -32.5t-19 -12.5q-65 -19 -141 -19zM247 753h-5l-45 -68q-10 -14 -20 -18.5t-33 -4.5q-34 0 -34 18q0 8 11 29l57 94q6 12 15 16.5t31 4.5h40q22 0 31 -4.5t16 -16.5l56 -94
q11 -18 11 -29q0 -18 -34 -18q-22 0 -32 4.5t-20 18.5z" />
    <glyph glyph-name="ccircumflex" unicode="&#x109;" horiz-adv-x="429" 
d="M245 -10q-55 0 -88 8.5t-59.5 34t-38 76t-11.5 132.5q0 70 9.5 118.5t24.5 76t42 42.5t53.5 19.5t67.5 4.5q65 0 124 -18q15 -5 20.5 -13t5.5 -30q0 -39 -18 -39q-1 0 -46.5 8.5t-75.5 8.5q-45 0 -66 -10t-32 -46t-11 -112q0 -117 18.5 -147t92.5 -30q40 0 81 10l41 9
q16 0 16 -39q0 -21 -5 -29.5t-20 -13.5q-60 -21 -125 -21zM241 630h-5l-45 -68q-10 -14 -20 -18.5t-33 -4.5q-34 0 -34 18q0 8 11 29l57 94q6 12 15 16.5t31 4.5h40q22 0 31 -4.5t16 -16.5l56 -94q11 -18 11 -29q0 -18 -34 -18q-22 0 -32 4.5t-20 18.5z" />
    <glyph glyph-name="Cdotaccent" unicode="&#x10a;" horiz-adv-x="452" 
d="M255 -8q-43 0 -70 4t-56.5 19t-46 43t-27 79t-10.5 125v81q0 76 10.5 128.5t27 82.5t46 45.5t57.5 19.5t72 4q67 0 138 -19q14 -4 19 -12t5 -34q0 -38 -17 -38l-43 8q-42 9 -81 9q-45 0 -67.5 -5t-40.5 -26.5t-23.5 -61t-5.5 -110.5v-52q0 -49 2.5 -82.5t10.5 -56.5
t16.5 -35.5t26.5 -19.5t35 -8.5t46 -1.5q41 0 82 8.5t42 8.5q10 0 13.5 -7.5t3.5 -31.5t-5 -32.5t-19 -12.5q-65 -19 -141 -19zM243 685q-34 0 -43.5 7t-9.5 30v19q0 22 9.5 29t43.5 7q35 0 44.5 -7t9.5 -29v-19q0 -23 -9.5 -30t-44.5 -7z" />
    <glyph glyph-name="cdotaccent" unicode="&#x10b;" horiz-adv-x="429" 
d="M245 -10q-55 0 -88 8.5t-59.5 34t-38 76t-11.5 132.5q0 70 9.5 118.5t24.5 76t42 42.5t53.5 19.5t67.5 4.5q65 0 124 -18q15 -5 20.5 -13t5.5 -30q0 -39 -18 -39q-1 0 -46.5 8.5t-75.5 8.5q-45 0 -66 -10t-32 -46t-11 -112q0 -117 18.5 -147t92.5 -30q40 0 81 10l41 9
q16 0 16 -39q0 -21 -5 -29.5t-20 -13.5q-60 -21 -125 -21zM237 562q-34 0 -43.5 7t-9.5 30v19q0 22 9.5 29t43.5 7q35 0 44.5 -7t9.5 -29v-19q0 -23 -9.5 -30t-44.5 -7z" />
    <glyph glyph-name="Ccaron" unicode="&#x10c;" horiz-adv-x="452" 
d="M255 -8q-43 0 -70 4t-56.5 19t-46 43t-27 79t-10.5 125v81q0 76 10.5 128.5t27 82.5t46 45.5t57.5 19.5t72 4q67 0 138 -19q14 -4 19 -12t5 -34q0 -38 -17 -38l-43 8q-42 9 -81 9q-45 0 -67.5 -5t-40.5 -26.5t-23.5 -61t-5.5 -110.5v-52q0 -49 2.5 -82.5t10.5 -56.5
t16.5 -35.5t26.5 -19.5t35 -8.5t46 -1.5q41 0 82 8.5t42 8.5q10 0 13.5 -7.5t3.5 -31.5t-5 -32.5t-19 -12.5q-65 -19 -141 -19zM102 807q0 17 34 17q24 0 34 -4t19 -18l45 -69h5l44 69q10 13 20 17.5t33 4.5q34 0 34 -17q0 -11 -11 -29l-56 -95q-12 -21 -47 -21h-40
q-22 0 -30.5 4.5t-15.5 16.5l-57 95q-11 18 -11 29z" />
    <glyph glyph-name="ccaron" unicode="&#x10d;" horiz-adv-x="429" 
d="M245 -10q-55 0 -88 8.5t-59.5 34t-38 76t-11.5 132.5q0 70 9.5 118.5t24.5 76t42 42.5t53.5 19.5t67.5 4.5q65 0 124 -18q15 -5 20.5 -13t5.5 -30q0 -39 -18 -39q-1 0 -46.5 8.5t-75.5 8.5q-45 0 -66 -10t-32 -46t-11 -112q0 -117 18.5 -147t92.5 -30q40 0 81 10l41 9
q16 0 16 -39q0 -21 -5 -29.5t-20 -13.5q-60 -21 -125 -21zM104 684q0 17 34 17q24 0 34 -4t19 -18l45 -69h5l44 69q10 13 20 17.5t33 4.5q34 0 34 -17q0 -11 -11 -29l-56 -95q-12 -21 -47 -21h-40q-22 0 -30.5 4.5t-15.5 16.5l-57 95q-11 18 -11 29z" />
    <glyph glyph-name="Dcaron" unicode="&#x10e;" horiz-adv-x="526" 
d="M251 78q43 0 65 5t39.5 26t23 61t5.5 112v62q0 67 -6.5 105t-25 59t-43 26.5t-70.5 5.5q-42 0 -84 -4v-454q50 -4 96 -4zM251 -8q-85 0 -158 8q-21 2 -28 9.5t-7 24.5v545q0 18 7.5 26t24.5 10q58 8 146 8q46 0 75.5 -2.5t60.5 -12t48.5 -27.5t33 -48.5t21.5 -76
t6 -109.5v-65q0 -79 -11.5 -133.5t-28.5 -85t-49.5 -47t-62.5 -20.5t-78 -4zM123 807q0 17 34 17q24 0 34 -4t19 -18l45 -69h5l44 69q10 13 20 17.5t33 4.5q34 0 34 -17q0 -11 -11 -29l-56 -95q-12 -21 -47 -21h-40q-22 0 -30.5 4.5t-15.5 16.5l-57 95q-11 18 -11 29z" />
    <glyph glyph-name="dcaron" unicode="&#x10f;" horiz-adv-x="649" 
d="M216 -10q-101 0 -134.5 51t-33.5 201q0 108 21 165.5t58.5 76t105.5 18.5q97 0 127 -57v179q0 19 10 24.5t39 5.5t38.5 -5.5t9.5 -24.5v-433q0 -46 5.5 -83.5t11 -58.5t5.5 -26q0 -12 -9 -17.5t-36 -5.5q-26 0 -34 4.5t-13 21.5l-13 49q-36 -85 -158 -85zM243 72
q64 0 91.5 28t27.5 112v66q0 83 -21.5 112.5t-86.5 29.5q-66 0 -86.5 -32.5t-20.5 -147.5q0 -106 18 -137t78 -31zM574 654q32 0 41 -7t9 -29v-27q0 -36 -15 -84l-16 -55q-8 -21 -17.5 -27t-33.5 -6q-19 0 -25 4t-6 14q0 6 7 51t7 74v56q0 22 9 29t40 7z" />
    <glyph glyph-name="Dcroat" unicode="&#x110;" horiz-adv-x="526" 
d="M251 -8q-85 0 -158 8q-21 2 -28 9.5t-7 24.5v236h-26q-17 0 -22.5 8t-5.5 35q0 26 5.5 34.5t22.5 8.5h26v223q0 18 7.5 26t24.5 10q58 8 146 8q46 0 75.5 -2.5t60.5 -12t48.5 -27.5t33 -48.5t21.5 -76t6 -109.5v-65q0 -79 -11.5 -133.5t-28.5 -85t-49.5 -47t-62.5 -20.5
t-78 -4zM251 78q43 0 65 5t39.5 26t23 61t5.5 112v62q0 67 -6.5 105t-25 59t-43 26.5t-70.5 5.5q-42 0 -84 -4v-182h71q17 0 22 -8t5 -33q0 -26 -5 -34t-22 -8h-71v-189q50 -4 96 -4z" />
    <glyph glyph-name="dcroat" unicode="&#x111;" horiz-adv-x="519" 
d="M216 -10q-101 0 -134.5 51t-33.5 201q0 108 21 165.5t58.5 76t105.5 18.5q97 0 127 -57v86h-32q-14 0 -19 6t-5 24q0 19 5 25t19 6h32v32q0 19 10 24.5t39 5.5t38.5 -5.5t9.5 -24.5v-32h40q15 0 19.5 -6t4.5 -26q0 -19 -4.5 -25t-19.5 -6h-40v-338q0 -46 5.5 -83.5
t11 -58.5t5.5 -26q0 -12 -9 -17.5t-36 -5.5q-26 0 -34 4.5t-13 21.5l-13 49q-36 -85 -158 -85zM243 72q64 0 91.5 28t27.5 112v66q0 83 -21.5 112.5t-86.5 29.5q-66 0 -86.5 -32.5t-20.5 -147.5q0 -106 18 -137t78 -31z" />
    <glyph glyph-name="Emacron" unicode="&#x112;" horiz-adv-x="455" 
d="M428 43q0 -26 -6 -34.5t-22 -8.5h-309q-20 0 -26.5 5.5t-6.5 22.5v562q0 17 6.5 22.5t26.5 5.5h299q16 0 22 -9t6 -35t-6 -34.5t-22 -8.5h-235v-163h177q17 0 22.5 -8t5.5 -35q0 -26 -5.5 -34t-22.5 -8h-177v-196h245q16 0 22 -9t6 -35zM133 731q0 26 5.5 34t22.5 8h159
q17 0 22 -8t5 -34q0 -25 -5 -33t-22 -8h-159q-17 0 -22.5 8t-5.5 33z" />
    <glyph glyph-name="emacron" unicode="&#x113;" horiz-adv-x="471" 
d="M255 -10q-47 0 -77 5t-57 19.5t-41.5 42.5t-23 73t-8.5 111q0 70 9.5 118t24.5 76t42.5 43t54.5 19.5t70 4.5q48 0 80.5 -9.5t52 -26.5t30 -47.5t14 -64t3.5 -85.5q0 -26 -8 -37t-32 -11h-243q1 -95 22 -121t95 -26q34 0 66.5 5t52.5 9.5t24 4.5q16 0 16 -39
q0 -21 -5.5 -29.5t-20.5 -13.5q-58 -21 -141 -21zM247 421q-57 0 -77.5 -25t-23.5 -111h190q0 80 -14.5 108t-74.5 28zM135 608q0 26 5.5 34t22.5 8h159q17 0 22 -8t5 -34q0 -25 -5 -33t-22 -8h-159q-17 0 -22.5 8t-5.5 33z" />
    <glyph glyph-name="Ebreve" unicode="&#x114;" horiz-adv-x="455" 
d="M428 43q0 -26 -6 -34.5t-22 -8.5h-309q-20 0 -26.5 5.5t-6.5 22.5v562q0 17 6.5 22.5t26.5 5.5h299q16 0 22 -9t6 -35t-6 -34.5t-22 -8.5h-235v-163h177q17 0 22.5 -8t5.5 -35q0 -26 -5.5 -34t-22.5 -8h-177v-196h245q16 0 22 -9t6 -35zM241 678q-67 0 -91 22.5t-24 79.5
q0 19 6.5 24.5t29.5 5.5q22 0 28 -4.5t7 -20.5q1 -15 3.5 -21.5t11.5 -10t29 -3.5q28 0 35 6.5t8 28.5q1 16 7.5 20.5t28.5 4.5q23 0 29 -5.5t6 -24.5q0 -57 -23.5 -79.5t-90.5 -22.5z" />
    <glyph glyph-name="ebreve" unicode="&#x115;" horiz-adv-x="471" 
d="M255 -10q-47 0 -77 5t-57 19.5t-41.5 42.5t-23 73t-8.5 111q0 70 9.5 118t24.5 76t42.5 43t54.5 19.5t70 4.5q48 0 80.5 -9.5t52 -26.5t30 -47.5t14 -64t3.5 -85.5q0 -26 -8 -37t-32 -11h-243q1 -95 22 -121t95 -26q34 0 66.5 5t52.5 9.5t24 4.5q16 0 16 -39
q0 -21 -5.5 -29.5t-20.5 -13.5q-58 -21 -141 -21zM247 421q-57 0 -77.5 -25t-23.5 -111h190q0 80 -14.5 108t-74.5 28zM242 551q-67 0 -91 22.5t-24 79.5q0 19 6.5 24.5t29.5 5.5q22 0 28 -4.5t7 -20.5q1 -15 3.5 -21.5t11.5 -10t29 -3.5q28 0 35 6.5t8 28.5q1 16 7.5 20.5
t28.5 4.5q23 0 29 -5.5t6 -24.5q0 -57 -23.5 -79.5t-90.5 -22.5z" />
    <glyph glyph-name="Edotaccent" unicode="&#x116;" horiz-adv-x="455" 
d="M428 43q0 -26 -6 -34.5t-22 -8.5h-309q-20 0 -26.5 5.5t-6.5 22.5v562q0 17 6.5 22.5t26.5 5.5h299q16 0 22 -9t6 -35t-6 -34.5t-22 -8.5h-235v-163h177q17 0 22.5 -8t5.5 -35q0 -26 -5.5 -34t-22.5 -8h-177v-196h245q16 0 22 -9t6 -35zM240 687q-34 0 -43.5 7t-9.5 30
v19q0 22 9.5 29t43.5 7q35 0 44.5 -7t9.5 -29v-19q0 -23 -9.5 -30t-44.5 -7z" />
    <glyph glyph-name="edotaccent" unicode="&#x117;" horiz-adv-x="471" 
d="M255 -10q-47 0 -77 5t-57 19.5t-41.5 42.5t-23 73t-8.5 111q0 70 9.5 118t24.5 76t42.5 43t54.5 19.5t70 4.5q48 0 80.5 -9.5t52 -26.5t30 -47.5t14 -64t3.5 -85.5q0 -26 -8 -37t-32 -11h-243q1 -95 22 -121t95 -26q34 0 66.5 5t52.5 9.5t24 4.5q16 0 16 -39
q0 -21 -5.5 -29.5t-20.5 -13.5q-58 -21 -141 -21zM247 421q-57 0 -77.5 -25t-23.5 -111h190q0 80 -14.5 108t-74.5 28zM242 562q-34 0 -43.5 7t-9.5 30v19q0 22 9.5 29t43.5 7q35 0 44.5 -7t9.5 -29v-19q0 -23 -9.5 -30t-44.5 -7z" />
    <glyph glyph-name="Eogonek" unicode="&#x118;" horiz-adv-x="455" 
d="M360 325q0 -26 -5.5 -34t-22.5 -8h-177v-196h245q16 0 22 -8.5t6 -34.5q0 -37 -28 -70q-39 -48 -39 -69q0 -13 3.5 -17t14.5 -4q8 0 17 1t13 1q10 0 14.5 -6.5t4.5 -26.5t-5.5 -27t-21.5 -12q-26 -8 -57 -8q-37 0 -55 16.5t-18 55.5q0 33 16 60t51 62h-247
q-20 0 -26.5 5.5t-6.5 22.5v562q0 17 6.5 22.5t26.5 5.5h299q16 0 22 -9t6 -35t-6 -34.5t-22 -8.5h-235v-163h177q17 0 22.5 -8t5.5 -35z" />
    <glyph glyph-name="eogonek" unicode="&#x119;" horiz-adv-x="471" 
d="M338 -194q-37 0 -55 16.5t-18 55.5q0 55 59 117q-40 -5 -69 -5q-47 0 -77 5t-57 19.5t-41.5 42.5t-23 73t-8.5 111q0 70 9.5 118t24.5 76t42.5 43t54.5 19.5t70 4.5q48 0 80.5 -9.5t52 -26.5t30 -47.5t14 -64t3.5 -85.5q0 -26 -8 -37t-32 -11h-243q1 -95 22 -121t95 -26
q34 0 66.5 5t52.5 9.5t24 4.5q16 0 16 -39q0 -22 -6.5 -37t-26.5 -43q-34 -47 -34 -69q0 -13 3.5 -17t13.5 -4q9 0 18 1t13 1q10 0 14.5 -6.5t4.5 -26.5t-6 -27t-22 -12q-24 -8 -56 -8zM247 421q-57 0 -77.5 -25t-23.5 -111h190q0 80 -14.5 108t-74.5 28z" />
    <glyph glyph-name="Ecaron" unicode="&#x11a;" horiz-adv-x="455" 
d="M428 43q0 -26 -6 -34.5t-22 -8.5h-309q-20 0 -26.5 5.5t-6.5 22.5v562q0 17 6.5 22.5t26.5 5.5h299q16 0 22 -9t6 -35t-6 -34.5t-22 -8.5h-235v-163h177q17 0 22.5 -8t5.5 -35q0 -26 -5.5 -34t-22.5 -8h-177v-196h245q16 0 22 -9t6 -35zM106 807q0 17 34 17q24 0 34 -4
t19 -18l45 -69h5l44 69q10 13 20 17.5t33 4.5q34 0 34 -17q0 -11 -11 -29l-56 -95q-12 -21 -47 -21h-40q-22 0 -30.5 4.5t-15.5 16.5l-57 95q-11 18 -11 29z" />
    <glyph glyph-name="ecaron" unicode="&#x11b;" horiz-adv-x="471" 
d="M255 -10q-47 0 -77 5t-57 19.5t-41.5 42.5t-23 73t-8.5 111q0 70 9.5 118t24.5 76t42.5 43t54.5 19.5t70 4.5q48 0 80.5 -9.5t52 -26.5t30 -47.5t14 -64t3.5 -85.5q0 -26 -8 -37t-32 -11h-243q1 -95 22 -121t95 -26q34 0 66.5 5t52.5 9.5t24 4.5q16 0 16 -39
q0 -21 -5.5 -29.5t-20.5 -13.5q-58 -21 -141 -21zM247 421q-57 0 -77.5 -25t-23.5 -111h190q0 80 -14.5 108t-74.5 28zM108 684q0 17 34 17q24 0 34 -4t19 -18l45 -69h5l44 69q10 13 20 17.5t33 4.5q34 0 34 -17q0 -11 -11 -29l-56 -95q-12 -21 -47 -21h-40q-22 0 -30.5 4.5
t-15.5 16.5l-57 95q-11 18 -11 29z" />
    <glyph glyph-name="Gcircumflex" unicode="&#x11c;" horiz-adv-x="493" 
d="M250 -8q-35 0 -58.5 2.5t-49.5 11.5t-42.5 27t-30.5 47t-20.5 74.5t-6.5 107.5v81q0 64 6.5 111t20.5 77.5t30.5 49t44 27.5t52 12t61.5 3q77 0 148 -19q14 -4 19 -12t5 -34q0 -38 -17 -38q-1 0 -49 8.5t-87 8.5q-35 0 -55 -3.5t-38.5 -14t-26.5 -33.5t-12.5 -59
t-4.5 -93v-52q0 -58 5 -95.5t12.5 -59.5t24.5 -33t33.5 -13.5t45.5 -2.5q57 0 79 22.5t22 92.5v63h-85q-14 0 -19 8.5t-5 35.5q0 24 5 31.5t19 7.5h134q24 0 31 -6t7 -21v-137q0 -104 -45 -143.5t-153 -39.5zM244 753h-5l-45 -68q-10 -14 -20 -18.5t-33 -4.5q-34 0 -34 18
q0 8 11 29l57 94q6 12 15 16.5t31 4.5h40q22 0 31 -4.5t16 -16.5l56 -94q11 -18 11 -29q0 -18 -34 -18q-22 0 -32 4.5t-20 18.5z" />
    <glyph glyph-name="gcircumflex" unicode="&#x11d;" horiz-adv-x="515" 
d="M48 250q0 104 21 159.5t59.5 74t108.5 18.5q106 0 137 -72l9 36q4 17 12 21.5t34 4.5q27 0 36 -5.5t9 -17.5q0 -5 -5.5 -26t-11 -58.5t-5.5 -83.5v-261q0 -71 -15.5 -118.5t-47.5 -72t-69.5 -34t-90.5 -9.5q-74 0 -137 13q-14 3 -20 12t-6 32q0 40 18 40q4 0 24 -2.5
t52 -5.5t67 -3q77 0 103 31t26 114v13q-38 -60 -145 -60q-98 0 -130.5 52.5t-32.5 207.5zM147 240q0 -106 18 -137t78 -31q64 0 91.5 28t27.5 112v66q0 83 -21.5 112.5t-86.5 29.5q-66 0 -86.5 -32.5t-20.5 -147.5zM261 630h-5l-45 -68q-10 -14 -20 -18.5t-33 -4.5
q-34 0 -34 18q0 8 11 29l57 94q6 12 15 16.5t31 4.5h40q22 0 31 -4.5t16 -16.5l56 -94q11 -18 11 -29q0 -18 -34 -18q-22 0 -32 4.5t-20 18.5z" />
    <glyph glyph-name="Gbreve" unicode="&#x11e;" horiz-adv-x="493" 
d="M250 -8q-35 0 -58.5 2.5t-49.5 11.5t-42.5 27t-30.5 47t-20.5 74.5t-6.5 107.5v81q0 64 6.5 111t20.5 77.5t30.5 49t44 27.5t52 12t61.5 3q77 0 148 -19q14 -4 19 -12t5 -34q0 -38 -17 -38q-1 0 -49 8.5t-87 8.5q-35 0 -55 -3.5t-38.5 -14t-26.5 -33.5t-12.5 -59
t-4.5 -93v-52q0 -58 5 -95.5t12.5 -59.5t24.5 -33t33.5 -13.5t45.5 -2.5q57 0 79 22.5t22 92.5v63h-85q-14 0 -19 8.5t-5 35.5q0 24 5 31.5t19 7.5h134q24 0 31 -6t7 -21v-137q0 -104 -45 -143.5t-153 -39.5zM241 674q-67 0 -91 22.5t-24 79.5q0 19 6.5 24.5t29.5 5.5
q22 0 28 -4.5t7 -20.5q1 -15 3.5 -21.5t11.5 -10t29 -3.5q28 0 35 6.5t8 28.5q1 16 7.5 20.5t28.5 4.5q23 0 29 -5.5t6 -24.5q0 -57 -23.5 -79.5t-90.5 -22.5z" />
    <glyph glyph-name="gbreve" unicode="&#x11f;" horiz-adv-x="515" 
d="M48 250q0 104 21 159.5t59.5 74t108.5 18.5q106 0 137 -72l9 36q4 17 12 21.5t34 4.5q27 0 36 -5.5t9 -17.5q0 -5 -5.5 -26t-11 -58.5t-5.5 -83.5v-261q0 -71 -15.5 -118.5t-47.5 -72t-69.5 -34t-90.5 -9.5q-74 0 -137 13q-14 3 -20 12t-6 32q0 40 18 40q4 0 24 -2.5
t52 -5.5t67 -3q77 0 103 31t26 114v13q-38 -60 -145 -60q-98 0 -130.5 52.5t-32.5 207.5zM147 240q0 -106 18 -137t78 -31q64 0 91.5 28t27.5 112v66q0 83 -21.5 112.5t-86.5 29.5q-66 0 -86.5 -32.5t-20.5 -147.5zM258 551q-67 0 -91 22.5t-24 79.5q0 19 6.5 24.5t29.5 5.5
q22 0 28 -4.5t7 -20.5q1 -15 3.5 -21.5t11.5 -10t29 -3.5q28 0 35 6.5t8 28.5q1 16 7.5 20.5t28.5 4.5q23 0 29 -5.5t6 -24.5q0 -57 -23.5 -79.5t-90.5 -22.5z" />
    <glyph glyph-name="Gdotaccent" unicode="&#x120;" horiz-adv-x="493" 
d="M250 -8q-35 0 -58.5 2.5t-49.5 11.5t-42.5 27t-30.5 47t-20.5 74.5t-6.5 107.5v81q0 64 6.5 111t20.5 77.5t30.5 49t44 27.5t52 12t61.5 3q77 0 148 -19q14 -4 19 -12t5 -34q0 -38 -17 -38q-1 0 -49 8.5t-87 8.5q-35 0 -55 -3.5t-38.5 -14t-26.5 -33.5t-12.5 -59
t-4.5 -93v-52q0 -58 5 -95.5t12.5 -59.5t24.5 -33t33.5 -13.5t45.5 -2.5q57 0 79 22.5t22 92.5v63h-85q-14 0 -19 8.5t-5 35.5q0 24 5 31.5t19 7.5h134q24 0 31 -6t7 -21v-137q0 -104 -45 -143.5t-153 -39.5zM241 687q-34 0 -43.5 7t-9.5 30v19q0 22 9.5 29t43.5 7
q35 0 44.5 -7t9.5 -29v-19q0 -23 -9.5 -30t-44.5 -7z" />
    <glyph glyph-name="gdotaccent" unicode="&#x121;" horiz-adv-x="515" 
d="M48 250q0 104 21 159.5t59.5 74t108.5 18.5q106 0 137 -72l9 36q4 17 12 21.5t34 4.5q27 0 36 -5.5t9 -17.5q0 -5 -5.5 -26t-11 -58.5t-5.5 -83.5v-261q0 -71 -15.5 -118.5t-47.5 -72t-69.5 -34t-90.5 -9.5q-74 0 -137 13q-14 3 -20 12t-6 32q0 40 18 40q4 0 24 -2.5
t52 -5.5t67 -3q77 0 103 31t26 114v13q-38 -60 -145 -60q-98 0 -130.5 52.5t-32.5 207.5zM147 240q0 -106 18 -137t78 -31q64 0 91.5 28t27.5 112v66q0 83 -21.5 112.5t-86.5 29.5q-66 0 -86.5 -32.5t-20.5 -147.5zM257 562q-34 0 -43.5 7t-9.5 30v19q0 22 9.5 29t43.5 7
q35 0 44.5 -7t9.5 -29v-19q0 -23 -9.5 -30t-44.5 -7z" />
    <glyph glyph-name="Gcommaaccent" unicode="&#x122;" horiz-adv-x="493" 
d="M250 -8q-35 0 -58.5 2.5t-49.5 11.5t-42.5 27t-30.5 47t-20.5 74.5t-6.5 107.5v81q0 64 6.5 111t20.5 77.5t30.5 49t44 27.5t52 12t61.5 3q77 0 148 -19q14 -4 19 -12t5 -34q0 -38 -17 -38q-1 0 -49 8.5t-87 8.5q-35 0 -55 -3.5t-38.5 -14t-26.5 -33.5t-12.5 -59
t-4.5 -93v-52q0 -58 5 -95.5t12.5 -59.5t24.5 -33t33.5 -13.5t45.5 -2.5q57 0 79 22.5t22 92.5v63h-85q-14 0 -19 8.5t-5 35.5q0 24 5 31.5t19 7.5h134q24 0 31 -6t7 -21v-137q0 -104 -45 -143.5t-153 -39.5zM227 -233q-18 0 -24 4t-6 14q0 5 5.5 49.5t5.5 81.5q0 24 9 31
t40 7q30 0 40 -6t10 -23q0 -48 -11 -74l-21 -61q-6 -14 -15 -18.5t-33 -4.5z" />
    <glyph glyph-name="gcommaaccent" unicode="&#x123;" horiz-adv-x="515" 
d="M48 250q0 104 21 159.5t59.5 74t108.5 18.5q106 0 137 -72l9 36q4 17 12 21.5t34 4.5q27 0 36 -5.5t9 -17.5q0 -5 -5.5 -26t-11 -58.5t-5.5 -83.5v-261q0 -71 -15.5 -118.5t-47.5 -72t-69.5 -34t-90.5 -9.5q-74 0 -137 13q-14 3 -20 12t-6 32q0 40 18 40q4 0 24 -2.5
t52 -5.5t67 -3q77 0 103 31t26 114v13q-38 -60 -145 -60q-98 0 -130.5 52.5t-32.5 207.5zM147 240q0 -106 18 -137t78 -31q64 0 91.5 28t27.5 112v66q0 83 -21.5 112.5t-86.5 29.5q-66 0 -86.5 -32.5t-20.5 -147.5zM289 723q18 0 24 -4t6 -14q0 -5 -5.5 -49t-5.5 -82
q0 -24 -9 -31t-40 -7q-30 0 -40 6t-10 23q0 48 11 74l21 61q6 14 15 18.5t33 4.5z" />
    <glyph glyph-name="Hcircumflex" unicode="&#x124;" horiz-adv-x="524" 
d="M155 360h214v228q0 19 9.5 24.5t39.5 5.5q29 0 38.5 -6t9.5 -24v-558q0 -18 -9.5 -24t-38.5 -6q-30 0 -39.5 5.5t-9.5 24.5v246h-214v-246q0 -18 -9.5 -24t-38.5 -6q-30 0 -39.5 5.5t-9.5 24.5v558q0 19 9.5 24.5t39.5 5.5q29 0 38.5 -6t9.5 -24v-228zM265 753h-5
l-45 -68q-10 -14 -20 -18.5t-33 -4.5q-34 0 -34 18q0 8 11 29l57 94q6 12 15 16.5t31 4.5h40q22 0 31 -4.5t16 -16.5l56 -94q11 -18 11 -29q0 -18 -34 -18q-22 0 -32 4.5t-20 18.5z" />
    <glyph glyph-name="hcircumflex" unicode="&#x125;" horiz-adv-x="500" 
d="M105 0q-29 0 -39 5.5t-10 24.5v594q0 19 10 24.5t39 5.5t38.5 -5.5t9.5 -24.5v-192q38 70 152 70q78 0 107 -31.5t29 -102.5v-338q0 -19 -9.5 -24.5t-38.5 -5.5t-38.5 5.5t-9.5 24.5v315q0 42 -15 57.5t-59 15.5q-65 0 -91.5 -38t-26.5 -128v-222q0 -19 -9.5 -24.5
t-38.5 -5.5zM269 761h-5l-45 -68q-10 -14 -20 -18.5t-33 -4.5q-34 0 -34 18q0 8 11 29l57 94q6 12 15 16.5t31 4.5h40q22 0 31 -4.5t16 -16.5l56 -94q11 -18 11 -29q0 -18 -34 -18q-22 0 -32 4.5t-20 18.5z" />
    <glyph glyph-name="Hbar" unicode="&#x126;" horiz-adv-x="524" 
d="M9 484q0 24 4.5 31t20.5 7h24v66q0 19 9.5 24.5t39.5 5.5q29 0 38.5 -6t9.5 -24v-66h214v66q0 19 9.5 24.5t39.5 5.5q29 0 38.5 -6t9.5 -24v-66h22q15 0 20 -7t5 -31q0 -23 -5 -30t-20 -7h-22v-417q0 -18 -9.5 -24t-38.5 -6q-30 0 -39.5 5.5t-9.5 24.5v246h-214v-246
q0 -18 -9.5 -24t-38.5 -6q-30 0 -39.5 5.5t-9.5 24.5v417h-24q-16 0 -20.5 7t-4.5 30zM155 360h214v87h-214v-87z" />
    <glyph glyph-name="hbar" unicode="&#x127;" horiz-adv-x="500" 
d="M105 0q-29 0 -39 5.5t-10 24.5v499h-36q-14 0 -19 6t-5 25t5 25.5t19 6.5h36v32q0 19 10 24.5t39 5.5t38.5 -5.5t9.5 -24.5v-32h40q15 0 20 -6t5 -25t-5 -24.5t-20 -5.5h-40v-99q38 70 152 70q78 0 107 -31.5t29 -102.5v-338q0 -19 -9.5 -24.5t-38.5 -5.5t-38.5 5.5
t-9.5 24.5v315q0 42 -15 57.5t-59 15.5q-65 0 -91.5 -38t-26.5 -128v-222q0 -19 -9.5 -24.5t-38.5 -5.5z" />
    <glyph glyph-name="Itilde" unicode="&#x128;" horiz-adv-x="213" 
d="M107 0q-30 0 -39.5 5.5t-9.5 24.5v558q0 19 9.5 24.5t39.5 5.5q29 0 38.5 -6t9.5 -24v-558q0 -18 -9.5 -24t-38.5 -6zM-29 715q0 20 5 28.5t19 17.5q30 18 62 18q23 0 57 -10t50 -10q20 0 42 9t24 9q8 0 11 -6.5t3 -27.5q0 -19 -5.5 -28t-19.5 -18q-27 -18 -62 -18
q-23 0 -57 10t-50 10q-20 0 -41 -9t-24 -9q-8 0 -11 6.5t-3 27.5z" />
    <glyph glyph-name="itilde" unicode="&#x129;" horiz-adv-x="214" 
d="M-30 596q0 20 5 28.5t19 17.5q30 18 62 18q23 0 57 -10t50 -10q21 0 42 9t24 9q8 0 11 -6.5t3 -27.5q0 -19 -5.5 -28t-19.5 -18q-27 -18 -62 -18q-22 0 -56 10t-51 10q-20 0 -41 -9t-24 -9q-8 0 -11 6.5t-3 27.5zM105 0q-29 0 -39 5.5t-10 24.5v432q0 19 10 24.5t39 5.5
t38.5 -5.5t9.5 -24.5v-432q0 -19 -9.5 -24.5t-38.5 -5.5z" />
    <glyph glyph-name="Imacron" unicode="&#x12a;" horiz-adv-x="213" 
d="M107 0q-30 0 -39.5 5.5t-9.5 24.5v558q0 19 9.5 24.5t39.5 5.5q29 0 38.5 -6t9.5 -24v-558q0 -18 -9.5 -24t-38.5 -6zM0 731q0 26 5.5 34t22.5 8h159q17 0 22 -8t5 -34q0 -25 -5 -33t-22 -8h-159q-17 0 -22.5 8t-5.5 33z" />
    <glyph glyph-name="imacron" unicode="&#x12b;" horiz-adv-x="214" 
d="M-1 608q0 26 5.5 34t22.5 8h159q17 0 22 -8t5 -34q0 -25 -5 -33t-22 -8h-159q-17 0 -22.5 8t-5.5 33zM105 0q-29 0 -39 5.5t-10 24.5v432q0 19 10 24.5t39 5.5t38.5 -5.5t9.5 -24.5v-432q0 -19 -9.5 -24.5t-38.5 -5.5z" />
    <glyph glyph-name="Ibreve" unicode="&#x12c;" horiz-adv-x="213" 
d="M107 0q-30 0 -39.5 5.5t-9.5 24.5v558q0 19 9.5 24.5t39.5 5.5q29 0 38.5 -6t9.5 -24v-558q0 -18 -9.5 -24t-38.5 -6zM107 672q-67 0 -91 22.5t-24 79.5q0 19 6.5 24.5t29.5 5.5q22 0 28 -4.5t7 -20.5q1 -15 3.5 -21.5t11.5 -10t29 -3.5q28 0 35 6.5t8 28.5
q1 16 7.5 20.5t28.5 4.5q23 0 29 -5.5t6 -24.5q0 -57 -23.5 -79.5t-90.5 -22.5z" />
    <glyph glyph-name="ibreve" unicode="&#x12d;" horiz-adv-x="214" 
d="M107 551q-67 0 -91 22.5t-24 79.5q0 19 6.5 24.5t29.5 5.5q22 0 28 -4.5t7 -20.5q1 -15 3.5 -21.5t11.5 -10t29 -3.5q28 0 35 6.5t8 28.5q1 16 7.5 20.5t28.5 4.5q23 0 29 -5.5t6 -24.5q0 -57 -23.5 -79.5t-90.5 -22.5zM105 0q-29 0 -39 5.5t-10 24.5v432q0 19 10 24.5
t39 5.5t38.5 -5.5t9.5 -24.5v-432q0 -19 -9.5 -24.5t-38.5 -5.5z" />
    <glyph glyph-name="Iogonek" unicode="&#x12e;" horiz-adv-x="213" 
d="M107 618q29 0 38.5 -6t9.5 -24v-543q0 -38 -27 -71q-39 -47 -39 -69q0 -13 3.5 -17t13.5 -4q9 0 17.5 1t12.5 1q10 0 14.5 -6.5t4.5 -26.5t-5.5 -27t-21.5 -12q-26 -8 -56 -8q-37 0 -55.5 16.5t-18.5 55.5q0 33 17 60.5t55 65.5q-12 5 -12 26v558q0 19 9.5 24.5t39.5 5.5
z" />
    <glyph glyph-name="iogonek" unicode="&#x12f;" horiz-adv-x="214" 
d="M70 -194q-37 0 -55 16.5t-18 55.5q0 31 16 59.5t55 66.5q-12 5 -12 26v432q0 19 10 24.5t39 5.5t38.5 -5.5t9.5 -24.5v-432q0 -26 -31 -60q-35 -40 -35 -65q0 -13 3.5 -17t13.5 -4q9 0 17.5 1t12.5 1q10 0 14.5 -6.5t4.5 -26.5t-5.5 -27t-21.5 -12q-26 -8 -56 -8z
M105 562q-35 0 -44.5 7t-9.5 30v19q0 22 9.5 29t44.5 7q34 0 43.5 -7t9.5 -29v-19q0 -23 -9.5 -30t-43.5 -7z" />
    <glyph glyph-name="Idotaccent" unicode="&#x130;" horiz-adv-x="213" 
d="M107 0q-30 0 -39.5 5.5t-9.5 24.5v558q0 19 9.5 24.5t39.5 5.5q29 0 38.5 -6t9.5 -24v-558q0 -18 -9.5 -24t-38.5 -6zM106 687q-34 0 -43.5 7t-9.5 30v19q0 22 9.5 29t43.5 7q35 0 44.5 -7t9.5 -29v-19q0 -23 -9.5 -30t-44.5 -7z" />
    <glyph glyph-name="dotlessi" unicode="&#x131;" horiz-adv-x="214" 
d="M105 0q-29 0 -39 5.5t-10 24.5v432q0 19 10 24.5t39 5.5t38.5 -5.5t9.5 -24.5v-432q0 -19 -9.5 -24.5t-38.5 -5.5z" />
    <glyph glyph-name="IJ" unicode="&#x132;" horiz-adv-x="554" 
d="M107 0q-30 0 -39.5 5.5t-9.5 24.5v558q0 19 9.5 24.5t39.5 5.5q29 0 38.5 -6t9.5 -24v-558q0 -18 -9.5 -24t-38.5 -6zM347 -8q-53 0 -99 13q-15 4 -21 12.5t-6 32.5t3.5 30.5t14.5 6.5q5 0 34 -4.5t51 -4.5q45 0 60 16.5t15 66.5v427q0 18 9.5 24t38.5 6t38.5 -6t9.5 -24
v-430q0 -89 -35.5 -127.5t-112.5 -38.5z" />
    <glyph glyph-name="ij" unicode="&#x133;" horiz-adv-x="429" 
d="M105 0q-29 0 -39 5.5t-10 24.5v432q0 19 10 24.5t39 5.5t38.5 -5.5t9.5 -24.5v-432q0 -19 -9.5 -24.5t-38.5 -5.5zM105 562q-35 0 -44.5 7t-9.5 30v19q0 22 9.5 29t44.5 7q34 0 43.5 -7t9.5 -29v-19q0 -23 -9.5 -30t-43.5 -7zM319 492q29 0 38.5 -5.5t9.5 -24.5v-531
q0 -67 -26.5 -96t-82.5 -29q-42 0 -74 10q-15 4 -21 12t-6 29q0 24 4 31t15 7q3 0 22 -2.5t32 -2.5q25 0 32.5 10.5t7.5 50.5v511q0 19 10 24.5t39 5.5zM319 562q-35 0 -44.5 7t-9.5 30v19q0 22 9.5 29t44.5 7q34 0 43.5 -7t9.5 -29v-19q0 -23 -9.5 -30t-43.5 -7z" />
    <glyph glyph-name="Jcircumflex" unicode="&#x134;" horiz-adv-x="341" 
d="M134 -8q-54 0 -99 13q-15 4 -21 12.5t-6 32.5t3.5 30.5t14.5 6.5q4 0 33 -4.5t52 -4.5q45 0 60 16.5t15 66.5v427q0 18 9.5 24t38.5 6t38.5 -6t9.5 -24v-430q0 -89 -35.5 -127.5t-112.5 -38.5zM236 753h-5l-45 -68q-10 -14 -20 -18.5t-33 -4.5q-34 0 -34 18q0 8 11 29
l57 94q6 12 15 16.5t31 4.5h40q22 0 31 -4.5t16 -16.5l56 -94q11 -18 11 -29q0 -18 -34 -18q-22 0 -32 4.5t-20 18.5z" />
    <glyph glyph-name="jcircumflex" unicode="&#x135;" horiz-adv-x="214" 
d="M105 492q29 0 38.5 -5.5t9.5 -24.5v-531q0 -67 -26.5 -96t-82.5 -29q-42 0 -74 10q-15 4 -21 12t-6 29q0 24 4 31t15 7q3 0 22 -2.5t32 -2.5q25 0 32.5 10.5t7.5 50.5v511q0 19 10 24.5t39 5.5zM107 630h-5l-45 -68q-10 -14 -20 -18.5t-33 -4.5q-34 0 -34 18q0 8 11 29
l57 94q6 12 15 16.5t31 4.5h40q22 0 31 -4.5t16 -16.5l56 -94q11 -18 11 -29q0 -18 -34 -18q-22 0 -32 4.5t-20 18.5z" />
    <glyph glyph-name="Kcommaaccent" unicode="&#x136;" horiz-adv-x="469" 
d="M107 0q-30 0 -39.5 5.5t-9.5 24.5v558q0 19 9.5 24.5t39.5 5.5q29 0 38.5 -6t9.5 -24v-242h15l164 249q9 14 20.5 18.5t42.5 4.5q45 0 45 -20q0 -14 -12 -31l-177 -253l182 -254q19 -27 19 -38q0 -22 -49 -22q-26 0 -38.5 4.5t-22.5 18.5l-175 258h-14v-251
q0 -18 -9.5 -24t-38.5 -6zM210 -233q-18 0 -24 4t-6 14q0 5 5.5 49.5t5.5 81.5q0 24 9 31t40 7q30 0 40 -6t10 -23q0 -48 -11 -74l-21 -61q-6 -14 -15 -18.5t-33 -4.5z" />
    <glyph glyph-name="kcommaaccent" unicode="&#x137;" horiz-adv-x="440" 
d="M105 0q-29 0 -39 5.5t-10 24.5v594q0 19 10 24.5t39 5.5t38.5 -5.5t9.5 -24.5v-336h10l142 180q12 15 23 19.5t40 4.5q47 0 47 -17q0 -13 -14 -30l-152 -188l165 -211q13 -17 13 -27q0 -19 -50 -19q-28 0 -38 4.5t-22 19.5l-155 201h-9v-195q0 -19 -9.5 -24.5t-38.5 -5.5
zM197 -233q-18 0 -24 4t-6 14q0 5 5.5 49.5t5.5 81.5q0 24 9 31t40 7q30 0 40 -6t10 -23q0 -48 -11 -74l-21 -61q-6 -14 -15 -18.5t-33 -4.5z" />
    <glyph glyph-name="Lacute" unicode="&#x139;" horiz-adv-x="424" 
d="M155 87h225q16 0 22 -9t6 -35t-6 -34.5t-22 -8.5h-289q-20 0 -26.5 5.5t-6.5 22.5v560q0 19 9.5 24.5t39.5 5.5q29 0 38.5 -6t9.5 -24v-501zM112 662q-41 0 -41 18q0 8 11 30l41 83q10 20 19 25.5t40 5.5q53 0 53 -18q0 -12 -15 -36l-51 -82q-7 -11 -11 -15t-15 -7.5
t-31 -3.5z" />
    <glyph glyph-name="lacute" unicode="&#x13a;" horiz-adv-x="211" 
d="M105 0q-29 0 -39 5.5t-10 24.5v594q0 19 10 24.5t39 5.5t38.5 -5.5t9.5 -24.5v-594q0 -19 -9.5 -24.5t-38.5 -5.5zM93 689q-41 0 -41 18q0 8 11 30l41 83q10 20 19 25.5t40 5.5q53 0 53 -18q0 -12 -15 -36l-51 -82q-7 -11 -11 -15t-15 -7.5t-31 -3.5z" />
    <glyph glyph-name="Lcommaaccent" unicode="&#x13b;" horiz-adv-x="424" 
d="M155 87h225q16 0 22 -9t6 -35t-6 -34.5t-22 -8.5h-289q-20 0 -26.5 5.5t-6.5 22.5v560q0 19 9.5 24.5t39.5 5.5q29 0 38.5 -6t9.5 -24v-501zM203 -233q-18 0 -24 4t-6 14q0 5 5.5 49.5t5.5 81.5q0 24 9 31t40 7q30 0 40 -6t10 -23q0 -48 -11 -74l-21 -61
q-6 -14 -15 -18.5t-33 -4.5z" />
    <glyph glyph-name="lcommaaccent" unicode="&#x13c;" horiz-adv-x="211" 
d="M105 0q-29 0 -39 5.5t-10 24.5v594q0 19 10 24.5t39 5.5t38.5 -5.5t9.5 -24.5v-594q0 -19 -9.5 -24.5t-38.5 -5.5zM76 -233q-18 0 -24 4t-6 14q0 5 5.5 49.5t5.5 81.5q0 24 9 31t40 7q30 0 40 -6t10 -23q0 -48 -11 -74l-21 -61q-6 -14 -15 -18.5t-33 -4.5z" />
    <glyph glyph-name="Lcaron" unicode="&#x13d;" horiz-adv-x="424" 
d="M155 87h225q16 0 22 -9t6 -35t-6 -34.5t-22 -8.5h-289q-20 0 -26.5 5.5t-6.5 22.5v560q0 19 9.5 24.5t39.5 5.5q29 0 38.5 -6t9.5 -24v-501zM288 618q32 0 41 -7t9 -29v-27q0 -36 -15 -84l-16 -55q-8 -21 -17.5 -27t-33.5 -6q-19 0 -25 4t-6 14q0 6 7 51t7 74v56
q0 22 9 29t40 7z" />
    <glyph glyph-name="lcaron" unicode="&#x13e;" horiz-adv-x="347" 
d="M276 654q32 0 41 -7t9 -29v-27q0 -36 -15 -84l-16 -55q-8 -21 -17.5 -27t-34.5 -6q-18 0 -24 4t-6 14q0 6 7 51t7 74v56q0 22 9 29t40 7zM105 0q-29 0 -39 5.5t-10 24.5v594q0 19 10 24.5t39 5.5t38.5 -5.5t9.5 -24.5v-594q0 -19 -9.5 -24.5t-38.5 -5.5z" />
    <glyph glyph-name="Ldot" unicode="&#x13f;" horiz-adv-x="424" 
d="M155 87h225q16 0 22 -9t6 -35t-6 -34.5t-22 -8.5h-289q-20 0 -26.5 5.5t-6.5 22.5v560q0 19 9.5 24.5t39.5 5.5q29 0 38.5 -6t9.5 -24v-501zM271 279q-34 0 -43.5 7t-9.5 30v19q0 22 9.5 29t43.5 7q35 0 44.5 -7t9.5 -29v-19q0 -23 -9.5 -30t-44.5 -7z" />
    <glyph glyph-name="ldot" unicode="&#x140;" horiz-adv-x="326" 
d="M105 0q-29 0 -39 5.5t-10 24.5v594q0 19 10 24.5t39 5.5t38.5 -5.5t9.5 -24.5v-594q0 -19 -9.5 -24.5t-38.5 -5.5zM256 213q-34 0 -43.5 7t-9.5 30v19q0 22 9.5 29t43.5 7q35 0 44.5 -7t9.5 -29v-19q0 -23 -9.5 -30t-44.5 -7z" />
    <glyph glyph-name="Lslash" unicode="&#x141;" horiz-adv-x="424" 
d="M155 87h225q16 0 22 -9t6 -35t-6 -34.5t-22 -8.5h-289q-20 0 -26.5 5.5t-6.5 22.5v196l-26 -16q-15 -9 -22 -9q-15 0 -15 36q0 39 24 55l39 24v274q0 19 9.5 24.5t39.5 5.5q29 0 38.5 -6t9.5 -24v-214l104 65q15 9 22 9q15 0 15 -36q0 -39 -24 -55l-117 -73v-197z" />
    <glyph glyph-name="lslash" unicode="&#x142;" horiz-adv-x="238" 
d="M119 0q-29 0 -39 5.5t-10 24.5v214l-33 -21q-13 -8 -21 -8q-14 0 -14 34q0 40 23 55l45 29v291q0 19 10 24.5t39 5.5t38.5 -5.5t9.5 -24.5v-229l34 22q13 8 22 8q14 0 14 -34q0 -40 -23 -55l-47 -30v-276q0 -19 -9.5 -24.5t-38.5 -5.5z" />
    <glyph glyph-name="Nacute" unicode="&#x143;" horiz-adv-x="547" 
d="M107 0q-30 0 -39.5 5.5t-9.5 24.5v558q0 19 12.5 24.5t51.5 5.5q32 0 45.5 -5t22.5 -24l193 -428h9v427q0 18 9.5 24t38.5 6q30 0 39.5 -5.5t9.5 -24.5v-558q0 -19 -11.5 -24.5t-51.5 -5.5q-32 0 -43.5 4.5t-20.5 24.5l-198 428h-9v-427q0 -18 -9.5 -24t-38.5 -6z
M253 662q-41 0 -41 18q0 8 11 30l41 83q10 20 19 25.5t40 5.5q53 0 53 -18q0 -12 -15 -36l-51 -82q-7 -11 -11 -15t-15 -7.5t-31 -3.5z" />
    <glyph glyph-name="nacute" unicode="&#x144;" horiz-adv-x="512" 
d="M117 0q-29 0 -39 5.5t-10 24.5v271q0 46 -5.5 83.5t-11 58.5t-5.5 26q0 12 9 17.5t36 5.5q26 0 34.5 -4.5t12.5 -21.5l14 -57q39 93 165 93q78 0 107 -31.5t29 -102.5v-338q0 -19 -9.5 -24.5t-38.5 -5.5t-38.5 5.5t-9.5 24.5v315q0 42 -15 57.5t-59 15.5q-65 0 -91.5 -38
t-26.5 -128v-222q0 -19 -9.5 -24.5t-38.5 -5.5zM239 539q-41 0 -41 18q0 8 11 30l41 83q10 20 19 25.5t40 5.5q53 0 53 -18q0 -12 -15 -36l-51 -82q-7 -11 -11 -15t-15 -7.5t-31 -3.5z" />
    <glyph glyph-name="Ncommaaccent" unicode="&#x145;" horiz-adv-x="547" 
d="M107 0q-30 0 -39.5 5.5t-9.5 24.5v558q0 19 12.5 24.5t51.5 5.5q32 0 45.5 -5t22.5 -24l193 -428h9v427q0 18 9.5 24t38.5 6q30 0 39.5 -5.5t9.5 -24.5v-558q0 -19 -11.5 -24.5t-51.5 -5.5q-32 0 -43.5 4.5t-20.5 24.5l-198 428h-9v-427q0 -18 -9.5 -24t-38.5 -6z
M249 -233q-18 0 -24 4t-6 14q0 5 5.5 49.5t5.5 81.5q0 24 9 31t40 7q30 0 40 -6t10 -23q0 -48 -11 -74l-21 -61q-6 -14 -15 -18.5t-33 -4.5z" />
    <glyph glyph-name="ncommaaccent" unicode="&#x146;" horiz-adv-x="512" 
d="M117 0q-29 0 -39 5.5t-10 24.5v271q0 46 -5.5 83.5t-11 58.5t-5.5 26q0 12 9 17.5t36 5.5q26 0 34.5 -4.5t12.5 -21.5l14 -57q39 93 165 93q78 0 107 -31.5t29 -102.5v-338q0 -19 -9.5 -24.5t-38.5 -5.5t-38.5 5.5t-9.5 24.5v315q0 42 -15 57.5t-59 15.5q-65 0 -91.5 -38
t-26.5 -128v-222q0 -19 -9.5 -24.5t-38.5 -5.5zM234 -233q-18 0 -24 4t-6 14q0 5 5.5 49.5t5.5 81.5q0 24 9 31t40 7q30 0 40 -6t10 -23q0 -48 -11 -74l-21 -61q-6 -14 -15 -18.5t-33 -4.5z" />
    <glyph glyph-name="Ncaron" unicode="&#x147;" horiz-adv-x="547" 
d="M107 0q-30 0 -39.5 5.5t-9.5 24.5v558q0 19 12.5 24.5t51.5 5.5q32 0 45.5 -5t22.5 -24l193 -428h9v427q0 18 9.5 24t38.5 6q30 0 39.5 -5.5t9.5 -24.5v-558q0 -19 -11.5 -24.5t-51.5 -5.5q-32 0 -43.5 4.5t-20.5 24.5l-198 428h-9v-427q0 -18 -9.5 -24t-38.5 -6z
M142 807q0 17 34 17q24 0 34 -4t19 -18l45 -69h5l44 69q10 13 20 17.5t33 4.5q34 0 34 -17q0 -11 -11 -29l-56 -95q-12 -21 -47 -21h-40q-22 0 -30.5 4.5t-15.5 16.5l-57 95q-11 18 -11 29z" />
    <glyph glyph-name="ncaron" unicode="&#x148;" horiz-adv-x="512" 
d="M117 0q-29 0 -39 5.5t-10 24.5v271q0 46 -5.5 83.5t-11 58.5t-5.5 26q0 12 9 17.5t36 5.5q26 0 34.5 -4.5t12.5 -21.5l14 -57q39 93 165 93q78 0 107 -31.5t29 -102.5v-338q0 -19 -9.5 -24.5t-38.5 -5.5t-38.5 5.5t-9.5 24.5v315q0 42 -15 57.5t-59 15.5q-65 0 -91.5 -38
t-26.5 -128v-222q0 -19 -9.5 -24.5t-38.5 -5.5zM127 684q0 17 34 17q24 0 34 -4t19 -18l45 -69h5l44 69q10 13 20 17.5t33 4.5q34 0 34 -17q0 -11 -11 -29l-56 -95q-12 -21 -47 -21h-40q-22 0 -30.5 4.5t-15.5 16.5l-57 95q-11 18 -11 29z" />
    <glyph glyph-name="Eng" unicode="&#x14a;" horiz-adv-x="547" 
d="M380 -194q-42 0 -74 10q-15 4 -21.5 12t-6.5 29q0 24 4.5 31t14.5 7q3 0 22.5 -2.5t32.5 -2.5q25 0 32.5 10.5t7.5 50.5v51q-19 4 -30 27l-198 428h-9v-427q0 -18 -9.5 -24t-38.5 -6q-30 0 -39.5 5.5t-9.5 24.5v558q0 19 12.5 24.5t51.5 5.5q32 0 45.5 -5t22.5 -24
l193 -428h9v427q0 18 9.5 24t38.5 6q30 0 39.5 -5.5t9.5 -24.5v-657q0 -67 -26.5 -96t-82.5 -29z" />
    <glyph glyph-name="eng" unicode="&#x14b;" horiz-adv-x="512" 
d="M117 0q-29 0 -39 5.5t-10 24.5v271q0 46 -5.5 83.5t-11 58.5t-5.5 26q0 12 9 17.5t36 5.5q26 0 34.5 -4.5t12.5 -21.5l14 -57q39 93 165 93q78 0 107 -31.5t29 -102.5v-437q0 -67 -26 -96t-83 -29q-37 0 -73 10q-16 5 -22 12.5t-6 28.5q0 24 4 31t15 7q3 0 22 -2.5
t32 -2.5q26 0 33.5 10.5t7.5 50.5v394q0 42 -15 57.5t-59 15.5q-65 0 -91.5 -38t-26.5 -128v-222q0 -19 -9.5 -24.5t-38.5 -5.5z" />
    <glyph glyph-name="Omacron" unicode="&#x14c;" horiz-adv-x="526" 
d="M263 76q53 0 76.5 13.5t34 56t10.5 136.5v51q0 73 -3.5 110.5t-18 61t-35.5 29t-64 5.5q-53 0 -76.5 -13.5t-34 -56t-10.5 -136.5v-51q0 -73 3.5 -110.5t18 -61t35.5 -29t64 -5.5zM263 -8q-66 0 -102.5 8.5t-65.5 38t-39.5 85t-10.5 150.5v63q0 97 11.5 155t41.5 86.5
t65.5 36.5t99.5 8q67 0 104 -8.5t65.5 -38.5t38.5 -86t10 -153v-63q0 -95 -12 -152.5t-42.5 -85.5t-65.5 -36t-98 -8zM156 731q0 26 5.5 34t22.5 8h159q17 0 22 -8t5 -34q0 -25 -5 -33t-22 -8h-159q-17 0 -22.5 8t-5.5 33z" />
    <glyph glyph-name="omacron" unicode="&#x14d;" horiz-adv-x="500" 
d="M242 -10q-78 0 -117.5 19.5t-58 73t-18.5 159.5q0 153 46 206.5t164 53.5q78 0 117 -19t57.5 -72t18.5 -159q0 -154 -46 -208t-163 -54zM244 72q68 0 88.5 32.5t20.5 138.5q0 115 -17.5 146t-81.5 31q-67 0 -87 -32t-20 -137q0 -116 17 -147.5t80 -31.5zM143 608
q0 26 5.5 34t22.5 8h159q17 0 22 -8t5 -34q0 -25 -5 -33t-22 -8h-159q-17 0 -22.5 8t-5.5 33z" />
    <glyph glyph-name="Obreve" unicode="&#x14e;" horiz-adv-x="526" 
d="M263 76q53 0 76.5 13.5t34 56t10.5 136.5v51q0 73 -3.5 110.5t-18 61t-35.5 29t-64 5.5q-53 0 -76.5 -13.5t-34 -56t-10.5 -136.5v-51q0 -73 3.5 -110.5t18 -61t35.5 -29t64 -5.5zM263 -8q-66 0 -102.5 8.5t-65.5 38t-39.5 85t-10.5 150.5v63q0 97 11.5 155t41.5 86.5
t65.5 36.5t99.5 8q67 0 104 -8.5t65.5 -38.5t38.5 -86t10 -153v-63q0 -95 -12 -152.5t-42.5 -85.5t-65.5 -36t-98 -8zM263 674q-67 0 -91 22.5t-24 79.5q0 19 6.5 24.5t29.5 5.5q22 0 28 -4.5t7 -20.5q1 -15 3.5 -21.5t11.5 -10t29 -3.5q28 0 35 6.5t8 28.5q1 16 7.5 20.5
t28.5 4.5q23 0 29 -5.5t6 -24.5q0 -57 -23.5 -79.5t-90.5 -22.5z" />
    <glyph glyph-name="obreve" unicode="&#x14f;" horiz-adv-x="500" 
d="M242 -10q-78 0 -117.5 19.5t-58 73t-18.5 159.5q0 153 46 206.5t164 53.5q78 0 117 -19t57.5 -72t18.5 -159q0 -154 -46 -208t-163 -54zM244 72q68 0 88.5 32.5t20.5 138.5q0 115 -17.5 146t-81.5 31q-67 0 -87 -32t-20 -137q0 -116 17 -147.5t80 -31.5zM250 551
q-67 0 -91 22.5t-24 79.5q0 19 6.5 24.5t29.5 5.5q22 0 28 -4.5t7 -20.5q1 -15 3.5 -21.5t11.5 -10t29 -3.5q28 0 35 6.5t8 28.5q1 16 7.5 20.5t28.5 4.5q23 0 29 -5.5t6 -24.5q0 -57 -23.5 -79.5t-90.5 -22.5z" />
    <glyph glyph-name="Ohungarumlaut" unicode="&#x150;" horiz-adv-x="526" 
d="M263 76q53 0 76.5 13.5t34 56t10.5 136.5v51q0 73 -3.5 110.5t-18 61t-35.5 29t-64 5.5q-53 0 -76.5 -13.5t-34 -56t-10.5 -136.5v-51q0 -73 3.5 -110.5t18 -61t35.5 -29t64 -5.5zM263 -8q-66 0 -102.5 8.5t-65.5 38t-39.5 85t-10.5 150.5v63q0 97 11.5 155t41.5 86.5
t65.5 36.5t99.5 8q67 0 104 -8.5t65.5 -38.5t38.5 -86t10 -153v-63q0 -95 -12 -152.5t-42.5 -85.5t-65.5 -36t-98 -8zM146 680q0 13 42 124q3 12 12.5 16t41.5 4q28 0 37 -3q12 -4 12 -15q0 -13 -57 -122q-6 -13 -15 -17.5t-36 -4.5q-23 0 -30 4t-7 14zM282 680q0 11 58 125
q5 11 15 15t39 4q25 0 37 -3q12 -4 12 -15q0 -16 -73 -122q-7 -13 -16.5 -17.5t-36.5 -4.5q-35 0 -35 18z" />
    <glyph glyph-name="ohungarumlaut" unicode="&#x151;" horiz-adv-x="500" 
d="M242 -10q-78 0 -117.5 19.5t-58 73t-18.5 159.5q0 153 46 206.5t164 53.5q78 0 117 -19t57.5 -72t18.5 -159q0 -154 -46 -208t-163 -54zM244 72q68 0 88.5 32.5t20.5 138.5q0 115 -17.5 146t-81.5 31q-67 0 -87 -32t-20 -137q0 -116 17 -147.5t80 -31.5zM131 557
q0 13 42 124q3 12 13 16t41 4q28 0 37 -3q12 -4 12 -15q0 -13 -57 -122q-6 -13 -15 -17.5t-36 -4.5q-23 0 -30 4t-7 14zM267 557q0 11 58 125q5 11 15 15t39 4q25 0 37 -3q12 -4 12 -15q0 -16 -73 -122q-7 -13 -16.5 -17.5t-36.5 -4.5q-35 0 -35 18z" />
    <glyph glyph-name="OE" unicode="&#x152;" horiz-adv-x="781" 
d="M263 -8q-63 0 -98 8t-65.5 36t-42.5 85.5t-12 152.5v63q0 97 10 153t38.5 86t65.5 38.5t104 8.5q97 0 137 -25q4 20 36 20h280q16 0 22 -9t6 -35t-6 -34.5t-22 -8.5h-235v-163h177q17 0 22.5 -8t5.5 -35q0 -26 -5.5 -34t-22.5 -8h-177v-196h245q16 0 22 -9t6 -35
t-6 -34.5t-22 -8.5h-290q-32 0 -36 19q-40 -27 -137 -27zM263 76q41 0 62 5.5t35.5 26.5t19 57.5t4.5 104.5v65q0 72 -3.5 109t-17.5 60.5t-35.5 29t-64.5 5.5t-64 -5.5t-35.5 -29t-18 -61t-3.5 -110.5v-51q0 -94 10.5 -136.5t34 -56t76.5 -13.5z" />
    <glyph glyph-name="oe" unicode="&#x153;" horiz-adv-x="776" 
d="M242 -10q-78 0 -117.5 19.5t-58 73t-18.5 159.5q0 153 46 206.5t164 53.5q111 0 148 -47q23 28 58.5 37.5t89.5 9.5q48 0 80.5 -9.5t52 -26.5t30 -47.5t14 -64t3.5 -85.5q0 -26 -8 -37t-32 -11h-243q1 -95 22 -121t95 -26q34 0 66.5 5t52 9.5t23.5 4.5q16 0 16 -39
q0 -21 -5 -29.5t-20 -13.5q-58 -21 -141 -21q-63 0 -100.5 11t-60.5 41q-43 -52 -157 -52zM244 72q68 0 88.5 32.5t20.5 138.5q0 115 -17.5 146t-81.5 31q-67 0 -87 -32t-20 -137q0 -116 17 -147.5t80 -31.5zM552 421q-57 0 -77.5 -25t-23.5 -111h190q0 80 -14.5 108
t-74.5 28z" />
    <glyph glyph-name="Racute" unicode="&#x154;" horiz-adv-x="502" 
d="M107 0q-30 0 -39.5 5.5t-9.5 24.5v548q0 31 32 36q77 9 162 9q114 0 157.5 -33t43.5 -142q0 -75 -24 -117t-75 -60l104 -222q9 -19 9 -29q0 -20 -41 -20q-35 0 -45.5 4.5t-17.5 21.5l-94 230q-11 -1 -34 -1h-80v-225q0 -18 -9.5 -24t-38.5 -6zM155 536v-208h83
q68 0 91.5 23t23.5 93q0 59 -21.5 77.5t-88.5 18.5q-44 0 -88 -4zM216 662q-41 0 -41 18q0 8 11 30l41 83q10 20 19 25.5t40 5.5q53 0 53 -18q0 -12 -15 -36l-51 -82q-7 -11 -11 -15t-15 -7.5t-31 -3.5z" />
    <glyph glyph-name="racute" unicode="&#x155;" horiz-adv-x="348" 
d="M117 0q-29 0 -39 5.5t-10 24.5v271q0 46 -5.5 83.5t-11 58.5t-5.5 26q0 12 9 17.5t36 5.5q26 0 34.5 -4.5t12.5 -21.5l13 -51q37 85 123 85q24 0 45 -6q11 -4 15 -13t4 -32q0 -40 -19 -40q-2 0 -20 2.5t-33 2.5q-101 0 -101 -185v-199q0 -19 -9.5 -24.5t-38.5 -5.5z
M140 539q-41 0 -41 18q0 8 11 30l41 83q10 20 19 25.5t40 5.5q53 0 53 -18q0 -12 -15 -36l-51 -82q-7 -11 -11 -15t-15 -7.5t-31 -3.5z" />
    <glyph glyph-name="Rcommaaccent" unicode="&#x156;" horiz-adv-x="502" 
d="M107 0q-30 0 -39.5 5.5t-9.5 24.5v548q0 31 32 36q77 9 162 9q114 0 157.5 -33t43.5 -142q0 -75 -24 -117t-75 -60l104 -222q9 -19 9 -29q0 -20 -41 -20q-35 0 -45.5 4.5t-17.5 21.5l-94 230q-11 -1 -34 -1h-80v-225q0 -18 -9.5 -24t-38.5 -6zM155 536v-208h83
q68 0 91.5 23t23.5 93q0 59 -21.5 77.5t-88.5 18.5q-44 0 -88 -4zM228 -233q-18 0 -24 4t-6 14q0 5 5.5 49.5t5.5 81.5q0 24 9 31t40 7q30 0 40 -6t10 -23q0 -48 -11 -74l-21 -61q-6 -14 -15 -18.5t-33 -4.5z" />
    <glyph glyph-name="rcommaaccent" unicode="&#x157;" horiz-adv-x="348" 
d="M117 0q-29 0 -39 5.5t-10 24.5v271q0 46 -5.5 83.5t-11 58.5t-5.5 26q0 12 9 17.5t36 5.5q26 0 34.5 -4.5t12.5 -21.5l13 -51q37 85 123 85q24 0 45 -6q11 -4 15 -13t4 -32q0 -40 -19 -40q-2 0 -20 2.5t-33 2.5q-101 0 -101 -185v-199q0 -19 -9.5 -24.5t-38.5 -5.5z
M89 -239q-18 0 -24 4t-6 14q0 5 5.5 49t5.5 82q0 24 9 31t40 7q30 0 40 -6t10 -23q0 -48 -11 -74l-21 -61q-6 -14 -15 -18.5t-33 -4.5z" />
    <glyph glyph-name="Rcaron" unicode="&#x158;" horiz-adv-x="502" 
d="M107 0q-30 0 -39.5 5.5t-9.5 24.5v548q0 31 32 36q77 9 162 9q114 0 157.5 -33t43.5 -142q0 -75 -24 -117t-75 -60l104 -222q9 -19 9 -29q0 -20 -41 -20q-35 0 -45.5 4.5t-17.5 21.5l-94 230q-11 -1 -34 -1h-80v-225q0 -18 -9.5 -24t-38.5 -6zM155 536v-208h83
q68 0 91.5 23t23.5 93q0 59 -21.5 77.5t-88.5 18.5q-44 0 -88 -4zM118 807q0 17 34 17q24 0 34 -4t19 -18l45 -69h5l44 69q10 13 20 17.5t33 4.5q34 0 34 -17q0 -11 -11 -29l-56 -95q-12 -21 -47 -21h-40q-22 0 -30.5 4.5t-15.5 16.5l-57 95q-11 18 -11 29z" />
    <glyph glyph-name="rcaron" unicode="&#x159;" horiz-adv-x="348" 
d="M117 0q-29 0 -39 5.5t-10 24.5v271q0 46 -5.5 83.5t-11 58.5t-5.5 26q0 12 9 17.5t36 5.5q26 0 34.5 -4.5t12.5 -21.5l13 -51q37 85 123 85q24 0 45 -6q11 -4 15 -13t4 -32q0 -40 -19 -40q-2 0 -20 2.5t-33 2.5q-101 0 -101 -185v-199q0 -19 -9.5 -24.5t-38.5 -5.5z
M43 684q0 17 34 17q24 0 34 -4t19 -18l45 -69h5l44 69q10 13 20 17.5t33 4.5q34 0 34 -17q0 -11 -11 -29l-56 -95q-12 -21 -47 -21h-40q-22 0 -30.5 4.5t-15.5 16.5l-57 95q-11 18 -11 29z" />
    <glyph glyph-name="Sacute" unicode="&#x15a;" horiz-adv-x="458" 
d="M213 -8q-84 0 -146 18q-15 5 -21 14.5t-6 32.5q0 24 4 31.5t15 7.5q2 0 47.5 -8.5t90.5 -8.5q67 0 96.5 20t29.5 69q0 37 -10 54.5t-39 30.5l-124 56q-53 24 -75 55t-22 96q0 50 13.5 84t39.5 50.5t54 22.5t65 6q86 0 154 -20q12 -3 17.5 -12t5.5 -33q0 -23 -4 -31
t-14 -8q-4 0 -23.5 4.5t-50.5 8.5t-62 4q-58 0 -79 -13.5t-21 -62.5q0 -31 11 -45.5t41 -27.5l123 -55q53 -23 74 -57.5t21 -100.5q0 -182 -205 -182zM211 662q-41 0 -41 18q0 8 11 30l41 83q10 20 19 25.5t40 5.5q53 0 53 -18q0 -12 -15 -36l-51 -82q-7 -11 -11 -15
t-15 -7.5t-31 -3.5z" />
    <glyph glyph-name="sacute" unicode="&#x15b;" horiz-adv-x="433" 
d="M200 -10q-75 0 -132 18q-15 5 -20.5 13.5t-5.5 29.5q0 40 16 40q1 0 47.5 -8.5t85.5 -8.5q56 0 78.5 16.5t22.5 52.5q0 20 -8 31t-27 19l-128 54q-72 32 -72 121q0 134 161 134q71 0 136 -17q15 -4 20 -12.5t5 -33.5q0 -24 -4.5 -30.5t-13.5 -6.5q-1 0 -47 9t-81 9
q-44 0 -61 -12.5t-17 -40.5q0 -21 7.5 -32.5t27.5 -20.5l125 -50q42 -17 58.5 -44t16.5 -72q0 -158 -190 -158zM195 539q-41 0 -41 18q0 8 11 30l41 83q10 20 19 25.5t40 5.5q53 0 53 -18q0 -12 -15 -36l-51 -82q-7 -11 -11 -15t-15 -7.5t-31 -3.5z" />
    <glyph glyph-name="Scircumflex" unicode="&#x15c;" horiz-adv-x="458" 
d="M213 -8q-84 0 -146 18q-15 5 -21 14.5t-6 32.5q0 24 4 31.5t15 7.5q2 0 47.5 -8.5t90.5 -8.5q67 0 96.5 20t29.5 69q0 37 -10 54.5t-39 30.5l-124 56q-53 24 -75 55t-22 96q0 50 13.5 84t39.5 50.5t54 22.5t65 6q86 0 154 -20q12 -3 17.5 -12t5.5 -33q0 -23 -4 -31
t-14 -8q-4 0 -23.5 4.5t-50.5 8.5t-62 4q-58 0 -79 -13.5t-21 -62.5q0 -31 11 -45.5t41 -27.5l123 -55q53 -23 74 -57.5t21 -100.5q0 -182 -205 -182zM239 753h-5l-45 -68q-10 -14 -20 -18.5t-33 -4.5q-34 0 -34 18q0 8 11 29l57 94q6 12 15 16.5t31 4.5h40q22 0 31 -4.5
t16 -16.5l56 -94q11 -18 11 -29q0 -18 -34 -18q-22 0 -32 4.5t-20 18.5z" />
    <glyph glyph-name="scircumflex" unicode="&#x15d;" horiz-adv-x="433" 
d="M200 -10q-75 0 -132 18q-15 5 -20.5 13.5t-5.5 29.5q0 40 16 40q1 0 47.5 -8.5t85.5 -8.5q56 0 78.5 16.5t22.5 52.5q0 20 -8 31t-27 19l-128 54q-72 32 -72 121q0 134 161 134q71 0 136 -17q15 -4 20 -12.5t5 -33.5q0 -24 -4.5 -30.5t-13.5 -6.5q-1 0 -47 9t-81 9
q-44 0 -61 -12.5t-17 -40.5q0 -21 7.5 -32.5t27.5 -20.5l125 -50q42 -17 58.5 -44t16.5 -72q0 -158 -190 -158zM221 630h-5l-45 -68q-10 -14 -20 -18.5t-33 -4.5q-34 0 -34 18q0 8 11 29l57 94q6 12 15 16.5t31 4.5h40q22 0 31 -4.5t16 -16.5l56 -94q11 -18 11 -29
q0 -18 -34 -18q-22 0 -32 4.5t-20 18.5z" />
    <glyph glyph-name="Scedilla" unicode="&#x15e;" horiz-adv-x="458" 
d="M231 -213q-35 0 -56 5q-15 3 -21 10t-6 27q0 21 4.5 28t15.5 7q3 0 18.5 -2t29.5 -2q26 0 26 16q0 3 -1 5.5t-2 4.5t-4 4t-5.5 3.5t-7 4.5t-8.5 5q-18 10 -25 22t-7 35v33q-69 3 -115 17q-15 5 -21 14.5t-6 32.5q0 24 4 31.5t15 7.5q2 0 47.5 -8.5t90.5 -8.5
q67 0 96.5 20t29.5 69q0 37 -10 54.5t-39 30.5l-124 56q-53 24 -75 55t-22 96q0 50 13.5 84t39.5 50.5t54 22.5t65 6q86 0 154 -20q12 -3 17.5 -12t5.5 -33q0 -23 -4 -31t-14 -8q-4 0 -23.5 4.5t-50.5 8.5t-62 4q-58 0 -79 -13.5t-21 -62.5q0 -31 11 -45.5t41 -27.5l123 -55
q53 -23 74 -57.5t21 -100.5q0 -166 -166 -180v-19q0 -15 14 -24q37 -21 49 -37t12 -49q0 -78 -96 -78z" />
    <glyph glyph-name="scedilla" unicode="&#x15f;" horiz-adv-x="433" 
d="M219 -213q-35 0 -56 5q-15 3 -21 10t-6 27q0 21 4.5 28t15.5 7q3 0 18.5 -2t29.5 -2q26 0 26 16q0 3 -1 5.5t-2 4.5t-4 4t-5.5 3.5t-7 4.5t-8.5 5q-18 10 -25 22t-7 35v31q-61 5 -102 17q-15 5 -20.5 13.5t-5.5 29.5q0 40 16 40q1 0 47.5 -8.5t85.5 -8.5q56 0 78.5 16.5
t22.5 52.5q0 20 -8 31t-27 19l-128 54q-72 32 -72 121q0 134 161 134q71 0 136 -17q15 -4 20 -12.5t5 -33.5q0 -24 -4.5 -30.5t-13.5 -6.5q-1 0 -47 9t-81 9q-44 0 -61 -12.5t-17 -40.5q0 -21 7.5 -32.5t27.5 -20.5l125 -50q42 -17 58.5 -44t16.5 -72q0 -141 -150 -156v-17
q0 -15 14 -24q37 -21 49 -37t12 -49q0 -78 -96 -78z" />
    <glyph glyph-name="Scaron" unicode="&#x160;" horiz-adv-x="458" 
d="M213 -8q-84 0 -146 18q-15 5 -21 14.5t-6 32.5q0 24 4 31.5t15 7.5q2 0 47.5 -8.5t90.5 -8.5q67 0 96.5 20t29.5 69q0 37 -10 54.5t-39 30.5l-124 56q-53 24 -75 55t-22 96q0 50 13.5 84t39.5 50.5t54 22.5t65 6q86 0 154 -20q12 -3 17.5 -12t5.5 -33q0 -23 -4 -31
t-14 -8q-4 0 -23.5 4.5t-50.5 8.5t-62 4q-58 0 -79 -13.5t-21 -62.5q0 -31 11 -45.5t41 -27.5l123 -55q53 -23 74 -57.5t21 -100.5q0 -182 -205 -182zM105 807q0 17 34 17q24 0 34 -4t19 -18l45 -69h5l44 69q10 13 20 17.5t33 4.5q34 0 34 -17q0 -11 -11 -29l-56 -95
q-12 -21 -47 -21h-40q-22 0 -30.5 4.5t-15.5 16.5l-57 95q-11 18 -11 29z" />
    <glyph glyph-name="scaron" unicode="&#x161;" horiz-adv-x="433" 
d="M200 -10q-75 0 -132 18q-15 5 -20.5 13.5t-5.5 29.5q0 40 16 40q1 0 47.5 -8.5t85.5 -8.5q56 0 78.5 16.5t22.5 52.5q0 20 -8 31t-27 19l-128 54q-72 32 -72 121q0 134 161 134q71 0 136 -17q15 -4 20 -12.5t5 -33.5q0 -24 -4.5 -30.5t-13.5 -6.5q-1 0 -47 9t-81 9
q-44 0 -61 -12.5t-17 -40.5q0 -21 7.5 -32.5t27.5 -20.5l125 -50q42 -17 58.5 -44t16.5 -72q0 -158 -190 -158zM83 684q0 17 34 17q24 0 34 -4t19 -18l45 -69h5l44 69q10 13 20 17.5t33 4.5q34 0 34 -17q0 -11 -11 -29l-56 -95q-12 -21 -47 -21h-40q-22 0 -30.5 4.5
t-15.5 16.5l-57 95q-11 18 -11 29z" />
    <glyph glyph-name="Tcommaaccent" unicode="&#x162;" horiz-adv-x="434" 
d="M217 0q-30 0 -39.5 5.5t-9.5 24.5v501h-130q-16 0 -22 8.5t-6 34.5t6 35t22 9h358q16 0 22 -9t6 -35t-6 -34.5t-22 -8.5h-131v-501q0 -18 -9.5 -24t-38.5 -6zM189 -233q-18 0 -24 4t-6 14q0 5 5.5 49.5t5.5 81.5q0 24 9 31t40 7q30 0 40 -6t10 -23q0 -48 -11 -74l-21 -61
q-6 -14 -15 -18.5t-33 -4.5z" />
    <glyph glyph-name="tcommaaccent" unicode="&#x163;" horiz-adv-x="323" 
d="M201 -10q-58 0 -82.5 29t-24.5 96v297h-48q-14 0 -19 8t-5 31t5 31t19 8h48v74q0 19 10 24.5t39 5.5t38.5 -5.5t9.5 -24.5v-74h85q14 0 18.5 -8t4.5 -31t-4.5 -31t-18.5 -8h-85v-278q0 -38 7 -48t33 -10q14 0 32 2.5t21 2.5q10 0 14.5 -7.5t4.5 -29.5q0 -20 -6 -28
t-20 -13q-31 -13 -76 -13zM160 -233q-18 0 -24 4t-6 14q0 5 5.5 49.5t5.5 81.5q0 24 9 31t40 7q30 0 40 -6t10 -23q0 -48 -11 -74l-21 -61q-6 -14 -15 -18.5t-33 -4.5z" />
    <glyph glyph-name="Tcaron" unicode="&#x164;" horiz-adv-x="434" 
d="M217 0q-30 0 -39.5 5.5t-9.5 24.5v501h-130q-16 0 -22 8.5t-6 34.5t6 35t22 9h358q16 0 22 -9t6 -35t-6 -34.5t-22 -8.5h-131v-501q0 -18 -9.5 -24t-38.5 -6zM82 807q0 17 34 17q24 0 34 -4t19 -18l45 -69h5l44 69q10 13 20 17.5t33 4.5q34 0 34 -17q0 -11 -11 -29
l-56 -95q-12 -21 -47 -21h-40q-22 0 -30.5 4.5t-15.5 16.5l-57 95q-11 18 -11 29z" />
    <glyph glyph-name="tcaron" unicode="&#x165;" horiz-adv-x="466" 
d="M393 654q31 0 40 -7t9 -29v-27q0 -39 -14 -84l-16 -55q-8 -21 -17.5 -27t-34.5 -6q-18 0 -24 4t-6 14q0 6 6.5 51t6.5 74v56q0 22 9 29t41 7zM201 -10q-58 0 -82.5 29t-24.5 96v297h-48q-14 0 -19 8t-5 31t5 31t19 8h48v74q0 19 10 24.5t39 5.5t38.5 -5.5t9.5 -24.5v-74
h85q14 0 18.5 -8t4.5 -31t-4.5 -31t-18.5 -8h-85v-278q0 -38 7 -48t33 -10q14 0 32 2.5t21 2.5q10 0 14.5 -7.5t4.5 -29.5q0 -20 -6 -28t-20 -13q-31 -13 -76 -13z" />
    <glyph glyph-name="Tbar" unicode="&#x166;" horiz-adv-x="434" 
d="M217 0q-30 0 -39.5 5.5t-9.5 24.5v246h-109q-17 0 -22.5 7.5t-5.5 30.5t5.5 30t22.5 7h109v180h-130q-16 0 -22 8.5t-6 34.5t6 35t22 9h358q16 0 22 -9t6 -35t-6 -34.5t-22 -8.5h-131v-180h109q17 0 22.5 -7t5.5 -30t-5.5 -30.5t-22.5 -7.5h-109v-246q0 -18 -9.5 -24
t-38.5 -6z" />
    <glyph glyph-name="tbar" unicode="&#x167;" horiz-adv-x="323" 
d="M201 -10q-58 0 -82.5 29t-24.5 96v96h-47q-13 0 -17.5 7.5t-4.5 31.5q0 23 4.5 30.5t17.5 7.5h47v124h-48q-14 0 -19 8t-5 31t5 31t19 8h48v74q0 19 10 24.5t39 5.5t38.5 -5.5t9.5 -24.5v-74h85q14 0 18.5 -8t4.5 -31t-4.5 -31t-18.5 -8h-85v-124h83q14 0 18.5 -7.5
t4.5 -30.5q0 -24 -4.5 -31.5t-18.5 -7.5h-83v-77q0 -38 7 -48t33 -10q14 0 32 2.5t21 2.5q10 0 14.5 -7.5t4.5 -29.5q0 -20 -6 -28t-20 -13q-31 -13 -76 -13z" />
    <glyph glyph-name="Utilde" unicode="&#x168;" horiz-adv-x="524" 
d="M262 -8q-110 0 -157 42.5t-47 145.5v408q0 19 9.5 24.5t39.5 5.5q29 0 38.5 -6t9.5 -24v-412q0 -56 21.5 -77.5t85.5 -21.5q63 0 85 21.5t22 77.5v412q0 18 9.5 24t38.5 6t38.5 -6t9.5 -24v-408q0 -103 -46.5 -145.5t-156.5 -42.5zM126 715q0 20 5 28.5t19 17.5
q30 18 62 18q23 0 57 -10t50 -10q21 0 42 9t24 9q8 0 11 -6.5t3 -27.5q0 -19 -5.5 -28t-19.5 -18q-27 -18 -62 -18q-22 0 -56 10t-51 10q-20 0 -41 -9t-24 -9q-8 0 -11 6.5t-3 27.5z" />
    <glyph glyph-name="utilde" unicode="&#x169;" horiz-adv-x="503" 
d="M191 -10q-77 0 -106 30t-29 100v342q0 19 10 24.5t39 5.5t38.5 -5.5t9.5 -24.5v-319q0 -41 14.5 -55t59.5 -14q65 0 91 38t26 128v222q0 19 9.5 24.5t38.5 5.5t39 -5.5t10 -24.5v-271q0 -46 5.5 -83.5t11 -58.5t5.5 -26q0 -12 -9 -17.5t-37 -5.5q-25 0 -33.5 4.5
t-12.5 21.5l-14 53q-39 -89 -166 -89zM113 596q0 20 5 28.5t19 17.5q30 18 62 18q23 0 57 -10t50 -10q20 0 41.5 9t24.5 9q8 0 11 -6.5t3 -27.5q0 -19 -5.5 -28t-19.5 -18q-27 -18 -62 -18q-23 0 -57 10t-50 10q-20 0 -41 -9t-24 -9q-8 0 -11 6.5t-3 27.5z" />
    <glyph glyph-name="Umacron" unicode="&#x16a;" horiz-adv-x="524" 
d="M262 -8q-110 0 -157 42.5t-47 145.5v408q0 19 9.5 24.5t39.5 5.5q29 0 38.5 -6t9.5 -24v-412q0 -56 21.5 -77.5t85.5 -21.5q63 0 85 21.5t22 77.5v412q0 18 9.5 24t38.5 6t38.5 -6t9.5 -24v-408q0 -103 -46.5 -145.5t-156.5 -42.5zM154 731q0 26 5.5 34t22.5 8h159
q17 0 22 -8t5 -34q0 -25 -5 -33t-22 -8h-159q-17 0 -22.5 8t-5.5 33z" />
    <glyph glyph-name="umacron" unicode="&#x16b;" horiz-adv-x="503" 
d="M191 -10q-77 0 -106 30t-29 100v342q0 19 10 24.5t39 5.5t38.5 -5.5t9.5 -24.5v-319q0 -41 14.5 -55t59.5 -14q65 0 91 38t26 128v222q0 19 9.5 24.5t38.5 5.5t39 -5.5t10 -24.5v-271q0 -46 5.5 -83.5t11 -58.5t5.5 -26q0 -12 -9 -17.5t-37 -5.5q-25 0 -33.5 4.5
t-12.5 21.5l-14 53q-39 -89 -166 -89zM142 608q0 26 5.5 34t22.5 8h159q17 0 22 -8t5 -34q0 -25 -5 -33t-22 -8h-159q-17 0 -22.5 8t-5.5 33z" />
    <glyph glyph-name="Ubreve" unicode="&#x16c;" horiz-adv-x="524" 
d="M262 -8q-110 0 -157 42.5t-47 145.5v408q0 19 9.5 24.5t39.5 5.5q29 0 38.5 -6t9.5 -24v-412q0 -56 21.5 -77.5t85.5 -21.5q63 0 85 21.5t22 77.5v412q0 18 9.5 24t38.5 6t38.5 -6t9.5 -24v-408q0 -103 -46.5 -145.5t-156.5 -42.5zM262 672q-67 0 -91 22.5t-24 79.5
q0 19 6.5 24.5t29.5 5.5q22 0 28 -4.5t7 -20.5q1 -15 3.5 -21.5t11.5 -10t29 -3.5q28 0 35 6.5t8 28.5q1 16 7.5 20.5t28.5 4.5q23 0 29 -5.5t6 -24.5q0 -57 -23.5 -79.5t-90.5 -22.5z" />
    <glyph glyph-name="ubreve" unicode="&#x16d;" horiz-adv-x="503" 
d="M191 -10q-77 0 -106 30t-29 100v342q0 19 10 24.5t39 5.5t38.5 -5.5t9.5 -24.5v-319q0 -41 14.5 -55t59.5 -14q65 0 91 38t26 128v222q0 19 9.5 24.5t38.5 5.5t39 -5.5t10 -24.5v-271q0 -46 5.5 -83.5t11 -58.5t5.5 -26q0 -12 -9 -17.5t-37 -5.5q-25 0 -33.5 4.5
t-12.5 21.5l-14 53q-39 -89 -166 -89zM249 551q-67 0 -91 22.5t-24 79.5q0 19 6.5 24.5t29.5 5.5q22 0 28 -4.5t7 -20.5q1 -15 3.5 -21.5t11.5 -10t29 -3.5q28 0 35 6.5t8 28.5q1 16 7.5 20.5t28.5 4.5q23 0 29 -5.5t6 -24.5q0 -57 -23.5 -79.5t-90.5 -22.5z" />
    <glyph glyph-name="Uring" unicode="&#x16e;" horiz-adv-x="524" 
d="M262 -8q-110 0 -157 42.5t-47 145.5v408q0 19 9.5 24.5t39.5 5.5q29 0 38.5 -6t9.5 -24v-412q0 -56 21.5 -77.5t85.5 -21.5q63 0 85 21.5t22 77.5v412q0 18 9.5 24t38.5 6t38.5 -6t9.5 -24v-408q0 -103 -46.5 -145.5t-156.5 -42.5zM261 734q29 0 36.5 6.5t7.5 27.5
t-7.5 28t-36.5 7q-28 0 -35 -6.5t-7 -28.5q0 -21 7 -27.5t35 -6.5zM261 671q-65 0 -89 21t-24 76t24 76t89 21q66 0 90 -21t24 -76t-24 -76t-90 -21z" />
    <glyph glyph-name="uring" unicode="&#x16f;" horiz-adv-x="503" 
d="M191 -10q-77 0 -106 30t-29 100v342q0 19 10 24.5t39 5.5t38.5 -5.5t9.5 -24.5v-319q0 -41 14.5 -55t59.5 -14q65 0 91 38t26 128v222q0 19 9.5 24.5t38.5 5.5t39 -5.5t10 -24.5v-271q0 -46 5.5 -83.5t11 -58.5t5.5 -26q0 -12 -9 -17.5t-37 -5.5q-25 0 -33.5 4.5
t-12.5 21.5l-14 53q-39 -89 -166 -89zM248 613q29 0 36.5 6.5t7.5 27.5t-7.5 28t-36.5 7q-28 0 -35 -6.5t-7 -28.5q0 -21 7 -27.5t35 -6.5zM248 550q-65 0 -89 21t-24 76t24 76t89 21q66 0 90 -21t24 -76t-24 -76t-90 -21z" />
    <glyph glyph-name="Uhungarumlaut" unicode="&#x170;" horiz-adv-x="524" 
d="M262 -8q-110 0 -157 42.5t-47 145.5v408q0 19 9.5 24.5t39.5 5.5q29 0 38.5 -6t9.5 -24v-412q0 -56 21.5 -77.5t85.5 -21.5q63 0 85 21.5t22 77.5v412q0 18 9.5 24t38.5 6t38.5 -6t9.5 -24v-408q0 -103 -46.5 -145.5t-156.5 -42.5zM145 680q0 13 42 124q3 12 13 16t41 4
q28 0 37 -3q12 -4 12 -15q0 -13 -57 -122q-6 -13 -15 -17.5t-36 -4.5q-23 0 -30 4t-7 14zM281 680q0 11 58 125q5 11 15 15t39 4q25 0 37 -3q12 -4 12 -15q0 -16 -73 -122q-7 -13 -16.5 -17.5t-36.5 -4.5q-35 0 -35 18z" />
    <glyph glyph-name="uhungarumlaut" unicode="&#x171;" horiz-adv-x="503" 
d="M191 -10q-77 0 -106 30t-29 100v342q0 19 10 24.5t39 5.5t38.5 -5.5t9.5 -24.5v-319q0 -41 14.5 -55t59.5 -14q65 0 91 38t26 128v222q0 19 9.5 24.5t38.5 5.5t39 -5.5t10 -24.5v-271q0 -46 5.5 -83.5t11 -58.5t5.5 -26q0 -12 -9 -17.5t-37 -5.5q-25 0 -33.5 4.5
t-12.5 21.5l-14 53q-39 -89 -166 -89zM129 557q0 13 42 124q3 12 13 16t41 4q28 0 37 -3q12 -4 12 -15q0 -13 -57 -122q-6 -13 -15 -17.5t-36 -4.5q-23 0 -30 4t-7 14zM265 557q0 11 58 125q5 11 15 15t39 4q25 0 37 -3q12 -4 12 -15q0 -16 -73 -122q-7 -13 -16.5 -17.5
t-36.5 -4.5q-35 0 -35 18z" />
    <glyph glyph-name="Uogonek" unicode="&#x172;" horiz-adv-x="524" 
d="M360 -5q-82 -40 -82 -90q0 -13 3.5 -17t13.5 -4q9 0 18 1t13 1q10 0 14 -6.5t4 -26.5t-5.5 -27t-21.5 -12q-26 -8 -56 -8q-37 0 -55 16.5t-18 55.5q0 68 62 114q-104 2 -148 44.5t-44 143.5v408q0 19 9.5 24.5t39.5 5.5q29 0 38.5 -6t9.5 -24v-412q0 -56 21.5 -77.5
t85.5 -21.5q63 0 85 21.5t22 77.5v412q0 18 9.5 24t38.5 6t38.5 -6t9.5 -24v-408q0 -71 -22 -113t-83 -72z" />
    <glyph glyph-name="uogonek" unicode="&#x173;" horiz-adv-x="503" 
d="M379 -194q-37 0 -55 16.5t-18 55.5q0 34 16.5 62t58.5 67q-3 5 -6 13l-18 58q-39 -88 -166 -88q-77 0 -106 30t-29 100v342q0 19 10 24.5t39 5.5t38.5 -5.5t9.5 -24.5v-319q0 -41 14.5 -55t59.5 -14q65 0 91 38t26 128v222q0 19 9.5 24.5t38.5 5.5t39 -5.5t10 -24.5v-271
q0 -46 5.5 -83.5t11 -58.5t5.5 -26q0 -16 -29 -50q-38 -43 -38 -68q0 -13 3.5 -17t13.5 -4q9 0 18 1t13 1q10 0 14.5 -6.5t4.5 -26.5t-6 -27t-22 -12q-24 -8 -56 -8z" />
    <glyph glyph-name="Wcircumflex" unicode="&#x174;" horiz-adv-x="798" 
d="M213 0q-45 0 -62 7t-22 32l-110 527q-3 15 -3 29q0 13 9 18t37 5q31 0 42 -5t14 -22l95 -501h11l106 486q4 20 19 26t50 6t50.5 -6.5t19.5 -25.5l105 -486h12l95 501q1 16 12 21.5t43 5.5q28 0 37 -5t9 -18q0 -14 -3 -29l-110 -527q-5 -25 -22 -32t-62 -7q-43 0 -60 8
t-23 33l-98 438h-10l-98 -438q-6 -25 -23 -33t-60 -8zM402 753h-5l-45 -68q-10 -14 -20 -18.5t-33 -4.5q-34 0 -34 18q0 8 11 29l57 94q6 12 15 16.5t31 4.5h40q22 0 31 -4.5t16 -16.5l56 -94q11 -18 11 -29q0 -18 -34 -18q-22 0 -32 4.5t-20 18.5z" />
    <glyph glyph-name="wcircumflex" unicode="&#x175;" horiz-adv-x="703" 
d="M190 0q-42 0 -58 7t-20 29l-84 389q-6 25 -6 39q0 17 9 22.5t39 5.5q32 0 42 -5.5t14 -25.5l71 -374h11l79 360q4 21 17.5 28t47.5 7t47.5 -7t17.5 -28l79 -360h11l71 374q4 20 13.5 25.5t41.5 5.5q31 0 39.5 -5.5t8.5 -22.5q0 -18 -5 -39l-85 -389q-4 -22 -20 -29
t-58 -7q-45 0 -63.5 7t-23.5 29l-71 309h-7l-71 -309q-5 -22 -23 -29t-64 -7zM354 630h-5l-45 -68q-10 -14 -20 -18.5t-33 -4.5q-34 0 -34 18q0 8 11 29l57 94q6 12 15 16.5t31 4.5h40q22 0 31 -4.5t16 -16.5l56 -94q11 -18 11 -29q0 -18 -34 -18q-22 0 -32 4.5t-20 18.5z
" />
    <glyph glyph-name="Ycircumflex" unicode="&#x176;" horiz-adv-x="463" 
d="M232 0q-30 0 -39.5 5.5t-9.5 24.5v203l-155 324q-12 26 -12 38q0 23 43 23q34 0 45.5 -5t18.5 -22l106 -255h5l106 255q7 17 18 22t44 5q46 0 46 -22q0 -10 -13 -39l-155 -324v-203q0 -18 -9.5 -24t-38.5 -6zM235 753h-5l-45 -68q-10 -14 -20 -18.5t-33 -4.5
q-34 0 -34 18q0 8 11 29l57 94q6 12 15 16.5t31 4.5h40q22 0 31 -4.5t16 -16.5l56 -94q11 -18 11 -29q0 -18 -34 -18q-22 0 -32 4.5t-20 18.5z" />
    <glyph glyph-name="ycircumflex" unicode="&#x177;" horiz-adv-x="461" 
d="M22 467q0 13 9.5 19t40.5 6q29 0 39 -4.5t14 -20.5l100 -384h9l102 384q4 16 13.5 20.5t38.5 4.5q31 0 41.5 -5.5t10.5 -18.5q0 -16 -14 -61l-136 -448q-27 -91 -55.5 -122t-96.5 -31q-50 0 -88 12q-14 4 -19.5 12t-5.5 28q0 40 18 40q2 0 29.5 -4t54.5 -4q35 0 49 11.5
t23 46.5l13 52q-33 1 -46.5 11.5t-22.5 38.5l-105 344q-16 52 -16 73zM234 630h-5l-45 -68q-10 -14 -20 -18.5t-33 -4.5q-34 0 -34 18q0 8 11 29l57 94q6 12 15 16.5t31 4.5h40q22 0 31 -4.5t16 -16.5l56 -94q11 -18 11 -29q0 -18 -34 -18q-22 0 -32 4.5t-20 18.5z" />
    <glyph glyph-name="Ydieresis" unicode="&#x178;" horiz-adv-x="463" 
d="M232 0q-30 0 -39.5 5.5t-9.5 24.5v203l-155 324q-12 26 -12 38q0 23 43 23q34 0 45.5 -5t18.5 -22l106 -255h5l106 255q7 17 18 22t44 5q46 0 46 -22q0 -10 -13 -39l-155 -324v-203q0 -18 -9.5 -24t-38.5 -6zM155 687q-32 0 -41.5 7t-9.5 30v19q0 22 9.5 29t41.5 7
t41.5 -7t9.5 -29v-19q0 -23 -9.5 -30t-41.5 -7zM311 687q-32 0 -41.5 7t-9.5 30v19q0 22 9.5 29t41.5 7t41 -7t9 -29v-19q0 -23 -9 -30t-41 -7z" />
    <glyph glyph-name="Zacute" unicode="&#x179;" horiz-adv-x="411" 
d="M278 531h-215q-16 0 -22 8.5t-6 34.5t6 35t22 9h301q16 0 21.5 -8.5t5.5 -33.5q0 -26 -21 -64l-241 -425h236q16 0 22 -9t6 -35t-6 -34.5t-22 -8.5h-321q-17 0 -22.5 8.5t-5.5 33.5q0 27 23 67zM190 662q-41 0 -41 18q0 8 11 30l41 83q10 20 19 25.5t40 5.5q53 0 53 -18
q0 -12 -15 -36l-51 -82q-7 -11 -11 -15t-15 -7.5t-31 -3.5z" />
    <glyph glyph-name="zacute" unicode="&#x17a;" horiz-adv-x="398" 
d="M371 42q0 -42 -24 -42h-298q-14 0 -19 8.5t-5 30.5q0 39 24 73l215 297h-195q-14 0 -19 9.5t-5 31.5q0 42 24 42h278q24 0 24 -39q0 -38 -21 -67l-218 -303h215q14 0 19 -9.5t5 -31.5zM185 539q-41 0 -41 18q0 8 11 30l41 83q10 20 19 25.5t40 5.5q53 0 53 -18
q0 -12 -15 -36l-51 -82q-7 -11 -11 -15t-15 -7.5t-31 -3.5z" />
    <glyph glyph-name="Zdotaccent" unicode="&#x17b;" horiz-adv-x="411" 
d="M278 531h-215q-16 0 -22 8.5t-6 34.5t6 35t22 9h301q16 0 21.5 -8.5t5.5 -33.5q0 -26 -21 -64l-241 -425h236q16 0 22 -9t6 -35t-6 -34.5t-22 -8.5h-321q-17 0 -22.5 8.5t-5.5 33.5q0 27 23 67zM211 687q-34 0 -43.5 7t-9.5 30v19q0 22 9.5 29t43.5 7q35 0 44.5 -7
t9.5 -29v-19q0 -23 -9.5 -30t-44.5 -7z" />
    <glyph glyph-name="zdotaccent" unicode="&#x17c;" horiz-adv-x="398" 
d="M371 42q0 -42 -24 -42h-298q-14 0 -19 8.5t-5 30.5q0 39 24 73l215 297h-195q-14 0 -19 9.5t-5 31.5q0 42 24 42h278q24 0 24 -39q0 -38 -21 -67l-218 -303h215q14 0 19 -9.5t5 -31.5zM206 562q-34 0 -43.5 7t-9.5 30v19q0 22 9.5 29t43.5 7q35 0 44.5 -7t9.5 -29v-19
q0 -23 -9.5 -30t-44.5 -7z" />
    <glyph glyph-name="Zcaron" unicode="&#x17d;" horiz-adv-x="411" 
d="M278 531h-215q-16 0 -22 8.5t-6 34.5t6 35t22 9h301q16 0 21.5 -8.5t5.5 -33.5q0 -26 -21 -64l-241 -425h236q16 0 22 -9t6 -35t-6 -34.5t-22 -8.5h-321q-17 0 -22.5 8.5t-5.5 33.5q0 27 23 67zM77 807q0 17 34 17q24 0 34 -4t19 -18l45 -69h5l44 69q10 13 20 17.5
t33 4.5q34 0 34 -17q0 -11 -11 -29l-56 -95q-12 -21 -47 -21h-40q-22 0 -30.5 4.5t-15.5 16.5l-57 95q-11 18 -11 29z" />
    <glyph glyph-name="zcaron" unicode="&#x17e;" horiz-adv-x="398" 
d="M371 42q0 -42 -24 -42h-298q-14 0 -19 8.5t-5 30.5q0 39 24 73l215 297h-195q-14 0 -19 9.5t-5 31.5q0 42 24 42h278q24 0 24 -39q0 -38 -21 -67l-218 -303h215q14 0 19 -9.5t5 -31.5zM73 684q0 17 34 17q24 0 34 -4t19 -18l45 -69h5l44 69q10 13 20 17.5t33 4.5
q34 0 34 -17q0 -11 -11 -29l-56 -95q-12 -21 -47 -21h-40q-22 0 -30.5 4.5t-15.5 16.5l-57 95q-11 18 -11 29z" />
    <glyph glyph-name="florin" unicode="&#x192;" 
d="M110 388q0 23 5 30.5t19 7.5h61l10 76q9 68 34 94.5t82 26.5q39 0 73 -9q15 -4 20.5 -10.5t5.5 -27.5q0 -38 -18 -38q-3 0 -23.5 2.5t-36.5 2.5q-25 0 -32 -10t-12 -52l-7 -55h64q14 0 19 -7.5t5 -30.5q0 -22 -5 -29.5t-19 -7.5h-73l-28 -240q-8 -68 -33.5 -94.5
t-83.5 -26.5q-36 0 -70 9q-15 4 -20.5 10.5t-5.5 26.5q0 39 19 39q3 0 21.5 -2.5t34.5 -2.5q25 0 32.5 10.5t11.5 51.5l26 219h-52q-14 0 -19 7.5t-5 29.5z" />
    <glyph glyph-name="AEacute" unicode="&#x1fc;" horiz-adv-x="725" 
d="M62 0q-28 0 -37 5t-9 18q0 8 6 29l149 522q8 29 24 36.5t67 7.5h398q16 0 22 -9t6 -35t-6 -34.5t-22 -8.5h-231v-163h173q17 0 22.5 -8t5.5 -35q0 -26 -5.5 -34t-22.5 -8h-173v-196h241q16 0 22 -9t6 -35t-6 -34.5t-22 -8.5h-305q-20 0 -26.5 5.5t-6.5 22.5v149h-175
l-40 -150q-5 -17 -14.5 -22t-40.5 -5zM255 535l-77 -282h154v282h-77zM386 662q-41 0 -41 18q0 8 11 30l41 83q10 20 19 25.5t40 5.5q53 0 53 -18q0 -12 -15 -36l-51 -82q-7 -11 -11 -15t-15 -7.5t-31 -3.5z" />
    <glyph glyph-name="aeacute" unicode="&#x1fd;" horiz-adv-x="743" 
d="M508 -10q-83 0 -121 20t-50 87q-20 -54 -65 -80.5t-105 -26.5q-67 0 -98 33.5t-31 109.5q0 78 41 111.5t144 33.5h99v65q0 49 -18.5 62.5t-69.5 13.5q-45 0 -95.5 -9t-52.5 -9q-18 0 -18 39q0 21 5 29.5t17 12.5q66 20 154 20q108 0 141 -38q43 38 143 38q57 0 91.5 -13
t52.5 -45t23.5 -71t5.5 -104q0 -26 -8 -37t-32 -11h-243q1 -69 11.5 -100t29 -39t61.5 -8q41 0 77 5t56.5 9.5t24.5 4.5q16 0 16 -39q0 -21 -5 -29.5t-20 -13.5q-59 -21 -161 -21zM199 70q52 0 87.5 29.5t35.5 84.5v33l-101 -3q-54 -2 -72 -16.5t-18 -54.5q0 -45 15 -59
t53 -14zM520 421q-60 0 -80 -24.5t-22 -111.5h190q0 80 -14.5 108t-73.5 28zM373 539q-41 0 -41 18q0 8 11 30l41 83q10 20 19 25.5t40 5.5q53 0 53 -18q0 -12 -15 -36l-51 -82q-7 -11 -11 -15t-15 -7.5t-31 -3.5z" />
    <glyph glyph-name="Oslashacute" unicode="&#x1fe;" horiz-adv-x="526" 
d="M238 662q-41 0 -41 18q0 8 11 30l41 83q10 20 19 25.5t40 5.5q53 0 53 -18q0 -12 -15 -36l-51 -82q-7 -11 -11 -15t-15 -7.5t-31 -3.5zM263 -8q-63 0 -98 8t-65.5 36t-42.5 85.5t-12 152.5v63q0 97 10 153t38.5 86t65.5 38.5t104 8.5t104 -8.5t65.5 -38.5t38.5 -86
t10 -153v-63q0 -95 -12 -152.5t-42.5 -85.5t-65.5 -36t-98 -8zM142 333q0 -106 2 -128l225 286q-11 29 -34.5 38.5t-71.5 9.5q-43 0 -64 -5.5t-35.5 -29t-18 -61t-3.5 -110.5zM263 76q53 0 76.5 13.5t34 56t10.5 136.5q0 44 -0.5 79t-0.5 37l-220 -280q13 -26 35 -34t65 -8z
" />
    <glyph glyph-name="oslashacute" unicode="&#x1ff;" horiz-adv-x="500" 
d="M228 539q-41 0 -41 18q0 8 11 30l41 83q10 20 19 25.5t40 5.5q53 0 53 -18q0 -12 -15 -36l-51 -82q-7 -11 -11 -15t-15 -7.5t-31 -3.5zM242 -10q-78 0 -117.5 19.5t-58 73t-18.5 159.5q0 153 46 206.5t164 53.5q78 0 117 -19t57.5 -72t18.5 -159q0 -154 -46 -208
t-163 -54zM244 72q68 0 88.5 32.5t20.5 138.5q0 48 -3 81l-186 -220q18 -32 80 -32zM147 251q0 -58 2 -80l185 219q-18 30 -80 30q-67 0 -87 -32t-20 -137z" />
    <glyph glyph-name="Scommaaccent" unicode="&#x218;" horiz-adv-x="458" 
d="M213 -8q-84 0 -146 18q-15 5 -21 14.5t-6 32.5q0 24 4 31.5t15 7.5q2 0 47.5 -8.5t90.5 -8.5q67 0 96.5 20t29.5 69q0 37 -10 54.5t-39 30.5l-124 56q-53 24 -75 55t-22 96q0 50 13.5 84t39.5 50.5t54 22.5t65 6q86 0 154 -20q12 -3 17.5 -12t5.5 -33q0 -23 -4 -31
t-14 -8q-4 0 -23.5 4.5t-50.5 8.5t-62 4q-58 0 -79 -13.5t-21 -62.5q0 -31 11 -45.5t41 -27.5l123 -55q53 -23 74 -57.5t21 -100.5q0 -182 -205 -182zM211 -233q-18 0 -24 4t-6 14q0 5 5.5 49.5t5.5 81.5q0 24 9 31t40 7q30 0 40 -6t10 -23q0 -48 -11 -74l-21 -61
q-6 -14 -15 -18.5t-33 -4.5z" />
    <glyph glyph-name="scommaaccent" unicode="&#x219;" horiz-adv-x="433" 
d="M200 -10q-75 0 -132 18q-15 5 -20.5 13.5t-5.5 29.5q0 40 16 40q1 0 47.5 -8.5t85.5 -8.5q56 0 78.5 16.5t22.5 52.5q0 20 -8 31t-27 19l-128 54q-72 32 -72 121q0 134 161 134q71 0 136 -17q15 -4 20 -12.5t5 -33.5q0 -24 -4.5 -30.5t-13.5 -6.5q-1 0 -47 9t-81 9
q-44 0 -61 -12.5t-17 -40.5q0 -21 7.5 -32.5t27.5 -20.5l125 -50q42 -17 58.5 -44t16.5 -72q0 -158 -190 -158zM192 -233q-18 0 -24 4t-6 14q0 5 5.5 49.5t5.5 81.5q0 24 9 31t40 7q30 0 40 -6t10 -23q0 -48 -11 -74l-21 -61q-6 -14 -15 -18.5t-33 -4.5z" />
    <glyph glyph-name="dotlessj" unicode="&#x237;" horiz-adv-x="214" 
d="M105 492q29 0 38.5 -5.5t9.5 -24.5v-531q0 -67 -26.5 -96t-82.5 -29q-42 0 -74 10q-15 4 -21 12t-6 29q0 24 4 31t15 7q3 0 22 -2.5t32 -2.5q25 0 32.5 10.5t7.5 50.5v511q0 19 10 24.5t39 5.5z" />
    <glyph glyph-name="circumflex" unicode="&#x2c6;" horiz-adv-x="321" 
d="M174 630h-5l-45 -68q-10 -14 -20 -18.5t-33 -4.5q-34 0 -34 18q0 8 11 29l57 94q6 12 15 16.5t31 4.5h40q22 0 31 -4.5t16 -16.5l56 -94q11 -18 11 -29q0 -18 -34 -18q-22 0 -32 4.5t-20 18.5z" />
    <glyph glyph-name="caron" unicode="&#x2c7;" horiz-adv-x="321" 
d="M26 684q0 17 34 17q24 0 34 -4t19 -18l45 -69h5l44 69q10 13 20 17.5t33 4.5q34 0 34 -17q0 -11 -11 -29l-56 -95q-12 -21 -47 -21h-40q-22 0 -30.5 4.5t-15.5 16.5l-57 95q-11 18 -11 29z" />
    <glyph glyph-name="breve" unicode="&#x2d8;" horiz-adv-x="281" 
d="M141 551q-67 0 -91 22.5t-24 79.5q0 19 6.5 24.5t29.5 5.5q22 0 28 -4.5t7 -20.5q1 -15 3.5 -21.5t11.5 -10t29 -3.5q28 0 35 6.5t8 28.5q1 16 7.5 20.5t28.5 4.5q23 0 29 -5.5t6 -24.5q0 -57 -23.5 -79.5t-90.5 -22.5z" />
    <glyph glyph-name="dotaccent" unicode="&#x2d9;" horiz-adv-x="159" 
d="M78 562q-34 0 -43.5 7t-9.5 30v19q0 22 9.5 29t43.5 7q35 0 44.5 -7t9.5 -29v-19q0 -23 -9.5 -30t-44.5 -7z" />
    <glyph glyph-name="ring" unicode="&#x2da;" horiz-adv-x="279" 
d="M139 613q29 0 36.5 6.5t7.5 27.5t-7.5 28t-36.5 7q-28 0 -35 -6.5t-7 -28.5q0 -21 7 -27.5t35 -6.5zM139 550q-65 0 -89 21t-24 76t24 76t89 21q66 0 90 -21t24 -76t-24 -76t-90 -21z" />
    <glyph glyph-name="ogonek" unicode="&#x2db;" horiz-adv-x="209" 
d="M99 -194q-37 0 -55 16.5t-18 55.5q0 30 16 59t35 50t67 67h39q0 -22 -6.5 -37t-26.5 -43q-34 -47 -34 -69q0 -13 3.5 -17t14.5 -4q8 0 17 1t13 1q10 0 14.5 -6.5t4.5 -26.5t-6 -27t-22 -12q-24 -8 -56 -8z" />
    <glyph glyph-name="tilde" unicode="&#x2dc;" horiz-adv-x="325" 
d="M26 596q0 20 5 28.5t19 17.5q30 18 62 18q23 0 57 -10t50 -10q21 0 42 9t24 9q8 0 11 -6.5t3 -27.5q0 -19 -5.5 -28t-19.5 -18q-27 -18 -62 -18q-22 0 -56.5 10t-50.5 10q-20 0 -41 -9t-24 -9q-8 0 -11 6.5t-3 27.5z" />
    <glyph glyph-name="hungarumlaut" unicode="&#x2dd;" horiz-adv-x="349" 
d="M26 557q0 13 42 124q3 12 12.5 16t41.5 4q28 0 37 -3q12 -4 12 -15q0 -13 -57 -122q-6 -13 -15 -17.5t-36 -4.5q-23 0 -30 4t-7 14zM162 557q0 11 58 125q5 11 15 15t39 4q25 0 37 -3q12 -4 12 -15q0 -16 -73 -122q-7 -13 -16.5 -17.5t-36.5 -4.5q-35 0 -35 18z" />
    <glyph glyph-name="afii10023" unicode="&#x401;" horiz-adv-x="455" 
d="M428 43q0 -26 -6 -34.5t-22 -8.5h-309q-20 0 -26.5 5.5t-6.5 22.5v562q0 17 6.5 22.5t26.5 5.5h299q16 0 22 -9t6 -35t-6 -34.5t-22 -8.5h-235v-163h177q17 0 22.5 -8t5.5 -35q0 -26 -5.5 -34t-22.5 -8h-177v-196h245q16 0 22 -9t6 -35zM155 688q-32 0 -41.5 7t-9.5 30
v19q0 22 9.5 29t41.5 7t41.5 -7t9.5 -29v-19q0 -23 -9.5 -30t-41.5 -7zM311 688q-32 0 -41.5 7t-9.5 30v19q0 22 9.5 29t41.5 7t41 -7t9 -29v-19q0 -23 -9 -30t-41 -7z" />
    <glyph glyph-name="afii10051" unicode="&#x402;" horiz-adv-x="582" 
d="M207 0q-29 0 -39 5.5t-10 24.5v501h-120q-16 0 -22 8.5t-6 34.5t6 35t22 9h342q16 0 21.5 -8.5t5.5 -35.5q0 -26 -5.5 -34.5t-21.5 -8.5h-125v-143q38 72 140 72q73 0 100.5 -31.5t27.5 -102.5v-213q0 -64 -25 -91t-77 -27q-35 0 -64 8q-16 4 -22 12.5t-6 30.5
q0 24 4 30.5t14 6.5q3 0 18.5 -2t26.5 -2q22 0 28.5 10.5t6.5 50.5v164q0 41 -15 56.5t-59 15.5q-51 0 -74.5 -35t-23.5 -113v-198q0 -19 -9.5 -24.5t-38.5 -5.5z" />
    <glyph glyph-name="afii10052" unicode="&#x403;" horiz-adv-x="404" 
d="M185 674q-41 0 -41 18q0 8 11 30l41 83q10 20 19 25.5t40 5.5q53 0 53 -18q0 -12 -15 -36l-51 -82q-7 -11 -11 -15t-15 -7.5t-31 -3.5zM107 0q-30 0 -39.5 5.5t-9.5 24.5v560q0 17 6.5 22.5t26.5 5.5h269q16 0 22 -9t6 -35t-6 -34.5t-22 -8.5h-205v-501q0 -18 -9.5 -24
t-38.5 -6z" />
    <glyph glyph-name="afii10053" unicode="&#x404;" horiz-adv-x="452" 
d="M367 320q0 -25 -5.5 -32.5t-22.5 -7.5h-201q0 -58 4.5 -94.5t12 -59t25 -32.5t35 -13t51.5 -3t64.5 4t49 7.5t23.5 3.5q10 0 13.5 -7.5t3.5 -30.5q0 -25 -5.5 -33.5t-18.5 -11.5q-70 -18 -147 -18q-40 0 -65.5 3.5t-54.5 19t-45.5 43.5t-27.5 79.5t-11 124.5v81
q0 55 5.5 97.5t14 72t24 50t31.5 32t39.5 18t44.5 8.5t51 2q72 0 141 -18q13 -3 18.5 -11.5t5.5 -32.5q0 -38 -17 -38l-43 7q-42 7 -81 7q-60 0 -86.5 -10.5t-40 -47.5t-14.5 -119h201q17 0 22.5 -7.5t5.5 -32.5z" />
    <glyph glyph-name="afii10054" unicode="&#x405;" horiz-adv-x="458" 
d="M213 -8q-84 0 -146 18q-15 5 -21 14.5t-6 32.5q0 24 4 31.5t15 7.5q2 0 47.5 -8.5t90.5 -8.5q67 0 96.5 20t29.5 69q0 37 -10 54.5t-39 30.5l-124 56q-53 24 -75 55t-22 96q0 50 13.5 84t39.5 50.5t54 22.5t65 6q86 0 154 -20q12 -3 17.5 -12t5.5 -33q0 -23 -4 -31
t-14 -8q-4 0 -23.5 4.5t-50.5 8.5t-62 4q-58 0 -79 -13.5t-21 -62.5q0 -31 11 -45.5t41 -27.5l123 -55q53 -23 74 -57.5t21 -100.5q0 -182 -205 -182z" />
    <glyph glyph-name="afii10055" unicode="&#x406;" horiz-adv-x="213" 
d="M107 0q-30 0 -39.5 5.5t-9.5 24.5v558q0 19 9.5 24.5t39.5 5.5q29 0 38.5 -6t9.5 -24v-558q0 -18 -9.5 -24t-38.5 -6z" />
    <glyph glyph-name="afii10056" unicode="&#x407;" horiz-adv-x="213" 
d="M107 0q-30 0 -39.5 5.5t-9.5 24.5v558q0 19 9.5 24.5t39.5 5.5q29 0 38.5 -6t9.5 -24v-558q0 -18 -9.5 -24t-38.5 -6zM29 685q-32 0 -41.5 7t-9.5 30v19q0 22 9.5 29t41.5 7t41.5 -7t9.5 -29v-19q0 -23 -9.5 -30t-41.5 -7zM185 685q-32 0 -41.5 7t-9.5 30v19q0 22 9.5 29
t41.5 7t41 -7t9 -29v-19q0 -23 -9 -30t-41 -7z" />
    <glyph glyph-name="afii10057" unicode="&#x408;" horiz-adv-x="341" 
d="M134 -8q-54 0 -99 13q-15 4 -21 12.5t-6 32.5t3.5 30.5t14.5 6.5q4 0 33 -4.5t52 -4.5q45 0 60 16.5t15 66.5v427q0 18 9.5 24t38.5 6t38.5 -6t9.5 -24v-430q0 -89 -35.5 -127.5t-112.5 -38.5z" />
    <glyph glyph-name="afii10058" unicode="&#x409;" horiz-adv-x="841" 
d="M95 -8q-29 0 -58 6q-16 3 -21.5 12t-5.5 33q0 22 4 28.5t14 6.5q6 0 17 -1.5t20 -1.5q17 0 23.5 8.5t9.5 37.5l49 470q2 16 7.5 21.5t25.5 5.5h277q20 0 26.5 -5.5t6.5 -22.5v-229q70 8 144 8q99 0 132 -42t33 -148q0 -108 -42 -147.5t-168 -39.5q-93 0 -162 8
q-21 2 -27.5 9t-6.5 25v497h-160l-48 -452q-5 -45 -24.5 -66t-65.5 -21zM594 290q-16 0 -104 -4v-210q42 -5 103 -5q70 0 88 19.5t18 91.5q0 68 -19.5 88t-85.5 20z" />
    <glyph glyph-name="afii10059" unicode="&#x40a;" horiz-adv-x="817" 
d="M107 0q-30 0 -39.5 5.5t-9.5 24.5v558q0 19 9.5 24.5t39.5 5.5q29 0 38.5 -6t9.5 -24v-228h214v228q0 19 9.5 24.5t39.5 5.5q29 0 38.5 -6t9.5 -24v-227q70 8 144 8q99 0 132 -42t33 -148q0 -108 -42 -147.5t-168 -39.5q-93 0 -162 8q-21 2 -27.5 9t-6.5 25v242h-214
v-246q0 -18 -9.5 -24t-38.5 -6zM570 290q-16 0 -104 -4v-210q42 -5 103 -5q70 0 88.5 19.5t18.5 91.5q0 68 -20 88t-86 20z" />
    <glyph glyph-name="afii10060" unicode="&#x40b;" horiz-adv-x="582" 
d="M207 0q-29 0 -39 5.5t-10 24.5v501h-120q-16 0 -22 8.5t-6 34.5t6 35t22 9h342q16 0 21.5 -8.5t5.5 -35.5q0 -26 -5.5 -34.5t-21.5 -8.5h-125v-143q38 72 140 72q73 0 100.5 -31.5t27.5 -102.5v-296q0 -19 -9.5 -24.5t-38.5 -5.5t-38.5 5.5t-9.5 24.5v274q0 41 -15 56.5
t-59 15.5q-51 0 -74.5 -35t-23.5 -113v-198q0 -19 -9.5 -24.5t-38.5 -5.5z" />
    <glyph glyph-name="afii10061" unicode="&#x40c;" horiz-adv-x="469" 
d="M107 0q-30 0 -39.5 5.5t-9.5 24.5v558q0 19 9.5 24.5t39.5 5.5q29 0 38.5 -6t9.5 -24v-242h15l164 249q9 14 20.5 18.5t42.5 4.5q45 0 45 -20q0 -14 -12 -31l-177 -253l184 -254q17 -24 17 -38q0 -22 -49 -22q-26 0 -37.5 4.5t-21.5 18.5l-177 258h-14v-251
q0 -18 -9.5 -24t-38.5 -6zM204 674q-41 0 -41 18q0 8 11 30l41 83q10 20 19 25.5t40 5.5q53 0 53 -18q0 -12 -15 -36l-51 -82q-7 -11 -11 -15t-15 -7.5t-31 -3.5z" />
    <glyph glyph-name="afii10062" unicode="&#x40e;" horiz-adv-x="481" 
d="M241 686q-67 0 -91 22.5t-24 79.5q0 19 6.5 24.5t29.5 5.5q22 0 28 -4.5t7 -20.5q1 -15 3.5 -21.5t11.5 -10t29 -3.5q28 0 35 6.5t8 28.5q1 16 7.5 20.5t28.5 4.5q23 0 29 -5.5t6 -24.5q0 -57 -23.5 -79.5t-90.5 -22.5zM16 598q0 20 48 20q29 0 38 -5t15 -20l121 -352h11
l112 350q5 17 15 22t42 5q47 0 47 -20q0 -11 -13 -48l-168 -456q-19 -50 -48 -74.5t-83 -24.5q-55 0 -88 9q-14 3 -20 11.5t-6 32.5t3.5 30t14.5 6q5 0 32 -3t47 -3q36 0 53 12.5t29 51.5l6 19h-7q-25 0 -36.5 9t-18.5 28l-134 354q-12 30 -12 46z" />
    <glyph glyph-name="afii10145" unicode="&#x40f;" horiz-adv-x="520" 
d="M260 -108q-22 0 -27.5 4.5t-6.5 21.5l-5 82h-130q-20 0 -26.5 5.5t-6.5 22.5v560q0 19 9.5 24.5t39.5 5.5q29 0 38.5 -6t9.5 -24v-501h210v501q0 19 9.5 24.5t39.5 5.5q29 0 38.5 -6t9.5 -24v-560q0 -17 -6.5 -22.5t-26.5 -5.5h-131l-4 -82q-1 -17 -6 -21.5t-28 -4.5z
" />
    <glyph glyph-name="afii10017" unicode="&#x410;" horiz-adv-x="523" 
d="M62 0q-28 0 -37 5t-9 18q0 8 6 29l149 522q8 29 24 36.5t67 7.5q50 0 66 -7.5t24 -36.5l149 -522q6 -21 6 -29q0 -13 -9 -18t-37 -5q-30 0 -40 5.5t-15 21.5l-43 150h-206l-40 -150q-5 -17 -14.5 -22t-40.5 -5zM255 535l-77 -282h167l-77 282h-13z" />
    <glyph glyph-name="afii10018" unicode="&#x411;" horiz-adv-x="512" 
d="M256 -8q-95 0 -164 8q-21 2 -27.5 9t-6.5 25v556q0 17 6.5 22.5t26.5 5.5h310q16 0 22 -9t6 -35t-6 -34.5t-22 -8.5h-246v-174q72 8 148 8q100 0 133 -41.5t33 -146.5q0 -107 -43 -146t-170 -39zM264 286q-55 0 -109 -4v-206q43 -5 105 -5q73 0 91 18.5t18 90.5
q0 68 -19.5 87t-85.5 19z" />
    <glyph glyph-name="afii10019" unicode="&#x412;" horiz-adv-x="514" 
d="M256 -8q-95 0 -164 8q-21 2 -27.5 9t-6.5 25v545q0 19 7 26.5t25 9.5q70 8 144 8q49 0 78.5 -2.5t58.5 -11t43.5 -25t23.5 -44.5t9 -70q0 -62 -16 -96.5t-58 -47.5q52 -11 74 -47.5t22 -111.5q0 -100 -43.5 -137.5t-169.5 -37.5zM155 536v-177h87q67 0 86 18t19 82
q0 54 -17 67.5t-85 13.5q-59 0 -90 -4zM155 286v-210q43 -5 105 -5q73 0 91 18.5t18 90.5q0 65 -20 85.5t-85 20.5h-109z" />
    <glyph glyph-name="afii10020" unicode="&#x413;" horiz-adv-x="404" 
d="M107 0q-30 0 -39.5 5.5t-9.5 24.5v560q0 17 6.5 22.5t26.5 5.5h269q16 0 22 -9t6 -35t-6 -34.5t-22 -8.5h-205v-501q0 -18 -9.5 -24t-38.5 -6z" />
    <glyph glyph-name="afii10021" unicode="&#x414;" horiz-adv-x="542" 
d="M52 -108q-22 0 -29 4.5t-7 19.5v139q0 20 7.5 26t28.5 6h18l53 504q2 16 7.5 21.5t25.5 5.5h282q20 0 26.5 -5.5t6.5 -22.5v-503h19q21 0 28 -6t7 -26v-139q0 -15 -7 -19.5t-29 -4.5q-24 0 -31.5 4t-10.5 20l-15 84h-323l-14 -84q-2 -15 -10.5 -19.5t-32.5 -4.5zM209 531
l-46 -444h211v444h-165z" />
    <glyph glyph-name="afii10022" unicode="&#x415;" horiz-adv-x="455" 
d="M428 43q0 -26 -6 -34.5t-22 -8.5h-309q-20 0 -26.5 5.5t-6.5 22.5v562q0 17 6.5 22.5t26.5 5.5h299q16 0 22 -9t6 -35t-6 -34.5t-22 -8.5h-235v-163h177q17 0 22.5 -8t5.5 -35q0 -26 -5.5 -34t-22.5 -8h-177v-196h245q16 0 22 -9t6 -35z" />
    <glyph glyph-name="afii10024" unicode="&#x416;" horiz-adv-x="698" 
d="M65 0q-50 0 -50 22q0 11 19 38l170 254l-165 253q-12 19 -12 31q0 20 45 20q32 0 43.5 -4t19.5 -19l152 -249h13v242q0 18 9.5 24t38.5 6q30 0 39.5 -5.5t9.5 -24.5v-242h14l152 249q9 15 20 19t43 4q46 0 46 -20q0 -10 -13 -31l-164 -253l170 -254q18 -28 18 -38
q0 -11 -9.5 -16.5t-39.5 -5.5q-27 0 -39.5 4.5t-21.5 18.5l-162 258h-14v-251q0 -19 -9.5 -24.5t-39.5 -5.5q-29 0 -38.5 6t-9.5 24v251h-12l-163 -258q-9 -14 -21.5 -18.5t-38.5 -4.5z" />
    <glyph glyph-name="afii10025" unicode="&#x417;" horiz-adv-x="449" 
d="M91 315q0 23 5.5 31.5t22.5 8.5h51q72 0 95.5 24t23.5 76q0 50 -16.5 66.5t-70.5 16.5q-42 0 -89.5 -6t-49.5 -6q-10 0 -14.5 7.5t-4.5 30.5q0 25 4.5 32.5t19.5 11.5q65 15 162 15q80 0 119 -33t39 -125q0 -61 -27.5 -99t-78.5 -47q64 -5 91 -41t27 -107
q0 -94 -45 -136.5t-138 -42.5q-95 0 -164 16q-15 3 -21 12t-6 32q0 24 4 31.5t14 7.5q3 0 58 -7t96 -7q62 0 82.5 23.5t20.5 76.5t-24.5 76t-105.5 23h-52q-17 0 -22.5 8t-5.5 31z" />
    <glyph glyph-name="afii10026" unicode="&#x418;" horiz-adv-x="547" 
d="M440 0q-29 0 -38.5 6t-9.5 24v427h-9l-203 -428q-9 -20 -20 -24.5t-41 -4.5q-39 0 -50 5.5t-11 24.5v558q0 19 9.5 24.5t39.5 5.5q29 0 38.5 -6t9.5 -24v-427h9l201 428q9 19 20 24t41 5q40 0 51.5 -5.5t11.5 -24.5v-558q0 -19 -9.5 -24.5t-39.5 -5.5z" />
    <glyph glyph-name="afii10027" unicode="&#x419;" horiz-adv-x="547" 
d="M276 686q-67 0 -91 22.5t-24 79.5q0 19 6.5 24.5t29.5 5.5q22 0 28 -4.5t7 -20.5q1 -15 3.5 -21.5t11.5 -10t29 -3.5q28 0 35 6.5t8 28.5q1 16 7.5 20.5t28.5 4.5q23 0 29 -5.5t6 -24.5q0 -57 -23.5 -79.5t-90.5 -22.5zM440 0q-29 0 -38.5 6t-9.5 24v427h-9l-203 -428
q-9 -20 -20 -24.5t-41 -4.5q-39 0 -50 5.5t-11 24.5v558q0 19 9.5 24.5t39.5 5.5q29 0 38.5 -6t9.5 -24v-427h9l201 428q9 19 20 24t41 5q40 0 51.5 -5.5t11.5 -24.5v-558q0 -19 -9.5 -24.5t-39.5 -5.5z" />
    <glyph glyph-name="afii10028" unicode="&#x41a;" horiz-adv-x="469" 
d="M107 0q-30 0 -39.5 5.5t-9.5 24.5v558q0 19 9.5 24.5t39.5 5.5q29 0 38.5 -6t9.5 -24v-242h15l164 249q9 14 20.5 18.5t42.5 4.5q45 0 45 -20q0 -14 -12 -31l-177 -253l182 -254q19 -27 19 -38q0 -22 -49 -22q-26 0 -38.5 4.5t-22.5 18.5l-175 258h-14v-251
q0 -18 -9.5 -24t-38.5 -6z" />
    <glyph glyph-name="afii10029" unicode="&#x41b;" horiz-adv-x="558" 
d="M451 0q-29 0 -38.5 6t-9.5 24v501h-164l-48 -452q-5 -45 -24.5 -66t-65.5 -21q-29 0 -58 6q-16 3 -21.5 12t-5.5 33q0 22 4 28.5t14 6.5q6 0 17 -1.5t20 -1.5q17 0 23.5 8.5t9.5 37.5l49 470q1 16 7.5 21.5t25.5 5.5h281q20 0 26.5 -5.5t6.5 -22.5v-560q0 -19 -9.5 -24.5
t-39.5 -5.5z" />
    <glyph glyph-name="afii10030" unicode="&#x41c;" horiz-adv-x="639" 
d="M107 0q-30 0 -39.5 5.5t-9.5 24.5v553q0 20 12.5 27.5t53.5 7.5t56.5 -6.5t24.5 -31.5l112 -299h5l113 299q9 25 24.5 31.5t56.5 6.5q40 0 52.5 -7.5t12.5 -27.5v-553q0 -18 -9.5 -24t-38.5 -6q-30 0 -39.5 5.5t-9.5 24.5q0 158 2 448h-7l-106 -284q-8 -22 -18 -28
t-35 -6q-26 0 -36 6t-18 28l-106 284h-7q2 -290 2 -448q0 -18 -9.5 -24t-38.5 -6z" />
    <glyph glyph-name="afii10031" unicode="&#x41d;" horiz-adv-x="524" 
d="M155 360h214v228q0 19 9.5 24.5t39.5 5.5q29 0 38.5 -6t9.5 -24v-558q0 -18 -9.5 -24t-38.5 -6q-30 0 -39.5 5.5t-9.5 24.5v246h-214v-246q0 -18 -9.5 -24t-38.5 -6q-30 0 -39.5 5.5t-9.5 24.5v558q0 19 9.5 24.5t39.5 5.5q29 0 38.5 -6t9.5 -24v-228z" />
    <glyph glyph-name="afii10032" unicode="&#x41e;" horiz-adv-x="526" 
d="M263 76q53 0 76.5 13.5t34 56t10.5 136.5v51q0 73 -3.5 110.5t-18 61t-35.5 29t-64 5.5q-53 0 -76.5 -13.5t-34 -56t-10.5 -136.5v-51q0 -73 3.5 -110.5t18 -61t35.5 -29t64 -5.5zM263 -8q-66 0 -102.5 8.5t-65.5 38t-39.5 85t-10.5 150.5v63q0 97 11.5 155t41.5 86.5
t65.5 36.5t99.5 8q67 0 104 -8.5t65.5 -38.5t38.5 -86t10 -153v-63q0 -95 -12 -152.5t-42.5 -85.5t-65.5 -36t-98 -8z" />
    <glyph glyph-name="afii10033" unicode="&#x41f;" horiz-adv-x="520" 
d="M107 0q-30 0 -39.5 5.5t-9.5 24.5v560q0 17 6.5 22.5t26.5 5.5h338q20 0 26.5 -5.5t6.5 -22.5v-560q0 -18 -9.5 -24t-38.5 -6q-30 0 -39.5 5.5t-9.5 24.5v501h-210v-501q0 -18 -9.5 -24t-38.5 -6z" />
    <glyph glyph-name="afii10034" unicode="&#x420;" horiz-adv-x="488" 
d="M107 0q-30 0 -39.5 5.5t-9.5 24.5v548q0 31 32 36q77 9 162 9q58 0 92 -6t61 -25.5t37.5 -56.5t10.5 -97q0 -118 -52 -164t-174 -46h-72v-198q0 -18 -9.5 -24t-38.5 -6zM155 536v-228h76q73 0 97.5 25.5t24.5 100.5q0 66 -21.5 86t-88.5 20q-40 0 -88 -4z" />
    <glyph glyph-name="afii10035" unicode="&#x421;" horiz-adv-x="452" 
d="M255 -8q-43 0 -70 4t-56.5 19t-46 43t-27 79t-10.5 125v81q0 76 10.5 128.5t27 82.5t46 45.5t57.5 19.5t72 4q67 0 138 -19q14 -4 19 -12t5 -34q0 -38 -17 -38l-43 8q-42 9 -81 9q-45 0 -67.5 -5t-40.5 -26.5t-23.5 -61t-5.5 -110.5v-52q0 -49 2.5 -82.5t10.5 -56.5
t16.5 -35.5t26.5 -19.5t35 -8.5t46 -1.5q41 0 82 8.5t42 8.5q10 0 13.5 -7.5t3.5 -31.5t-5 -32.5t-19 -12.5q-65 -19 -141 -19z" />
    <glyph glyph-name="afii10036" unicode="&#x422;" horiz-adv-x="434" 
d="M217 0q-30 0 -39.5 5.5t-9.5 24.5v501h-130q-16 0 -22 8.5t-6 34.5t6 35t22 9h358q16 0 22 -9t6 -35t-6 -34.5t-22 -8.5h-131v-501q0 -18 -9.5 -24t-38.5 -6z" />
    <glyph glyph-name="afii10037" unicode="&#x423;" horiz-adv-x="481" 
d="M16 598q0 20 48 20q29 0 38 -5t15 -20l121 -352h11l112 350q5 17 15 22t42 5q47 0 47 -20q0 -11 -13 -48l-168 -456q-19 -50 -48 -74.5t-83 -24.5q-55 0 -88 9q-14 3 -20 11.5t-6 32.5t3.5 30t14.5 6q5 0 32 -3t47 -3q36 0 53 12.5t29 51.5l6 19h-7q-25 0 -36.5 9
t-18.5 28l-134 354q-12 30 -12 46z" />
    <glyph glyph-name="afii10038" unicode="&#x424;" horiz-adv-x="633" 
d="M28 329q0 64 13.5 104.5t43 60.5t63.5 26.5t88 6.5h35v65q0 18 9.5 24t38.5 6q30 0 39.5 -5.5t9.5 -24.5v-65h34q43 0 72 -4t57 -16t44 -33.5t26 -57.5t10 -87q0 -122 -49 -170t-160 -48h-34v-85q0 -19 -9.5 -24.5t-39.5 -5.5q-29 0 -38.5 6t-9.5 24v85h-35
q-110 0 -159 48t-49 170zM124 329q0 -86 22.5 -112t89.5 -26h35v255h-35q-68 0 -90 -21t-22 -96zM402 446h-34v-255h34q67 0 89.5 26t22.5 112q0 75 -22 96t-90 21z" />
    <glyph glyph-name="afii10039" unicode="&#x425;" horiz-adv-x="488" 
d="M68 0q-48 0 -48 24q0 10 14 34l158 260l-146 240q-15 23 -15 36q0 24 49 24q29 0 40.5 -5t19.5 -22l102 -182h4l102 182q8 17 19.5 22t40.5 5q49 0 49 -24q0 -12 -14 -36l-148 -240l159 -259q14 -24 14 -35q0 -24 -48 -24q-29 0 -39.5 5t-20.5 22l-115 203h-4l-113 -203
q-9 -17 -20 -22t-40 -5z" />
    <glyph glyph-name="afii10040" unicode="&#x426;" horiz-adv-x="542" 
d="M489 -108q-25 0 -33.5 4.5t-10.5 19.5l-14 84h-340q-20 0 -26.5 5.5t-6.5 22.5v560q0 19 9.5 24.5t39.5 5.5q29 0 38.5 -6t9.5 -24v-501h210v501q0 19 9.5 24.5t39.5 5.5q29 0 38.5 -6t9.5 -24v-501h21q25 0 34 -6t9 -26v-139q0 -15 -7.5 -19.5t-29.5 -4.5z" />
    <glyph glyph-name="afii10041" unicode="&#x427;" horiz-adv-x="486" 
d="M203 238q-93 0 -129 31.5t-36 127.5v191q0 19 9.5 24.5t39.5 5.5q29 0 38.5 -6t9.5 -24v-177q0 -57 17 -72.5t75 -15.5q42 0 104 5v260q0 19 9.5 24.5t39.5 5.5q29 0 38.5 -6t9.5 -24v-558q0 -18 -9.5 -24t-38.5 -6q-30 0 -39.5 5.5t-9.5 24.5v218q-65 -10 -128 -10z" />
    <glyph glyph-name="afii10042" unicode="&#x428;" horiz-adv-x="801" 
d="M107 618q29 0 38.5 -6t9.5 -24v-501h197v501q0 19 9.5 24.5t39.5 5.5q29 0 38.5 -6t9.5 -24v-501h197v501q0 19 9.5 24.5t39.5 5.5q29 0 38.5 -6t9.5 -24v-560q0 -17 -6.5 -22.5t-26.5 -5.5h-619q-20 0 -26.5 5.5t-6.5 22.5v560q0 19 9.5 24.5t39.5 5.5z" />
    <glyph glyph-name="afii10043" unicode="&#x429;" horiz-adv-x="823" 
d="M712 0h-621q-20 0 -26.5 5.5t-6.5 22.5v560q0 19 9.5 24.5t39.5 5.5q29 0 38.5 -6t9.5 -24v-501h197v501q0 19 9.5 24.5t39.5 5.5q29 0 38.5 -6t9.5 -24v-501h197v501q0 19 9.5 24.5t39.5 5.5q29 0 38.5 -6t9.5 -24v-501h21q25 0 34 -6t9 -26v-139q0 -15 -7.5 -19.5
t-29.5 -4.5q-25 0 -33.5 4.5t-10.5 19.5z" />
    <glyph glyph-name="afii10044" unicode="&#x42a;" horiz-adv-x="549" 
d="M300 -8q-93 0 -162 8q-21 2 -27.5 9t-6.5 25v497h-66q-16 0 -22 8.5t-6 34.5t6 35t22 9h115q29 0 38.5 -6t9.5 -24v-227q70 8 144 8q99 0 132 -42t33 -148q0 -108 -42 -147.5t-168 -39.5zM305 290q-16 0 -104 -4v-210q42 -5 103 -5q70 0 88.5 19.5t18.5 91.5q0 68 -20 88
t-86 20z" />
    <glyph glyph-name="afii10045" unicode="&#x42b;" horiz-adv-x="713" 
d="M613 0q-30 0 -39.5 5.5t-9.5 24.5v558q0 19 9.5 24.5t39.5 5.5q29 0 38.5 -6t9.5 -24v-558q0 -18 -9.5 -24t-38.5 -6zM107 618q29 0 38.5 -6t9.5 -24v-227q70 8 144 8q99 0 132 -42t33 -148q0 -108 -42 -147.5t-168 -39.5q-93 0 -162 8q-21 2 -27.5 9t-6.5 25v554
q0 19 9.5 24.5t39.5 5.5zM259 290q-16 0 -104 -4v-210q42 -5 103 -5q70 0 88.5 19.5t18.5 91.5q0 68 -20 88t-86 20z" />
    <glyph glyph-name="afii10046" unicode="&#x42c;" horiz-adv-x="503" 
d="M107 618q29 0 38.5 -6t9.5 -24v-227q70 8 144 8q99 0 132 -42t33 -148q0 -108 -42 -147.5t-168 -39.5q-93 0 -162 8q-21 2 -27.5 9t-6.5 25v554q0 19 9.5 24.5t39.5 5.5zM259 290q-16 0 -104 -4v-210q42 -5 103 -5q70 0 88.5 19.5t18.5 91.5q0 68 -20 88t-86 20z" />
    <glyph glyph-name="afii10047" unicode="&#x42d;" horiz-adv-x="456" 
d="M87 320q0 25 5.5 32.5t22.5 7.5h203q-1 62 -7 96t-24.5 53t-41.5 23.5t-68 4.5q-39 0 -81 -7l-43 -7q-17 0 -17 38q0 24 5.5 32.5t18.5 11.5q69 18 141 18q43 0 70 -4t56.5 -20t46 -45t27 -82t10.5 -129v-81q0 -73 -11 -124.5t-27.5 -79.5t-45.5 -43.5t-54.5 -19
t-65.5 -3.5q-77 0 -147 18q-13 3 -18.5 11.5t-5.5 33.5q0 23 3.5 30.5t13.5 7.5q5 0 23.5 -3.5t49 -7.5t64.5 -4q41 0 61.5 4.5t38 24.5t23 60.5t5.5 112.5h-203q-17 0 -22.5 7.5t-5.5 32.5z" />
    <glyph glyph-name="afii10048" unicode="&#x42e;" horiz-adv-x="763" 
d="M500 -8q-63 0 -98 8t-65.5 36t-42.5 85.5t-12 152.5v6h-127v-250q0 -18 -9.5 -24t-38.5 -6q-30 0 -39.5 5.5t-9.5 24.5v558q0 19 9.5 24.5t39.5 5.5q29 0 38.5 -6t9.5 -24v-222h127q1 69 9.5 114.5t23 74.5t42.5 43.5t59.5 19.5t83.5 5q53 0 85.5 -5.5t60.5 -21.5t42 -48
t21.5 -82.5t7.5 -128.5v-63q0 -77 -9 -128.5t-24 -82t-44.5 -46.5t-59.5 -20.5t-80 -4.5zM500 76q40 0 61 6t36 28t19.5 61.5t4.5 110.5v51q0 73 -3.5 110.5t-18 61t-35.5 29t-64 5.5q-34 0 -53.5 -4t-34.5 -14.5t-21.5 -35.5t-9.5 -59t-3 -93v-51q0 -71 4.5 -110.5
t20 -61.5t36.5 -28t61 -6z" />
    <glyph glyph-name="afii10049" unicode="&#x42f;" horiz-adv-x="503" 
d="M398 0q-29 0 -38.5 6t-9.5 24v225h-72q-29 0 -42 1l-94 -230q-7 -17 -17.5 -21.5t-45.5 -4.5q-41 0 -41 20q0 10 11 33l102 218q-53 19 -76.5 61t-23.5 116q0 57 11 91.5t37.5 53t61 24.5t92.5 6q85 0 162 -9q32 -5 32 -36v-548q0 -19 -9.5 -24.5t-39.5 -5.5zM152 444
q0 -70 24.5 -93t97.5 -23h76v208q-44 4 -88 4q-67 0 -88.5 -18.5t-21.5 -77.5z" />
    <glyph glyph-name="afii10065" unicode="&#x430;" horiz-adv-x="486" 
d="M167 -10q-67 0 -98 33.5t-31 109.5q0 78 41 111.5t144 33.5h99v65q0 49 -18.5 62.5t-69.5 13.5q-45 0 -95.5 -9t-52.5 -9q-18 0 -18 39q0 21 5 29.5t17 12.5q66 20 154 20q95 0 134.5 -27t39.5 -110v-174q0 -46 5 -83.5t10.5 -58.5t5.5 -26q0 -12 -9 -17.5t-36 -5.5
q-25 0 -33.5 4.5t-12.5 21.5l-16 60q-42 -96 -165 -96zM199 70q52 0 87.5 29.5t35.5 84.5v33l-101 -3q-54 -2 -72 -16.5t-18 -54.5q0 -45 15 -59t53 -14z" />
    <glyph glyph-name="afii10066" unicode="&#x431;" horiz-adv-x="508" 
d="M263 -10q-121 0 -165 51t-44 193v210q0 130 48 176.5t160 46.5q73 0 157 -14q22 -3 22 -41q0 -37 -18 -37q-4 0 -54 5t-89 5q-75 0 -101 -21t-26 -99v-31q32 68 141 68q67 0 100.5 -19t49.5 -74.5t16 -166.5q0 -105 -20.5 -160t-60.5 -73.5t-116 -18.5zM263 72
q45 0 64.5 13.5t26.5 49t7 117.5q0 78 -9.5 112.5t-30 45t-67.5 10.5q-58 0 -80 -32t-22 -131v-19q0 -102 22 -134t89 -32z" />
    <glyph glyph-name="afii10067" unicode="&#x432;" horiz-adv-x="489" 
d="M250 77q63 0 81.5 13.5t18.5 58.5q0 40 -24 55.5t-91 15.5h-80v-138q40 -5 95 -5zM246 -8q-82 0 -154 9q-21 3 -27.5 9t-6.5 24v422q0 19 7 26.5t25 9.5q70 8 162 8q104 0 144 -23t40 -97q0 -65 -24 -92t-79 -34q63 -8 89 -32.5t26 -90.5q0 -84 -45 -111.5t-157 -27.5z
M244 415q-51 0 -89 -5v-124h80q58 0 80 15t22 55q0 38 -18 48.5t-75 10.5z" />
    <glyph glyph-name="afii10068" unicode="&#x433;" horiz-adv-x="346" 
d="M107 0q-30 0 -39.5 5.5t-9.5 24.5v434q0 17 6.5 22.5t26.5 5.5h217q16 0 22 -9t6 -35t-6 -34.5t-22 -8.5h-153v-375q0 -18 -9.5 -24t-38.5 -6z" />
    <glyph glyph-name="afii10069" unicode="&#x434;" horiz-adv-x="506" 
d="M50 -108q-22 0 -29 4.5t-7 19.5v128q0 26 5.5 34.5t22.5 8.5h24l46 375q2 19 11 24.5t37 5.5h221q30 0 39.5 -5.5t9.5 -24.5v-375h20q21 0 28.5 -6t7.5 -26v-139q0 -15 -7 -19.5t-29 -4.5q-24 0 -32.5 4.5t-10.5 19.5l-14 84h-286l-14 -84q-2 -15 -10.5 -19.5t-32.5 -4.5
zM196 408l-38 -321h175v321h-137z" />
    <glyph glyph-name="afii10070" unicode="&#x435;" horiz-adv-x="471" 
d="M255 -10q-47 0 -77 5t-57 19.5t-41.5 42.5t-23 73t-8.5 111q0 70 9.5 118t24.5 76t42.5 43t54.5 19.5t70 4.5q48 0 80.5 -9.5t52 -26.5t30 -47.5t14 -64t3.5 -85.5q0 -26 -8 -37t-32 -11h-243q1 -95 22 -121t95 -26q34 0 66.5 5t52.5 9.5t24 4.5q16 0 16 -39
q0 -21 -5.5 -29.5t-20.5 -13.5q-58 -21 -141 -21zM247 421q-57 0 -77.5 -25t-23.5 -111h190q0 80 -14.5 108t-74.5 28z" />
    <glyph glyph-name="afii10072" unicode="&#x436;" horiz-adv-x="658" 
d="M64 0q-51 0 -51 19q0 12 12 27l162 211l-149 188q-13 19 -13 30q0 17 48 17q29 0 40 -4.5t23 -19.5l135 -180h9v174q0 19 10 24.5t39 5.5t38.5 -5.5t9.5 -24.5v-174h10l134 180q11 15 22.5 19.5t41.5 4.5q48 0 48 -17q0 -13 -14 -30l-149 -188l162 -211q13 -17 13 -27
q0 -19 -52 -19q-27 0 -37.5 4.5t-21.5 19.5l-148 201h-9v-195q0 -19 -9.5 -24.5t-38.5 -5.5t-39 5.5t-10 24.5v195h-9l-147 -201q-12 -15 -22 -19.5t-38 -4.5z" />
    <glyph glyph-name="afii10073" unicode="&#x437;" horiz-adv-x="437" 
d="M107 253q0 21 5.5 29t22.5 8h37q60 0 82.5 14t22.5 54q0 38 -15 47.5t-69 9.5q-42 0 -85 -5.5t-45 -5.5q-19 0 -19 39q0 24 5.5 32t18.5 11q64 14 150 14q82 0 120.5 -23.5t38.5 -93.5q0 -69 -24 -95.5t-80 -33.5q64 -8 90 -31.5t26 -88.5q0 -85 -42 -113.5t-138 -28.5
q-88 0 -156 15q-16 4 -21.5 12t-5.5 33q0 23 4 31t14 8q3 0 51 -7t92 -7q65 0 84 13t19 57q0 40 -23.5 55t-92.5 15h-39q-17 0 -22.5 7.5t-5.5 28.5z" />
    <glyph glyph-name="afii10074" unicode="&#x438;" horiz-adv-x="511" 
d="M397 492q31 0 42 -5q13 -7 13 -28v-429q0 -18 -9.5 -24t-38.5 -6t-38.5 6t-9.5 24v327h-8l-168 -326q-10 -20 -23 -25.5t-43 -5.5q-31 0 -42 5q-14 7 -14 28v429q0 19 9.5 24.5t39.5 5.5q29 0 38.5 -6t9.5 -24v-322h7l172 326q9 18 20.5 22t42.5 4z" />
    <glyph glyph-name="afii10075" unicode="&#x439;" horiz-adv-x="511" 
d="M254 551q-67 0 -91 22.5t-24 79.5q0 19 6.5 24.5t29.5 5.5q22 0 28 -4.5t7 -20.5q1 -15 3.5 -21.5t11.5 -10t29 -3.5q28 0 35 6.5t8 28.5q1 16 7.5 20.5t28.5 4.5q23 0 29 -5.5t6 -24.5q0 -57 -23.5 -79.5t-90.5 -22.5zM397 492q31 0 42 -5q13 -7 13 -28v-429
q0 -18 -9.5 -24t-38.5 -6t-38.5 6t-9.5 24v327h-8l-168 -326q-10 -20 -23 -25.5t-43 -5.5q-31 0 -42 5q-14 7 -14 28v429q0 19 9.5 24.5t39.5 5.5q29 0 38.5 -6t9.5 -24v-322h7l172 326q9 18 20.5 22t42.5 4z" />
    <glyph glyph-name="afii10076" unicode="&#x43a;" horiz-adv-x="442" 
d="M107 0q-29 0 -39 5.5t-10 24.5v432q0 19 10 24.5t39 5.5t38.5 -5.5t9.5 -24.5v-174h10l142 180q12 15 23 19.5t40 4.5q47 0 47 -17q0 -13 -14 -30l-152 -188l165 -211q13 -17 13 -27q0 -19 -50 -19q-28 0 -38 4.5t-22 19.5l-155 201h-9v-195q0 -19 -9.5 -24.5t-38.5 -5.5
z" />
    <glyph glyph-name="afii10077" unicode="&#x43b;" horiz-adv-x="509" 
d="M402 0q-29 0 -38.5 6t-9.5 24v378h-137l-37 -329q-5 -45 -24.5 -66t-65.5 -21q-30 0 -58 6q-16 3 -21.5 12t-5.5 33q0 22 4 28.5t14 6.5q5 0 17 -1.5t20 -1.5q17 0 23 8.5t10 37.5l40 341q2 19 9 24.5t28 5.5h248q20 0 26.5 -5.5t6.5 -22.5v-434q0 -19 -9.5 -24.5
t-39.5 -5.5z" />
    <glyph glyph-name="afii10078" unicode="&#x43c;" horiz-adv-x="632" 
d="M107 0q-30 0 -39.5 5.5t-9.5 24.5v427q0 20 12.5 27.5t53.5 7.5q40 0 53.5 -6.5t23.5 -31.5l112 -290h5l113 290q10 25 23.5 31.5t53.5 6.5t52.5 -7.5t12.5 -27.5v-427q0 -18 -9.5 -24t-38.5 -6t-39 6t-10 24q0 30 2 328h-7l-101 -267q-8 -21 -18.5 -27.5t-35.5 -6.5
q-26 0 -36 6t-18 28l-102 267h-7q2 -298 2 -328q0 -18 -9.5 -24t-38.5 -6z" />
    <glyph glyph-name="afii10079" unicode="&#x43d;" horiz-adv-x="495" 
d="M155 296h185v166q0 18 9.5 24t38.5 6t38.5 -6t9.5 -24v-432q0 -18 -9.5 -24t-38.5 -6t-38.5 6t-9.5 24v183h-185v-183q0 -18 -9.5 -24t-38.5 -6q-30 0 -39.5 5.5t-9.5 24.5v432q0 19 9.5 24.5t39.5 5.5q29 0 38.5 -6t9.5 -24v-166z" />
    <glyph glyph-name="afii10080" unicode="&#x43e;" horiz-adv-x="500" 
d="M242 -10q-78 0 -117.5 19.5t-58 73t-18.5 159.5q0 153 46 206.5t164 53.5q78 0 117 -19t57.5 -72t18.5 -159q0 -154 -46 -208t-163 -54zM244 72q68 0 88.5 32.5t20.5 138.5q0 115 -17.5 146t-81.5 31q-67 0 -87 -32t-20 -137q0 -116 17 -147.5t80 -31.5z" />
    <glyph glyph-name="afii10081" unicode="&#x43f;" horiz-adv-x="495" 
d="M107 0q-30 0 -39.5 5.5t-9.5 24.5v434q0 17 6.5 22.5t26.5 5.5h313q20 0 26 -5.5t6 -22.5v-434q0 -18 -9.5 -24t-38.5 -6t-38.5 6t-9.5 24v379h-185v-379q0 -18 -9.5 -24t-38.5 -6z" />
    <glyph glyph-name="afii10082" unicode="&#x440;" horiz-adv-x="525" 
d="M117 -188q-29 0 -39 5.5t-10 24.5v459q0 46 -5.5 83.5t-11 58.5t-5.5 26q0 12 9 17.5t36 5.5q26 0 34.5 -4.5t12.5 -21.5l12 -49q41 85 160 85q101 0 134 -51t33 -201q0 -108 -21 -165.5t-58.5 -76t-105.5 -18.5q-96 0 -127 54v-202q0 -19 -9.5 -24.5t-38.5 -5.5zM272 72
q45 0 66 13t30.5 50.5t9.5 116.5q0 106 -17.5 137t-77.5 31q-64 0 -92 -30.5t-28 -120.5v-55q0 -83 21.5 -112.5t87.5 -29.5z" />
    <glyph glyph-name="afii10083" unicode="&#x441;" horiz-adv-x="429" 
d="M245 -10q-55 0 -88 8.5t-59.5 34t-38 76t-11.5 132.5q0 70 9.5 118.5t24.5 76t42 42.5t53.5 19.5t67.5 4.5q65 0 124 -18q15 -5 20.5 -13t5.5 -30q0 -39 -18 -39q-1 0 -46.5 8.5t-75.5 8.5q-45 0 -66 -10t-32 -46t-11 -112q0 -117 18.5 -147t92.5 -30q40 0 81 10l41 9
q16 0 16 -39q0 -21 -5 -29.5t-20 -13.5q-60 -21 -125 -21z" />
    <glyph glyph-name="afii10084" unicode="&#x442;" horiz-adv-x="406" 
d="M203 0q-29 0 -39 6t-10 24v375h-110q-16 0 -22 8.5t-6 34.5t6 35t22 9h318q16 0 22 -9t6 -35t-6 -34.5t-22 -8.5h-111v-375q0 -18 -9.5 -24t-38.5 -6z" />
    <glyph glyph-name="afii10085" unicode="&#x443;" horiz-adv-x="461" 
d="M22 467q0 13 9.5 19t40.5 6q29 0 39 -4.5t14 -20.5l100 -384h9l102 384q4 16 13.5 20.5t38.5 4.5q31 0 41.5 -5.5t10.5 -18.5q0 -16 -14 -61l-136 -448q-27 -91 -55.5 -122t-96.5 -31q-50 0 -88 12q-14 4 -19.5 12t-5.5 28q0 40 18 40q2 0 29.5 -4t54.5 -4q35 0 49 11.5
t23 46.5l13 52q-33 1 -46.5 11.5t-22.5 38.5l-105 344q-16 52 -16 73z" />
    <glyph glyph-name="afii10086" unicode="&#x444;" horiz-adv-x="798" 
d="M206 -10q-101 0 -132.5 50.5t-31.5 201.5q0 82 10 133.5t33.5 79.5t55 37.5t82.5 9.5q49 0 79 -14t45 -49v185q0 19 10 24.5t39 5.5t38.5 -5.5t9.5 -24.5v-191q17 38 52 53.5t90 15.5q100 0 131.5 -50.5t31.5 -201.5q0 -82 -10 -133.5t-33.5 -79.5t-55 -37.5t-82.5 -9.5
q-94 0 -124 62v-210q0 -19 -9.5 -24.5t-38.5 -5.5t-39 5.5t-10 24.5v216q-37 -68 -141 -68zM235 72q66 0 90 30.5t24 109.5v66q0 84 -19.5 113t-83.5 29q-66 0 -85.5 -32.5t-19.5 -147.5q0 -107 17 -137.5t77 -30.5zM546 72q65 0 84.5 32.5t19.5 147.5q0 107 -16.5 137.5
t-76.5 30.5q-67 0 -90.5 -27.5t-23.5 -114.5v-68q0 -82 19 -110t84 -28z" />
    <glyph glyph-name="afii10087" unicode="&#x445;" horiz-adv-x="446" 
d="M70 0q-48 0 -48 21q0 8 11 26l133 207l-119 184q-14 22 -14 31q0 13 11.5 18t40.5 5q31 0 41 -4t17 -19l79 -135h4l77 135q7 16 17 19.5t41 3.5q29 0 40.5 -5t11.5 -18q0 -10 -13 -29l-121 -181l133 -211q12 -18 12 -26q0 -22 -48 -22q-32 0 -44 5.5t-20 24.5l-88 153h-4
l-86 -153q-8 -19 -20 -24.5t-44 -5.5z" />
    <glyph glyph-name="afii10088" unicode="&#x446;" horiz-adv-x="497" 
d="M440 -108q-24 0 -32.5 4.5t-10.5 19.5l-14 84h-292q-20 0 -26.5 5.5t-6.5 22.5v434q0 19 9.5 24.5t39.5 5.5q29 0 38.5 -6t9.5 -24v-375h168v375q0 19 9.5 24.5t39.5 5.5q29 0 38.5 -6t9.5 -24v-375h21q21 0 28 -6t7 -26v-139q0 -15 -7 -19.5t-29 -4.5z" />
    <glyph glyph-name="afii10089" unicode="&#x447;" horiz-adv-x="455" 
d="M193 167q-89 0 -124 31.5t-35 127.5v136q0 19 9.5 24.5t39.5 5.5q29 0 38.5 -6t9.5 -24v-123q0 -56 16 -71.5t66 -15.5q47 0 87 4v206q0 18 9.5 24t38.5 6t38.5 -6t9.5 -24v-432q0 -18 -9.5 -24t-38.5 -6t-38.5 6t-9.5 24v146q-48 -9 -107 -9z" />
    <glyph glyph-name="afii10090" unicode="&#x448;" horiz-adv-x="729" 
d="M623 492q29 0 38.5 -6t9.5 -24v-434q0 -17 -6.5 -22.5t-26.5 -5.5h-547q-20 0 -26.5 5.5t-6.5 22.5v434q0 19 9.5 24.5t39.5 5.5q29 0 38.5 -6t9.5 -24v-375h161v375q0 19 9.5 24.5t39.5 5.5q29 0 38.5 -6t9.5 -24v-375h161v375q0 19 9.5 24.5t39.5 5.5z" />
    <glyph glyph-name="afii10091" unicode="&#x449;" horiz-adv-x="748" 
d="M691 -108q-24 0 -32.5 4.5t-10.5 19.5l-14 84h-543q-20 0 -26.5 5.5t-6.5 22.5v434q0 19 9.5 24.5t39.5 5.5q29 0 38.5 -6t9.5 -24v-375h161v375q0 19 9.5 24.5t39.5 5.5q29 0 38.5 -6t9.5 -24v-375h161v375q0 19 9.5 24.5t39.5 5.5q29 0 38.5 -6t9.5 -24v-375h21
q21 0 28 -6t7 -26v-139q0 -15 -7 -19.5t-29 -4.5z" />
    <glyph glyph-name="afii10092" unicode="&#x44a;" horiz-adv-x="499" 
d="M86 405h-48q-16 0 -22 8.5t-6 34.5t6 35t22 9h96q29 0 39 -5.5t10 -24.5v-156h97q108 0 147.5 -29t39.5 -119q0 -102 -44.5 -134t-155.5 -32q-75 0 -147 9q-21 3 -27.5 9t-6.5 24v371zM287 226h-104v-148q42 -4 90 -4q61 0 79 15t18 66q0 42 -16.5 56.5t-66.5 14.5z" />
    <glyph glyph-name="afii10093" unicode="&#x44b;" horiz-adv-x="681" 
d="M575 0q-29 0 -39 5.5t-10 24.5v432q0 19 10 24.5t39 5.5t38.5 -5.5t9.5 -24.5v-432q0 -19 -9.5 -24.5t-38.5 -5.5zM240 -8q-76 0 -148 9q-21 3 -27.5 9t-6.5 24v428q0 19 10 24.5t39 5.5t38.5 -5.5t9.5 -24.5v-156h97q108 0 147.5 -29t39.5 -119q0 -102 -44.5 -134
t-154.5 -32zM259 226h-104v-148q42 -4 90 -4q61 0 79 15t18 66q0 42 -16 56.5t-67 14.5z" />
    <glyph glyph-name="afii10094" unicode="&#x44c;" horiz-adv-x="471" 
d="M240 -8q-76 0 -148 9q-21 3 -27.5 9t-6.5 24v428q0 19 10 24.5t39 5.5t38.5 -5.5t9.5 -24.5v-156h97q108 0 147.5 -29t39.5 -119q0 -102 -44.5 -134t-154.5 -32zM259 226h-104v-148q42 -4 90 -4q61 0 79 15t18 66q0 42 -16 56.5t-67 14.5z" />
    <glyph glyph-name="afii10095" unicode="&#x44d;" horiz-adv-x="441" 
d="M185 -10q-73 0 -132 21q-15 5 -20 13.5t-5 29.5q0 39 16 39q2 0 46 -9.5t87 -9.5q78 0 101 25t24 116h-172q-17 0 -22.5 7t-5.5 30t5.5 30t22.5 7h173q-2 85 -22 107.5t-86 22.5q-41 0 -91.5 -7.5t-52.5 -7.5q-17 0 -17 38q0 22 5.5 30.5t20.5 12.5q62 17 141 17
q48 0 76.5 -4.5t54 -19t38 -43.5t19.5 -75.5t7 -118.5q0 -82 -11.5 -132t-39.5 -76.5t-63.5 -34.5t-96.5 -8z" />
    <glyph glyph-name="afii10096" unicode="&#x44e;" horiz-adv-x="701" 
d="M443 -10q-110 0 -150.5 44t-43.5 181h-94v-185q0 -19 -9.5 -24.5t-38.5 -5.5t-39 5.5t-10 24.5v432q0 19 10 24.5t39 5.5t38.5 -5.5t9.5 -24.5v-165h96q7 119 54 162t154 43q78 0 117.5 -19t58 -72t18.5 -159q0 -154 -46.5 -208t-163.5 -54zM446 72q68 0 88 32.5
t20 138.5q0 115 -17 146t-81 31q-68 0 -88 -31.5t-20 -137.5q0 -115 17.5 -147t80.5 -32z" />
    <glyph glyph-name="afii10097" unicode="&#x44f;" horiz-adv-x="490" 
d="M80 0q-44 0 -44 18q0 8 13 31l87 153q-48 12 -67.5 44t-19.5 96q0 96 45 127t156 31q62 0 147 -9q22 -2 28.5 -8.5t6.5 -24.5v-428q0 -19 -10 -24.5t-39 -5.5t-38.5 5.5t-9.5 24.5v163h-111l-83 -167q-8 -17 -18.5 -21.5t-42.5 -4.5zM148 335q0 -40 16 -52.5t67 -12.5
h104v140q-37 5 -91 5q-60 0 -78 -15t-18 -65z" />
    <glyph glyph-name="afii10071" unicode="&#x451;" horiz-adv-x="471" 
d="M255 -10q-47 0 -77 5t-57 19.5t-41.5 42.5t-23 73t-8.5 111q0 70 9.5 118t24.5 76t42.5 43t54.5 19.5t70 4.5q48 0 80.5 -9.5t52 -26.5t30 -47.5t14 -64t3.5 -85.5q0 -26 -8 -37t-32 -11h-243q1 -95 22 -121t95 -26q34 0 66.5 5t52.5 9.5t24 4.5q16 0 16 -39
q0 -21 -5.5 -29.5t-20.5 -13.5q-58 -21 -141 -21zM247 421q-57 0 -77.5 -25t-23.5 -111h190q0 80 -14.5 108t-74.5 28zM157 562q-32 0 -41.5 7t-9.5 30v19q0 22 9.5 29t41.5 7t41.5 -7t9.5 -29v-19q0 -23 -9.5 -30t-41.5 -7zM313 562q-32 0 -41.5 7t-9.5 30v19q0 22 9.5 29
t41.5 7t41 -7t9 -29v-19q0 -23 -9 -30t-41 -7z" />
    <glyph glyph-name="afii10099" unicode="&#x452;" horiz-adv-x="502" 
d="M107 0q-29 0 -38.5 5.5t-9.5 24.5v498h-29q-16 0 -20.5 6t-4.5 25t4.5 25t20.5 6h29v34q0 19 9.5 24.5t38.5 5.5t39 -5.5t10 -24.5v-34h121q16 0 21 -6t5 -25t-5 -25t-21 -6h-121v-122q38 70 152 70q79 0 107.5 -31t28.5 -102v-412q0 -67 -26.5 -96t-82.5 -29
q-42 0 -74 10q-15 4 -21 12t-6 29q0 24 4 31t14 7q4 0 23 -2.5t32 -2.5q25 0 32.5 10.5t7.5 50.5v369q0 42 -14.5 57t-59.5 15q-65 0 -91 -38t-26 -128v-196q0 -19 -10 -24.5t-39 -5.5z" />
    <glyph glyph-name="afii10100" unicode="&#x453;" horiz-adv-x="346" 
d="M159 539q-41 0 -41 18q0 8 11 30l41 83q10 20 19 25.5t40 5.5q53 0 53 -18q0 -12 -15 -36l-51 -82q-7 -11 -11 -15t-15 -7.5t-31 -3.5zM107 0q-30 0 -39.5 5.5t-9.5 24.5v434q0 17 6.5 22.5t26.5 5.5h217q16 0 22 -9t6 -35t-6 -34.5t-22 -8.5h-153v-375q0 -18 -9.5 -24
t-38.5 -6z" />
    <glyph glyph-name="afii10101" unicode="&#x454;" horiz-adv-x="445" 
d="M260 -10q-61 0 -96.5 8t-64 34.5t-40 76.5t-11.5 132q0 60 4 102t15 71t24.5 46.5t37.5 26.5t49.5 12t64.5 3q80 0 142 -17q15 -4 20.5 -12.5t5.5 -30.5q0 -38 -18 -38q-1 0 -51.5 7.5t-91.5 7.5q-67 0 -87 -22.5t-21 -107.5h173q17 0 22.5 -7t5.5 -30t-5.5 -30t-22.5 -7
h-173q1 -91 24 -116t102 -25q43 0 87 9.5t46 9.5q16 0 16 -39q0 -21 -5.5 -29.5t-20.5 -13.5q-58 -21 -131 -21z" />
    <glyph glyph-name="afii10102" unicode="&#x455;" horiz-adv-x="433" 
d="M200 -10q-75 0 -132 18q-15 5 -20.5 13.5t-5.5 29.5q0 40 16 40q1 0 47.5 -8.5t85.5 -8.5q56 0 78.5 16.5t22.5 52.5q0 20 -8 31t-27 19l-128 54q-72 32 -72 121q0 134 161 134q71 0 136 -17q15 -4 20 -12.5t5 -33.5q0 -24 -4.5 -30.5t-13.5 -6.5q-1 0 -47 9t-81 9
q-44 0 -61 -12.5t-17 -40.5q0 -21 7.5 -32.5t27.5 -20.5l125 -50q42 -17 58.5 -44t16.5 -72q0 -158 -190 -158z" />
    <glyph glyph-name="afii10103" unicode="&#x456;" horiz-adv-x="214" 
d="M105 0q-29 0 -39 5.5t-10 24.5v432q0 19 10 24.5t39 5.5t38.5 -5.5t9.5 -24.5v-432q0 -19 -9.5 -24.5t-38.5 -5.5zM105 562q-35 0 -44.5 7t-9.5 30v19q0 22 9.5 29t44.5 7q34 0 43.5 -7t9.5 -29v-19q0 -23 -9.5 -30t-43.5 -7z" />
    <glyph glyph-name="afii10104" unicode="&#x457;" horiz-adv-x="214" 
d="M30 562q-32 0 -41.5 7t-9.5 30v19q0 22 9.5 29t41.5 7t41.5 -7t9.5 -29v-19q0 -23 -9.5 -30t-41.5 -7zM186 562q-32 0 -41.5 7t-9.5 30v19q0 22 9.5 29t41.5 7t41 -7t9 -29v-19q0 -23 -9 -30t-41 -7zM105 0q-29 0 -39 5.5t-10 24.5v432q0 19 10 24.5t39 5.5t38.5 -5.5
t9.5 -24.5v-432q0 -19 -9.5 -24.5t-38.5 -5.5z" />
    <glyph glyph-name="afii10105" unicode="&#x458;" horiz-adv-x="214" 
d="M105 492q29 0 38.5 -5.5t9.5 -24.5v-531q0 -67 -26.5 -96t-82.5 -29q-42 0 -74 10q-15 4 -21 12t-6 29q0 24 4 31t15 7q3 0 22 -2.5t32 -2.5q25 0 32.5 10.5t7.5 50.5v511q0 19 10 24.5t39 5.5zM105 562q-35 0 -44.5 7t-9.5 30v19q0 22 9.5 29t44.5 7q34 0 43.5 -7
t9.5 -29v-19q0 -23 -9.5 -30t-43.5 -7z" />
    <glyph glyph-name="afii10106" unicode="&#x459;" horiz-adv-x="764" 
d="M93 -8q-29 0 -58 6q-16 3 -21.5 12t-5.5 33q0 22 4 28.5t14 6.5q6 0 17 -1.5t20 -1.5q17 0 23 8.5t10 37.5l40 341q2 19 9 24.5t28 5.5h245q20 0 26.5 -5.5t6.5 -22.5v-158h94q108 0 147.5 -29t39.5 -119q0 -102 -44.5 -134t-155.5 -32q-72 0 -144 9q-21 3 -27.5 9
t-6.5 24v374h-134l-37 -329q-5 -45 -24.5 -66t-65.5 -21zM552 226h-101v-148q42 -4 87 -4q61 0 79 15t18 66q0 42 -16.5 56.5t-66.5 14.5z" />
    <glyph glyph-name="afii10107" unicode="&#x45a;" horiz-adv-x="746" 
d="M107 0q-30 0 -39.5 5.5t-9.5 24.5v432q0 19 9.5 24.5t39.5 5.5q29 0 38.5 -6t9.5 -24v-166h182v166q0 18 9.5 24t38.5 6t38.5 -6t9.5 -24v-156h95q107 0 147 -29t40 -119q0 -102 -45 -134t-155 -32q-73 0 -144 9q-21 3 -27.5 9t-6.5 24v179h-182v-183q0 -18 -9.5 -24
t-38.5 -6zM534 226h-101v-148q44 -4 88 -4q60 0 78 15t18 66q0 42 -16 56.5t-67 14.5z" />
    <glyph glyph-name="afii10108" unicode="&#x45b;" horiz-adv-x="502" 
d="M5 559q0 19 4.5 25t20.5 6h29v34q0 19 9.5 24.5t38.5 5.5t39 -5.5t10 -24.5v-34h121q16 0 21 -6t5 -25t-5 -25t-21 -6h-121v-122q38 70 152 70q79 0 107.5 -31t28.5 -102v-313q0 -19 -10 -24.5t-39 -5.5t-38.5 5.5t-9.5 24.5v290q0 42 -14.5 57t-59.5 15q-65 0 -91 -38
t-26 -128v-196q0 -19 -10 -24.5t-39 -5.5t-38.5 5.5t-9.5 24.5v498h-29q-16 0 -20.5 6t-4.5 25z" />
    <glyph glyph-name="afii10109" unicode="&#x45c;" horiz-adv-x="442" 
d="M193 539q-41 0 -41 18q0 8 11 30l41 83q10 20 19 25.5t40 5.5q53 0 53 -18q0 -12 -15 -36l-51 -82q-7 -11 -11 -15t-15 -7.5t-31 -3.5zM107 0q-29 0 -39 5.5t-10 24.5v432q0 19 10 24.5t39 5.5t38.5 -5.5t9.5 -24.5v-174h10l142 180q12 15 23 19.5t40 4.5q47 0 47 -17
q0 -13 -14 -30l-152 -188l165 -211q13 -17 13 -27q0 -19 -50 -19q-28 0 -38 4.5t-22 19.5l-155 201h-9v-195q0 -19 -9.5 -24.5t-38.5 -5.5z" />
    <glyph glyph-name="afii10110" unicode="&#x45e;" horiz-adv-x="461" 
d="M22 467q0 13 9.5 19t40.5 6q29 0 39 -4.5t14 -20.5l100 -384h9l102 384q4 16 13.5 20.5t38.5 4.5q31 0 41.5 -5.5t10.5 -18.5q0 -16 -14 -61l-136 -448q-27 -91 -55.5 -122t-96.5 -31q-50 0 -88 12q-14 4 -19.5 12t-5.5 28q0 40 18 40q2 0 29.5 -4t54.5 -4q35 0 49 11.5
t23 46.5l13 52q-33 1 -46.5 11.5t-22.5 38.5l-105 344q-16 52 -16 73zM230 551q-67 0 -91 22.5t-24 79.5q0 19 6.5 24.5t29.5 5.5q22 0 28 -4.5t7 -20.5q1 -15 3.5 -21.5t11.5 -10t29 -3.5q28 0 35 6.5t8 28.5q1 16 7.5 20.5t28.5 4.5q23 0 29 -5.5t6 -24.5
q0 -57 -23.5 -79.5t-90.5 -22.5z" />
    <glyph glyph-name="afii10193" unicode="&#x45f;" horiz-adv-x="478" 
d="M239 -108q-23 0 -28 4.5t-6 21.5l-5 82h-109q-20 0 -26.5 5.5t-6.5 22.5v434q0 19 9.5 24.5t39.5 5.5q29 0 38.5 -6t9.5 -24v-379h168v379q0 19 9.5 24.5t39.5 5.5q29 0 38.5 -6t9.5 -24v-434q0 -17 -6.5 -22.5t-26.5 -5.5h-110l-4 -82q-1 -17 -6 -21.5t-28 -4.5z" />
    <glyph glyph-name="afii10050" unicode="&#x490;" horiz-adv-x="404" 
d="M351 726q23 0 30 -4.5t7 -20.5v-138q0 -20 -7.5 -26t-28.5 -6h-197v-501q0 -18 -9.5 -24t-38.5 -6q-30 0 -39.5 5.5t-9.5 24.5v560q0 17 6.5 22.5t26.5 5.5h203l15 83q5 15 12.5 20t29.5 5z" />
    <glyph glyph-name="afii10098" unicode="&#x491;" horiz-adv-x="352" 
d="M299 600q23 0 30 -4.5t7 -19.5v-139q0 -20 -7.5 -26t-28.5 -6h-145v-375q0 -18 -9.5 -24t-38.5 -6q-30 0 -39.5 5.5t-9.5 24.5v434q0 17 6.5 22.5t26.5 5.5h151l15 84q5 15 12 19.5t30 4.5z" />
    <glyph glyph-name="Wgrave" unicode="&#x1e80;" horiz-adv-x="798" 
d="M213 0q-45 0 -62 7t-22 32l-110 527q-3 15 -3 29q0 13 9 18t37 5q31 0 42 -5t14 -22l95 -501h11l106 486q4 20 19 26t50 6t50.5 -6.5t19.5 -25.5l105 -486h12l95 501q1 16 12 21.5t43 5.5q28 0 37 -5t9 -18q0 -14 -3 -29l-110 -527q-5 -25 -22 -32t-62 -7q-43 0 -60 8
t-23 33l-98 438h-10l-98 -438q-6 -25 -23 -33t-60 -8zM404 662q-19 0 -30 3.5t-15 7.5t-11 15l-52 82q-15 28 -15 36q0 18 54 18q31 0 40 -5.5t19 -25.5l41 -83q10 -20 10 -31q0 -17 -41 -17z" />
    <glyph glyph-name="wgrave" unicode="&#x1e81;" horiz-adv-x="703" 
d="M190 0q-42 0 -58 7t-20 29l-84 389q-6 25 -6 39q0 17 9 22.5t39 5.5q32 0 42 -5.5t14 -25.5l71 -374h11l79 360q4 21 17.5 28t47.5 7t47.5 -7t17.5 -28l79 -360h11l71 374q4 20 13.5 25.5t41.5 5.5q31 0 39.5 -5.5t8.5 -22.5q0 -18 -5 -39l-85 -389q-4 -22 -20 -29
t-58 -7q-45 0 -63.5 7t-23.5 29l-71 309h-7l-71 -309q-5 -22 -23 -29t-64 -7zM376 539q-19 0 -30 3.5t-15 7.5t-11 15l-52 82q-15 28 -15 36q0 18 54 18q31 0 40 -5.5t19 -25.5l41 -83q10 -20 10 -31q0 -17 -41 -17z" />
    <glyph glyph-name="Wacute" unicode="&#x1e82;" horiz-adv-x="798" 
d="M213 0q-45 0 -62 7t-22 32l-110 527q-3 15 -3 29q0 13 9 18t37 5q31 0 42 -5t14 -22l95 -501h11l106 486q4 20 19 26t50 6t50.5 -6.5t19.5 -25.5l105 -486h12l95 501q1 16 12 21.5t43 5.5q28 0 37 -5t9 -18q0 -14 -3 -29l-110 -527q-5 -25 -22 -32t-62 -7q-43 0 -60 8
t-23 33l-98 438h-10l-98 -438q-6 -25 -23 -33t-60 -8zM393 662q-41 0 -41 18q0 8 11 30l41 83q10 20 19 25.5t40 5.5q53 0 53 -18q0 -12 -15 -36l-51 -82q-7 -11 -11 -15t-15 -7.5t-31 -3.5z" />
    <glyph glyph-name="wacute" unicode="&#x1e83;" horiz-adv-x="703" 
d="M190 0q-42 0 -58 7t-20 29l-84 389q-6 25 -6 39q0 17 9 22.5t39 5.5q32 0 42 -5.5t14 -25.5l71 -374h11l79 360q4 21 17.5 28t47.5 7t47.5 -7t17.5 -28l79 -360h11l71 374q4 20 13.5 25.5t41.5 5.5q31 0 39.5 -5.5t8.5 -22.5q0 -18 -5 -39l-85 -389q-4 -22 -20 -29
t-58 -7q-45 0 -63.5 7t-23.5 29l-71 309h-7l-71 -309q-5 -22 -23 -29t-64 -7zM328 539q-41 0 -41 18q0 8 11 30l41 83q10 20 19 25.5t40 5.5q53 0 53 -18q0 -12 -15 -36l-51 -82q-7 -11 -11 -15t-15 -7.5t-31 -3.5z" />
    <glyph glyph-name="Wdieresis" unicode="&#x1e84;" horiz-adv-x="798" 
d="M213 0q-45 0 -62 7t-22 32l-110 527q-3 15 -3 29q0 13 9 18t37 5q31 0 42 -5t14 -22l95 -501h11l106 486q4 20 19 26t50 6t50.5 -6.5t19.5 -25.5l105 -486h12l95 501q1 16 12 21.5t43 5.5q28 0 37 -5t9 -18q0 -14 -3 -29l-110 -527q-5 -25 -22 -32t-62 -7q-43 0 -60 8
t-23 33l-98 438h-10l-98 -438q-6 -25 -23 -33t-60 -8zM321 690q-32 0 -41.5 7t-9.5 30v19q0 22 9.5 29t41.5 7t41.5 -7t9.5 -29v-19q0 -23 -9.5 -30t-41.5 -7zM477 690q-32 0 -41.5 7t-9.5 30v19q0 22 9.5 29t41.5 7t41 -7t9 -29v-19q0 -23 -9 -30t-41 -7z" />
    <glyph glyph-name="wdieresis" unicode="&#x1e85;" horiz-adv-x="703" 
d="M190 0q-42 0 -58 7t-20 29l-84 389q-6 25 -6 39q0 17 9 22.5t39 5.5q32 0 42 -5.5t14 -25.5l71 -374h11l79 360q4 21 17.5 28t47.5 7t47.5 -7t17.5 -28l79 -360h11l71 374q4 20 13.5 25.5t41.5 5.5q31 0 39.5 -5.5t8.5 -22.5q0 -18 -5 -39l-85 -389q-4 -22 -20 -29
t-58 -7q-45 0 -63.5 7t-23.5 29l-71 309h-7l-71 -309q-5 -22 -23 -29t-64 -7zM274 562q-32 0 -41.5 7t-9.5 30v19q0 22 9.5 29t41.5 7t41.5 -7t9.5 -29v-19q0 -23 -9.5 -30t-41.5 -7zM430 562q-32 0 -41.5 7t-9.5 30v19q0 22 9.5 29t41.5 7t41 -7t9 -29v-19q0 -23 -9 -30
t-41 -7z" />
    <glyph glyph-name="Eszett" unicode="&#x1e9e;" horiz-adv-x="504" 
d="M100 0q-29 0 -38.5 6t-9.5 24v443q0 81 42.5 117t148.5 36q73 0 142 -21q49 -16 49 -48q0 -21 -14 -49l-87 -162l77 -73q26 -28 37 -42t20 -38t9 -54q0 -76 -38 -110.5t-117 -34.5q-50 0 -100 13q-16 4 -21 12.5t-5 34.5q0 23 3.5 30t11.5 7q4 0 35 -5.5t54 -5.5
q46 0 61.5 15.5t15.5 51.5q0 34 -31 62l-77 72q-28 28 -28 51q0 18 14 46l80 150q-35 13 -92 13q-60 0 -77 -14t-17 -50v-447q0 -18 -9.5 -24t-38.5 -6z" />
    <glyph glyph-name="Ygrave" unicode="&#x1ef2;" horiz-adv-x="463" 
d="M232 0q-30 0 -39.5 5.5t-9.5 24.5v203l-155 324q-12 26 -12 38q0 23 43 23q34 0 45.5 -5t18.5 -22l106 -255h5l106 255q7 17 18 22t44 5q46 0 46 -22q0 -10 -13 -39l-155 -324v-203q0 -18 -9.5 -24t-38.5 -6zM252 662q-19 0 -30 3.5t-15 7.5t-11 15l-52 82q-15 28 -15 36
q0 18 54 18q31 0 40 -5.5t19 -25.5l41 -83q10 -20 10 -31q0 -17 -41 -17z" />
    <glyph glyph-name="ygrave" unicode="&#x1ef3;" horiz-adv-x="461" 
d="M22 467q0 13 9.5 19t40.5 6q29 0 39 -4.5t14 -20.5l100 -384h9l102 384q4 16 13.5 20.5t38.5 4.5q31 0 41.5 -5.5t10.5 -18.5q0 -16 -14 -61l-136 -448q-27 -91 -55.5 -122t-96.5 -31q-50 0 -88 12q-14 4 -19.5 12t-5.5 28q0 40 18 40q2 0 29.5 -4t54.5 -4q35 0 49 11.5
t23 46.5l13 52q-33 1 -46.5 11.5t-22.5 38.5l-105 344q-16 52 -16 73zM252 539q-19 0 -30 3.5t-15 7.5t-11 15l-52 82q-15 28 -15 36q0 18 54 18q31 0 40 -5.5t19 -25.5l41 -83q10 -20 10 -31q0 -17 -41 -17z" />
    <glyph glyph-name="endash" unicode="&#x2013;" horiz-adv-x="419" 
d="M33 261q0 27 5.5 35t22.5 8h297q17 0 22.5 -8t5.5 -35t-5.5 -35t-22.5 -8h-297q-17 0 -22.5 8t-5.5 35z" />
    <glyph glyph-name="emdash" unicode="&#x2014;" horiz-adv-x="667" 
d="M33 261q0 27 5.5 35t22.5 8h545q17 0 22.5 -8t5.5 -35t-5.5 -35t-22.5 -8h-545q-17 0 -22.5 8t-5.5 35z" />
    <glyph glyph-name="afii00208" unicode="&#x2015;" horiz-adv-x="667" 
d="M33 261q0 27 5.5 35t22.5 8h545q17 0 22.5 -8t5.5 -35t-5.5 -35t-22.5 -8h-545q-17 0 -22.5 8t-5.5 35z" />
    <glyph glyph-name="quoteleft" unicode="&#x2018;" horiz-adv-x="195" 
d="M90 419q-31 0 -40.5 7t-9.5 29v27q0 34 15 84l16 54q8 21 18 27.5t34 6.5q18 0 24 -4t6 -14q0 -6 -6.5 -51.5t-6.5 -73.5v-56q0 -22 -9 -29t-41 -7z" />
    <glyph glyph-name="quoteright" unicode="&#x2019;" horiz-adv-x="195" 
d="M105 654q32 0 41 -7t9 -29v-27q0 -36 -15 -84l-16 -55q-8 -21 -17.5 -27t-33.5 -6q-19 0 -25 4t-6 14q0 6 7 51t7 74v56q0 22 9 29t40 7z" />
    <glyph glyph-name="quotesinglbase" unicode="&#x201a;" horiz-adv-x="165" 
d="M81 105q31 0 40.5 -7t9.5 -29v-27q0 -36 -15 -84l-16 -55q-8 -21 -17.5 -27t-34.5 -6q-18 0 -24 4t-6 14q0 6 6.5 51t6.5 74v56q0 22 9 29t41 7z" />
    <glyph glyph-name="quotedblleft" unicode="&#x201c;" horiz-adv-x="355" 
d="M90 419q-31 0 -40.5 7t-9.5 29v27q0 34 15 84l16 54q8 21 18 27.5t34 6.5q18 0 24 -4t6 -14q0 -6 -6.5 -51.5t-6.5 -73.5v-56q0 -22 -9 -29t-41 -7zM249 419q-31 0 -40 7t-9 29v27q0 34 15 84l16 54q8 21 17 27.5t34 6.5q18 0 24 -4t6 -14q0 -6 -6.5 -51.5t-6.5 -73.5
v-56q0 -22 -9 -29t-41 -7z" />
    <glyph glyph-name="quotedblright" unicode="&#x201d;" horiz-adv-x="355" 
d="M265 654q31 0 40 -7t9 -29v-27q0 -36 -15 -84l-16 -55q-8 -21 -17 -27t-34 -6q-18 0 -24 4t-6 14q0 6 6.5 51t6.5 74v56q0 22 9 29t41 7zM105 654q32 0 41 -7t9 -29v-27q0 -36 -15 -84l-16 -55q-8 -21 -17.5 -27t-33.5 -6q-19 0 -25 4t-6 14q0 6 7 51t7 74v56q0 22 9 29
t40 7z" />
    <glyph glyph-name="quotedblbase" unicode="&#x201e;" horiz-adv-x="324" 
d="M81 105q31 0 40.5 -7t9.5 -29v-27q0 -36 -15 -84l-16 -55q-8 -21 -17.5 -27t-34.5 -6q-18 0 -24 4t-6 14q0 6 6.5 51t6.5 74v56q0 22 9 29t41 7zM240 105q32 0 41 -7t9 -29v-27q0 -36 -15 -84l-16 -55q-8 -21 -17.5 -27t-34.5 -6q-18 0 -24 4t-6 14q0 6 7 51t7 74v56
q0 22 9 29t40 7z" />
    <glyph glyph-name="dagger" unicode="&#x2020;" horiz-adv-x="432" 
d="M216 -190q-28 0 -38 5.5t-10 22.5v487h-114q-17 0 -22.5 7.5t-5.5 34.5t5.5 34.5t22.5 7.5h114v140q0 17 10 22.5t38 5.5t38 -5.5t10 -22.5v-140h114q17 0 22.5 -7.5t5.5 -34.5t-5.5 -34.5t-22.5 -7.5h-114v-487q0 -17 -10 -22.5t-38 -5.5z" />
    <glyph glyph-name="daggerdbl" unicode="&#x2021;" horiz-adv-x="432" 
d="M216 -190q-28 0 -38 5.5t-10 22.5v140h-114q-17 0 -22.5 8t-5.5 35q0 26 5.5 33.5t22.5 7.5h114v263h-114q-17 0 -22.5 7.5t-5.5 34.5t5.5 34.5t22.5 7.5h114v140q0 17 10 22.5t38 5.5t38 -5.5t10 -22.5v-140h114q17 0 22.5 -7.5t5.5 -34.5t-5.5 -34.5t-22.5 -7.5h-114
v-263h114q17 0 22.5 -7.5t5.5 -33.5q0 -27 -5.5 -35t-22.5 -8h-114v-140q0 -17 -10 -22.5t-38 -5.5z" />
    <glyph glyph-name="bullet" unicode="&#x2022;" horiz-adv-x="302" 
d="M151 148q-69 0 -95 26t-26 99q0 75 25 98.5t96 23.5t96 -23.5t25 -98.5q0 -73 -26 -99t-95 -26z" />
    <glyph glyph-name="ellipsis" unicode="&#x2026;" horiz-adv-x="558" 
d="M91 0q-32 0 -42 7t-10 29v33q0 23 9.5 29.5t42.5 6.5q32 0 41.5 -6.5t9.5 -29.5v-33q0 -22 -9.5 -29t-41.5 -7zM280 0q-32 0 -42 7t-10 29v33q0 23 9.5 29.5t42.5 6.5q32 0 41.5 -6.5t9.5 -29.5v-33q0 -22 -9.5 -29t-41.5 -7zM469 0q-32 0 -42 7t-10 29v33q0 23 9.5 29.5
t42.5 6.5q32 0 41.5 -6.5t9.5 -29.5v-33q0 -22 -9.5 -29t-41.5 -7z" />
    <glyph glyph-name="perthousand" unicode="&#x2030;" horiz-adv-x="797" 
d="M384 0q-72 0 -94.5 27.5t-22.5 111.5q0 83 23.5 110.5t93.5 27.5q71 0 94 -27.5t23 -110.5q0 -84 -22.5 -111.5t-94.5 -27.5zM384 61q31 0 38.5 14t7.5 63q0 50 -7.5 64t-38.5 14q-30 0 -37.5 -14t-7.5 -64q0 -49 7.5 -63t37.5 -14zM136 341q-72 0 -94 27.5t-22 111.5
q0 83 23 110.5t93 27.5q71 0 94.5 -27.5t23.5 -110.5q0 -84 -22.5 -111.5t-95.5 -27.5zM136 402q31 0 38.5 14t7.5 63t-7.5 63t-38.5 14q-30 0 -37.5 -14t-7.5 -63t7.5 -63t37.5 -14zM82 0q-34 0 -34 15q0 10 11 28l324 555q6 12 16.5 16t37.5 4q34 0 34 -15q0 -9 -11 -29
l-324 -554q-6 -12 -16.5 -16t-37.5 -4zM660 0q-72 0 -94.5 27.5t-22.5 111.5q0 83 23.5 110.5t93.5 27.5t93.5 -27.5t23.5 -110.5q0 -84 -22.5 -111.5t-94.5 -27.5zM660 61q30 0 37.5 14t7.5 63q0 51 -7 64.5t-38 13.5t-38 -13.5t-7 -64.5q0 -49 7.5 -63t37.5 -14z" />
    <glyph glyph-name="guilsinglleft" unicode="&#x2039;" horiz-adv-x="319" 
d="M129 256v-8l134 -101q15 -12 19.5 -22.5t4.5 -39.5q0 -35 -18 -35q-8 0 -22 9l-179 118q-21 14 -28.5 27.5t-7.5 47.5q0 33 7.5 46.5t28.5 27.5l179 118q14 9 22 9q18 0 18 -35q0 -29 -4 -40t-20 -22z" />
    <glyph glyph-name="guilsinglright" unicode="&#x203a;" horiz-adv-x="319" 
d="M287 252q0 -34 -7.5 -47.5t-28.5 -27.5l-179 -118q-14 -9 -22 -9q-18 0 -18 35q0 29 4.5 39.5t19.5 22.5l134 101v8l-134 100q-16 11 -20 22t-4 40q0 35 18 35q8 0 22 -9l179 -118q21 -14 28.5 -27.5t7.5 -46.5z" />
    <glyph glyph-name="fraction" unicode="&#x2044;" 
d="M342 626q20 0 27 -3t7 -12q0 -8 -7 -28l-207 -559q-5 -14 -14 -19t-31 -5q-34 0 -34 15q0 8 7 28l207 560q5 13 14 18t31 5z" />
    <glyph glyph-name="Euro" unicode="&#x20ac;" 
d="M323 275q0 -13 -11 -42q-4 -11 -14 -11h-133q2 -51 7.5 -79.5t21.5 -43t35 -18t58 -3.5q41 0 82 8.5t42 8.5q10 0 13.5 -6.5t3.5 -32.5q0 -24 -5 -32.5t-19 -12.5q-63 -19 -140 -19q-39 0 -63.5 3.5t-50.5 16t-40.5 37t-25 67.5t-12.5 106h-45q-10 0 -10 9q0 12 10 42
q4 11 15 11h30v59h-45q-10 0 -10 9q0 10 10 42q4 11 15 11h31q3 59 13.5 99.5t25.5 63.5t41 35.5t50.5 16t62.5 3.5q69 0 138 -19q14 -4 19 -12t5 -34q0 -25 -3.5 -31.5t-13.5 -6.5q-4 0 -22 4t-45.5 8.5t-56.5 4.5q-73 0 -96 -23t-26 -109h169q11 0 11 -9q0 -13 -11 -42
q-4 -11 -14 -11h-155v-59h147q11 0 11 -9z" />
    <glyph glyph-name="hryvnia" unicode="&#x20b4;" 
d="M50 363q0 20 5.5 26.5t20.5 6.5h166l30 35q37 43 37 71q0 20 -18.5 27t-67.5 7q-41 0 -93 -8l-51 -9q-18 0 -18 39q0 25 5.5 34t17.5 12q65 19 157 19q78 0 117.5 -21.5t39.5 -80.5q0 -56 -59 -125h46q15 0 20.5 -6.5t5.5 -26.5q0 -21 -5.5 -27.5t-20.5 -6.5h-104
l-36 -43h140q16 0 21 -6t5 -27t-5 -27t-21 -6h-196q-31 -35 -41 -53.5t-10 -39.5q0 -28 25 -38t84 -10q45 0 97 7.5t54 7.5q9 0 13 -7t4 -31t-5 -33t-19 -13q-74 -18 -168 -18q-88 0 -131 25.5t-43 97.5q0 52 41 105h-14q-16 0 -21 6t-5 27t5 27t21 6h71l37 43h-108
q-15 0 -20.5 6.5t-5.5 27.5z" />
    <glyph glyph-name="numero" unicode="&#x2116;" horiz-adv-x="906" 
d="M575 137q0 27 5 35t22 8h216q17 0 22.5 -8t5.5 -35q0 -26 -5.5 -34.5t-22.5 -8.5h-216q-16 0 -21.5 8.5t-5.5 34.5zM707 249q-40 0 -64 5.5t-44.5 24t-29.5 56t-9 97.5q0 63 9 101.5t31 58t48.5 25.5t71.5 6q40 0 63.5 -5.5t44.5 -23.5t30 -55t9 -97q0 -64 -9 -102.5
t-31 -58.5t-48.5 -26t-71.5 -6zM708 316q47 0 62 21t15 96q0 81 -13.5 102t-53.5 21q-47 0 -61.5 -20t-14.5 -96q0 -80 13 -102t53 -22zM104 0q-30 0 -39.5 5.5t-9.5 24.5v558q0 19 12.5 24.5t51.5 5.5q32 0 45.5 -5t22.5 -24l193 -428h9v427q0 18 9.5 24t38.5 6
q30 0 39.5 -5.5t9.5 -24.5v-558q0 -19 -11.5 -24.5t-50.5 -5.5q-32 0 -44 4.5t-21 24.5l-198 428h-9v-427q0 -18 -9.5 -24t-38.5 -6z" />
    <glyph glyph-name="trademark" unicode="&#x2122;" horiz-adv-x="770" 
d="M168 276q-27 0 -34.5 5.5t-7.5 24.5v236h-72q-17 0 -22.5 6.5t-5.5 31.5t5.5 31.5t22.5 6.5h229q17 0 22.5 -6.5t5.5 -31.5t-5.5 -31.5t-22.5 -6.5h-72v-236q0 -19 -7.5 -24.5t-35.5 -5.5zM402 273q-27 0 -35 5.5t-8 23.5v281q0 22 12 28.5t56 6.5q39 0 52 -7t23 -35
l50 -145l49 145q10 28 23.5 35t52.5 7q44 0 55.5 -6.5t11.5 -28.5v-281q0 -18 -7.5 -23.5t-34.5 -5.5q-28 0 -35.5 5.5t-7.5 23.5q0 35 0.5 104.5t0.5 103.5h-8l-55 -152q-8 -21 -15.5 -26.5t-29.5 -5.5t-30 6t-16 26l-54 152h-8q0 -34 0.5 -103.5t0.5 -104.5
q0 -18 -8 -23.5t-35 -5.5z" />
    <glyph glyph-name="minus" unicode="&#x2212;" 
d="M91 261q0 27 5 35t22 8h227q17 0 22.5 -8t5.5 -35t-5.5 -35t-22.5 -8h-227q-17 0 -22 8t-5 35z" />
    <glyph glyph-name="commaaccent" unicode="&#xf6c3;" horiz-adv-x="164" 
d="M58 -233q-18 0 -24 4t-6 14q0 5 5.5 49.5t5.5 81.5q0 24 9 31t40 7q30 0 40 -6t10 -23q0 -48 -11 -74l-21 -61q-6 -14 -15 -18.5t-33 -4.5z" />
    <glyph glyph-name="ruble" 
d="M126 0q-29 0 -38.5 6t-9.5 24v117h-36q-16 0 -21 6t-5 27t5.5 27.5t20.5 6.5h36v49h-36q-15 0 -20.5 6.5t-5.5 27.5t5 27t21 6h36v248q0 18 7.5 26t23.5 10q81 9 141 9q112 0 147.5 -30t35.5 -133q0 -112 -41 -154.5t-155 -42.5h-62v-49h164q15 0 20.5 -6.5t5.5 -27.5
t-5 -27t-21 -6h-164v-117q0 -19 -9.5 -24.5t-39.5 -5.5zM175 544v-214h61q63 0 82.5 25t19.5 97q0 63 -15 79.5t-78 16.5q-32 0 -70 -4z" />
    </font>
</defs>
</svg>
